<svg xmlns="http://www.w3.org/2000/svg" xmlns:xlink="http://www.w3.org/1999/xlink" width="1024" zoomAndPan="magnify" viewBox="0 0 768 576" height="768" preserveAspectRatio="xMidYMid meet" version="1.2"><defs><clipPath id="7be5769412"><path d="M 697 50.703125 L 710 50.703125 L 710 64.203125 L 697 64.203125 Z M 697 50.703125 "/></clipPath></defs><g id="d11ef95c92"><g clip-rule="nonzero" clip-path="url(#7be5769412)"><path style=" stroke:none;fill-rule:evenodd;fill:#f9f7f8;fill-opacity:1;" d="M 700.515625 62.738281 C 700.332031 62.738281 700.304688 62.476562 700.460938 62.421875 L 707.550781 60.539062 C 707.761719 60.488281 707.839844 60.773438 707.632812 60.828125 Z M 708.652344 64.175781 L 700.960938 64.175781 C 700.90625 64.203125 700.828125 64.203125 700.75 64.203125 C 700.382812 64.203125 700.042969 63.941406 699.9375 63.574219 L 697.324219 53.761719 C 697.191406 53.292969 697.453125 52.820312 697.898438 52.714844 L 704.910156 50.832031 C 705.355469 50.703125 705.824219 50.988281 705.957031 51.433594 L 706.191406 52.324219 L 708.652344 52.324219 C 709.121094 52.324219 709.515625 52.691406 709.515625 53.160156 L 709.515625 63.339844 C 709.515625 63.808594 709.121094 64.175781 708.652344 64.175781 Z M 708.285156 61.324219 L 705.644531 51.511719 C 705.5625 51.226562 705.277344 51.066406 704.988281 51.148438 L 698.003906 53.003906 C 697.714844 53.082031 697.53125 53.398438 697.609375 53.660156 L 700.253906 63.496094 C 700.332031 63.785156 700.621094 63.941406 700.90625 63.863281 L 707.894531 62.003906 C 708.179688 61.925781 708.363281 61.613281 708.285156 61.324219 Z M 702.136719 63.863281 L 708.652344 63.863281 C 708.9375 63.863281 709.199219 63.625 709.199219 63.339844 L 709.199219 53.160156 C 709.199219 52.875 708.9375 52.636719 708.652344 52.636719 L 706.269531 52.636719 L 708.597656 61.246094 C 708.703125 61.714844 708.441406 62.1875 707.996094 62.292969 Z M 699.546875 59.101562 C 699.363281 59.101562 699.3125 58.839844 699.496094 58.8125 L 706.585938 56.902344 C 706.792969 56.851562 706.871094 57.164062 706.664062 57.214844 Z M 699.703125 59.753906 C 699.519531 59.753906 699.496094 59.492188 699.675781 59.464844 L 706.769531 57.554688 C 706.949219 57.503906 707.03125 57.816406 706.847656 57.871094 Z M 699.886719 60.433594 C 699.703125 60.433594 699.675781 60.171875 699.859375 60.121094 L 706.925781 58.210938 C 707.132812 58.160156 707.210938 58.472656 707.03125 58.523438 Z M 700.148438 61.429688 C 699.964844 61.429688 699.9375 61.167969 700.121094 61.113281 L 707.210938 59.203125 C 707.394531 59.152344 707.472656 59.464844 707.292969 59.519531 Z M 700.332031 62.082031 C 700.148438 62.082031 700.121094 61.820312 700.304688 61.769531 L 707.371094 59.886719 C 707.578125 59.804688 707.65625 60.121094 707.449219 60.171875 Z M 700.332031 62.082031 "/></g><path style=" stroke:none;fill-rule:nonzero;fill:#ffbd83;fill-opacity:1;" d="M 325.289062 226.945312 C 325.289062 226.945312 638.949219 183.03125 696.050781 257.503906 C 742.898438 318.617188 746.972656 435.953125 700.121094 470.589844 C 653.265625 505.21875 581.964844 491.773438 581.964844 491.773438 C 581.964844 491.773438 634.9375 552.886719 626.785156 561.035156 C 618.632812 569.183594 547.671875 530.480469 520.003906 508.070312 C 492.335938 485.664062 362.675781 506.722656 325.289062 493.8125 C 258.0625 470.589844 215.289062 373.621094 231.582031 308.433594 C 247.878906 243.242188 300.957031 228.710938 325.289062 226.945312 Z M 325.289062 226.945312 "/><path style=" stroke:none;fill-rule:nonzero;fill:#e67e22;fill-opacity:1;" d="M 442.40625 94.53125 C 442.40625 94.53125 128.742188 50.617188 71.644531 125.089844 C 24.792969 186.203125 20.71875 303.539062 67.570312 338.171875 C 114.425781 372.804688 185.726562 359.359375 185.726562 359.359375 C 185.726562 359.359375 132.761719 420.472656 140.910156 428.621094 C 149.058594 436.773438 220.023438 398.066406 247.6875 375.65625 C 275.359375 353.25 405.015625 374.308594 442.40625 361.398438 C 509.632812 338.175781 552.410156 241.207031 536.109375 176.019531 C 519.816406 110.828125 466.734375 96.300781 442.40625 94.53125 Z M 442.40625 94.53125 "/><path style=" stroke:none;fill-rule:nonzero;fill:#e67e22;fill-opacity:1;" d="M 222.941406 215.125 C 222.941406 215.125 196.511719 226.941406 208.785156 235.664062 C 221.050781 244.386719 240.878906 241.554688 239.933594 230.226562 C 238.988281 218.894531 230.472656 211.039062 222.941406 215.125 Z M 222.941406 215.125 "/><path style=" stroke:none;fill-rule:nonzero;fill:#e67e22;fill-opacity:1;" d="M 274.863281 216.480469 C 274.863281 216.480469 254.089844 231.8125 274.863281 238.421875 C 295.628906 245.027344 298.464844 233.476562 296.574219 227.453125 C 294.6875 221.425781 289.023438 209.648438 274.863281 216.480469 Z M 274.863281 216.480469 "/><path style=" stroke:none;fill-rule:nonzero;fill:#e67e22;fill-opacity:1;" d="M 332.445312 214.414062 C 332.445312 214.414062 318.289062 219.917969 320.171875 230.300781 C 322.0625 240.683594 334.332031 243.882812 340.9375 240.394531 C 347.554688 236.90625 356.046875 227.46875 352.269531 221.804688 C 348.492188 216.144531 338.925781 210.640625 332.445312 214.414062 Z M 332.445312 214.414062 "/><g style="fill:#000000;fill-opacity:1;"><g transform="translate(100.804464, 251.43294)"><path style="stroke:none" d="M 9.859375 -34.21875 C 7.640625 -34.21875 6.054688 -34.78125 5.109375 -35.90625 C 4.171875 -37.039062 3.703125 -38.445312 3.703125 -40.125 C 3.703125 -41.800781 4.210938 -43.179688 5.234375 -44.265625 C 6.265625 -45.359375 7.828125 -45.90625 9.921875 -45.90625 C 12.015625 -45.90625 13.601562 -45.410156 14.6875 -44.421875 C 15.78125 -43.441406 16.328125 -42.039062 16.328125 -40.21875 C 16.328125 -38.394531 15.800781 -36.9375 14.75 -35.84375 C 13.707031 -34.757812 12.078125 -34.21875 9.859375 -34.21875 Z M 0.375 -29.890625 L 15.765625 -29.890625 L 15.765625 -1.125 L 19.28125 -1.125 L 19.28125 0 L 0.625 0 L 0.625 -1.125 L 4.078125 -1.125 L 4.078125 -28.765625 L 0.375 -28.765625 Z M 0.375 -29.890625 "/></g></g><g style="fill:#000000;fill-opacity:1;"><g transform="translate(118.824673, 251.43294)"><path style="stroke:none" d="M 0.3125 -28.765625 L 0.3125 -29.890625 L 18.53125 -29.890625 L 18.53125 -28.765625 L 15.140625 -28.765625 L 21.984375 -7.90625 L 29.265625 -28.765625 L 25.0625 -28.765625 L 25.0625 -29.890625 L 33.90625 -29.890625 L 33.90625 -28.765625 L 30.765625 -28.765625 L 19.03125 5.09375 C 17.644531 9.019531 16.09375 11.769531 14.375 13.34375 C 12.664062 14.914062 10.570312 15.703125 8.09375 15.703125 C 5.625 15.703125 3.675781 15.132812 2.25 14 C 0.832031 12.875 0.125 11.429688 0.125 9.671875 C 0.125 7.910156 0.582031 6.566406 1.5 5.640625 C 2.425781 4.722656 3.644531 4.265625 5.15625 4.265625 C 8.625 4.265625 10.359375 5.710938 10.359375 8.609375 C 10.359375 9.234375 10.234375 9.984375 9.984375 10.859375 L 7.78125 10.859375 C 7.445312 11.828125 7.40625 12.625 7.65625 13.25 C 7.90625 13.875 8.472656 14.1875 9.359375 14.1875 C 11.078125 14.1875 12.601562 13.335938 13.9375 11.640625 C 15.28125 9.953125 16.554688 7.367188 17.765625 3.890625 L 19.15625 0 L 13.625 0 L 2.890625 -28.765625 Z M 0.3125 -28.765625 "/></g></g><g style="fill:#000000;fill-opacity:1;"><g transform="translate(152.228465, 251.43294)"><path style="stroke:none" d="M 9.859375 -34.21875 C 7.640625 -34.21875 6.054688 -34.78125 5.109375 -35.90625 C 4.171875 -37.039062 3.703125 -38.445312 3.703125 -40.125 C 3.703125 -41.800781 4.210938 -43.179688 5.234375 -44.265625 C 6.265625 -45.359375 7.828125 -45.90625 9.921875 -45.90625 C 12.015625 -45.90625 13.601562 -45.410156 14.6875 -44.421875 C 15.78125 -43.441406 16.328125 -42.039062 16.328125 -40.21875 C 16.328125 -38.394531 15.800781 -36.9375 14.75 -35.84375 C 13.707031 -34.757812 12.078125 -34.21875 9.859375 -34.21875 Z M 0.375 -29.890625 L 15.765625 -29.890625 L 15.765625 -1.125 L 19.28125 -1.125 L 19.28125 0 L 0.625 0 L 0.625 -1.125 L 4.078125 -1.125 L 4.078125 -28.765625 L 0.375 -28.765625 Z M 0.375 -29.890625 "/></g></g><g style="fill:#000000;fill-opacity:1;"><g transform="translate(172.132601, 251.43294)"><path style="stroke:none" d=""/></g></g><g style="fill:#000000;fill-opacity:1;"><g transform="translate(183.434637, 251.43294)"><path style="stroke:none" d="M 15.703125 -14.75 L 17.515625 -14.75 L 17.515625 -19.59375 C 17.515625 -23.570312 17.296875 -26.238281 16.859375 -27.59375 C 16.421875 -28.957031 15.570312 -29.640625 14.3125 -29.640625 C 13.5625 -29.640625 12.878906 -29.441406 12.265625 -29.046875 C 11.660156 -28.648438 11.359375 -28.101562 11.359375 -27.40625 C 11.359375 -26.71875 11.488281 -26.019531 11.75 -25.3125 L 13.3125 -25.3125 C 13.644531 -24.425781 13.8125 -23.363281 13.8125 -22.125 C 13.8125 -20.894531 13.285156 -19.828125 12.234375 -18.921875 C 11.191406 -18.023438 9.878906 -17.578125 8.296875 -17.578125 C 4.691406 -17.578125 2.890625 -19.316406 2.890625 -22.796875 C 2.890625 -27.941406 7.265625 -30.515625 16.015625 -30.515625 C 20.992188 -30.515625 24.4375 -29.664062 26.34375 -27.96875 C 28.25 -26.28125 29.203125 -23.175781 29.203125 -18.65625 L 29.203125 -5.90625 C 29.203125 -3.726562 29.804688 -2.640625 31.015625 -2.640625 C 32.441406 -2.640625 33.28125 -4.796875 33.53125 -9.109375 L 34.46875 -9.046875 C 34.300781 -5.359375 33.609375 -2.820312 32.390625 -1.4375 C 31.179688 -0.0625 29.195312 0.625 26.4375 0.625 C 21.414062 0.625 18.523438 -0.921875 17.765625 -4.015625 C 17.222656 -2.421875 16.40625 -1.25 15.3125 -0.5 C 14.226562 0.25 12.640625 0.625 10.546875 0.625 C 4.347656 0.625 1.25 -1.90625 1.25 -6.96875 C 1.25 -9.9375 2.429688 -11.972656 4.796875 -13.078125 C 7.171875 -14.191406 10.804688 -14.75 15.703125 -14.75 Z M 13.1875 -7.03125 C 13.1875 -4.851562 13.300781 -3.453125 13.53125 -2.828125 C 13.757812 -2.203125 14.195312 -1.890625 14.84375 -1.890625 C 15.5 -1.890625 16.109375 -2.421875 16.671875 -3.484375 C 17.234375 -4.554688 17.515625 -6.03125 17.515625 -7.90625 L 17.515625 -13.75 L 17.078125 -13.75 C 14.484375 -13.75 13.1875 -11.84375 13.1875 -8.03125 Z M 13.1875 -7.03125 "/></g></g><g style="fill:#000000;fill-opacity:1;"><g transform="translate(217.905842, 251.43294)"><path style="stroke:none" d="M 21.15625 0 L 21.15625 -1.125 L 24.046875 -1.125 L 16.953125 -15.703125 L 15.765625 -15.390625 L 15.765625 -1.125 L 18.65625 -1.125 L 18.65625 0 L 0.625 0 L 0.625 -1.125 L 4.078125 -1.125 L 4.078125 -45.96875 L 0.375 -45.96875 L 0.375 -47.09375 L 15.765625 -47.09375 L 15.765625 -16.640625 L 16.765625 -17.015625 L 30.890625 -28.765625 L 25 -28.765625 L 25 -29.890625 L 37.359375 -29.890625 L 37.359375 -28.765625 L 32.96875 -28.765625 L 25.5 -22.421875 L 36.359375 -1.125 L 38.625 -1.125 L 38.625 0 Z M 21.15625 0 "/></g></g><g style="fill:#000000;fill-opacity:1;"><g transform="translate(256.83507, 251.43294)"><path style="stroke:none" d="M 2.078125 0.625 L 2.078125 -10.609375 L 2.828125 -10.609375 C 3.910156 -6.972656 5.375 -4.421875 7.21875 -2.953125 C 9.0625 -1.484375 11.363281 -0.75 14.125 -0.75 C 18.394531 -0.75 20.53125 -2.109375 20.53125 -4.828125 C 20.53125 -6.003906 20.007812 -6.882812 18.96875 -7.46875 C 17.332031 -8.394531 15.238281 -9.109375 12.6875 -9.609375 C 9.84375 -10.359375 7.457031 -11.363281 5.53125 -12.625 C 3.226562 -14.132812 2.078125 -16.519531 2.078125 -19.78125 C 2.078125 -23.039062 3.078125 -25.644531 5.078125 -27.59375 C 7.085938 -29.539062 9.769531 -30.515625 13.125 -30.515625 C 15.175781 -30.515625 17.289062 -30.035156 19.46875 -29.078125 C 20.257812 -28.742188 20.863281 -28.578125 21.28125 -28.578125 C 21.707031 -28.578125 22.066406 -28.722656 22.359375 -29.015625 C 22.648438 -29.304688 23.003906 -29.847656 23.421875 -30.640625 L 24.109375 -30.640625 L 24.109375 -21.03125 L 23.359375 -21.03125 C 21.222656 -26.476562 17.914062 -29.203125 13.4375 -29.203125 C 11.46875 -29.203125 10 -28.851562 9.03125 -28.15625 C 8.070312 -27.46875 7.59375 -26.601562 7.59375 -25.5625 C 7.59375 -24.925781 7.738281 -24.429688 8.03125 -24.078125 C 8.332031 -23.722656 8.566406 -23.460938 8.734375 -23.296875 C 8.898438 -23.128906 9.171875 -22.953125 9.546875 -22.765625 C 9.921875 -22.578125 10.234375 -22.429688 10.484375 -22.328125 C 10.734375 -22.222656 11.117188 -22.085938 11.640625 -21.921875 C 12.171875 -21.753906 12.5625 -21.648438 12.8125 -21.609375 C 15.65625 -20.890625 17.703125 -20.269531 18.953125 -19.75 C 20.210938 -19.226562 21.410156 -18.585938 22.546875 -17.828125 C 24.847656 -16.242188 26 -13.679688 26 -10.140625 C 26 -6.597656 24.953125 -3.914062 22.859375 -2.09375 C 20.765625 -0.28125 17.894531 0.625 14.25 0.625 C 13.789062 0.625 13.457031 0.601562 13.25 0.5625 L 11.484375 3.640625 C 12.367188 3.515625 13.0625 3.453125 13.5625 3.453125 C 17.957031 3.453125 20.15625 5.316406 20.15625 9.046875 C 20.15625 10.765625 19.460938 12.28125 18.078125 13.59375 C 16.703125 14.914062 14.550781 15.578125 11.625 15.578125 C 9.695312 15.578125 8.132812 15.1875 6.9375 14.40625 C 5.75 13.632812 5.15625 12.722656 5.15625 11.671875 C 5.15625 10.628906 5.40625 9.859375 5.90625 9.359375 C 6.40625 8.859375 7.050781 8.609375 7.84375 8.609375 C 9.269531 8.609375 10.234375 9.398438 10.734375 10.984375 L 9.109375 12.25 C 9.109375 12.832031 9.273438 13.363281 9.609375 13.84375 C 9.941406 14.320312 10.492188 14.5625 11.265625 14.5625 C 12.046875 14.5625 12.613281 14.195312 12.96875 13.46875 C 13.320312 12.738281 13.5 11.609375 13.5 10.078125 C 13.5 8.546875 13.476562 7.488281 13.4375 6.90625 C 13.269531 5.351562 12.617188 4.578125 11.484375 4.578125 C 10.898438 4.578125 10.273438 4.660156 9.609375 4.828125 L 9.421875 4.265625 L 11.6875 0.4375 C 10.09375 0.226562 8.4375 -0.3125 6.71875 -1.1875 C 6.21875 -1.53125 5.820312 -1.703125 5.53125 -1.703125 C 4.601562 -1.703125 3.703125 -0.925781 2.828125 0.625 Z M 2.078125 0.625 "/></g></g><g style="fill:#000000;fill-opacity:1;"><g transform="translate(283.708796, 251.43294)"><path style="stroke:none" d="M 15.703125 -14.75 L 17.515625 -14.75 L 17.515625 -19.59375 C 17.515625 -23.570312 17.296875 -26.238281 16.859375 -27.59375 C 16.421875 -28.957031 15.570312 -29.640625 14.3125 -29.640625 C 13.5625 -29.640625 12.878906 -29.441406 12.265625 -29.046875 C 11.660156 -28.648438 11.359375 -28.101562 11.359375 -27.40625 C 11.359375 -26.71875 11.488281 -26.019531 11.75 -25.3125 L 13.3125 -25.3125 C 13.644531 -24.425781 13.8125 -23.363281 13.8125 -22.125 C 13.8125 -20.894531 13.285156 -19.828125 12.234375 -18.921875 C 11.191406 -18.023438 9.878906 -17.578125 8.296875 -17.578125 C 4.691406 -17.578125 2.890625 -19.316406 2.890625 -22.796875 C 2.890625 -27.941406 7.265625 -30.515625 16.015625 -30.515625 C 20.992188 -30.515625 24.4375 -29.664062 26.34375 -27.96875 C 28.25 -26.28125 29.203125 -23.175781 29.203125 -18.65625 L 29.203125 -5.90625 C 29.203125 -3.726562 29.804688 -2.640625 31.015625 -2.640625 C 32.441406 -2.640625 33.28125 -4.796875 33.53125 -9.109375 L 34.46875 -9.046875 C 34.300781 -5.359375 33.609375 -2.820312 32.390625 -1.4375 C 31.179688 -0.0625 29.195312 0.625 26.4375 0.625 C 21.414062 0.625 18.523438 -0.921875 17.765625 -4.015625 C 17.222656 -2.421875 16.40625 -1.25 15.3125 -0.5 C 14.226562 0.25 12.640625 0.625 10.546875 0.625 C 4.347656 0.625 1.25 -1.90625 1.25 -6.96875 C 1.25 -9.9375 2.429688 -11.972656 4.796875 -13.078125 C 7.171875 -14.191406 10.804688 -14.75 15.703125 -14.75 Z M 13.1875 -7.03125 C 13.1875 -4.851562 13.300781 -3.453125 13.53125 -2.828125 C 13.757812 -2.203125 14.195312 -1.890625 14.84375 -1.890625 C 15.5 -1.890625 16.109375 -2.421875 16.671875 -3.484375 C 17.234375 -4.554688 17.515625 -6.03125 17.515625 -7.90625 L 17.515625 -13.75 L 17.078125 -13.75 C 14.484375 -13.75 13.1875 -11.84375 13.1875 -8.03125 Z M 13.1875 -7.03125 "/></g></g><g style="fill:#000000;fill-opacity:1;"><g transform="translate(318.17999, 251.43294)"><path style="stroke:none" d="M 0.625 -29.890625 L 15.765625 -29.890625 L 15.765625 -24.109375 C 17.140625 -28.378906 20.179688 -30.515625 24.890625 -30.515625 C 29.609375 -30.515625 32.46875 -28.253906 33.46875 -23.734375 C 34.9375 -28.253906 38.015625 -30.515625 42.703125 -30.515625 C 48.859375 -30.515625 51.9375 -27.019531 51.9375 -20.03125 L 51.9375 -1.125 L 55.453125 -1.125 L 55.453125 0 L 38.0625 0 L 38.0625 -1.125 L 40.25 -1.125 L 40.25 -21.546875 C 40.25 -24.722656 39.976562 -26.582031 39.4375 -27.125 C 39.1875 -27.375 38.851562 -27.5 38.4375 -27.5 C 37.21875 -27.5 36.144531 -26.679688 35.21875 -25.046875 C 34.300781 -23.421875 33.84375 -21.351562 33.84375 -18.84375 L 33.84375 -1.125 L 36.109375 -1.125 L 36.109375 0 L 19.96875 0 L 19.96875 -1.125 L 22.171875 -1.125 L 22.171875 -21.546875 C 22.171875 -24.722656 21.894531 -26.582031 21.34375 -27.125 C 21.09375 -27.375 20.757812 -27.5 20.34375 -27.5 C 19.175781 -27.5 18.117188 -26.609375 17.171875 -24.828125 C 16.234375 -23.054688 15.765625 -20.9375 15.765625 -18.46875 L 15.765625 -1.125 L 18.015625 -1.125 L 18.015625 0 L 0.625 0 L 0.625 -1.125 L 4.078125 -1.125 L 4.078125 -28.765625 L 0.625 -28.765625 Z M 0.625 -29.890625 "/></g></g><g style="fill:#000000;fill-opacity:1;"><g transform="translate(373.936701, 251.43294)"><path style="stroke:none" d="M 0.375 -47.09375 L 15.765625 -47.09375 L 15.765625 -1.125 L 19.28125 -1.125 L 19.28125 0 L 0.625 0 L 0.625 -1.125 L 4.078125 -1.125 L 4.078125 -45.96875 L 0.375 -45.96875 Z M 0.375 -47.09375 "/></g></g><g style="fill:#000000;fill-opacity:1;"><g transform="translate(393.778055, 251.43294)"><path style="stroke:none" d="M 15.703125 -14.75 L 17.515625 -14.75 L 17.515625 -19.59375 C 17.515625 -23.570312 17.296875 -26.238281 16.859375 -27.59375 C 16.421875 -28.957031 15.570312 -29.640625 14.3125 -29.640625 C 13.5625 -29.640625 12.878906 -29.441406 12.265625 -29.046875 C 11.660156 -28.648438 11.359375 -28.101562 11.359375 -27.40625 C 11.359375 -26.71875 11.488281 -26.019531 11.75 -25.3125 L 13.3125 -25.3125 C 13.644531 -24.425781 13.8125 -23.363281 13.8125 -22.125 C 13.8125 -20.894531 13.285156 -19.828125 12.234375 -18.921875 C 11.191406 -18.023438 9.878906 -17.578125 8.296875 -17.578125 C 4.691406 -17.578125 2.890625 -19.316406 2.890625 -22.796875 C 2.890625 -27.941406 7.265625 -30.515625 16.015625 -30.515625 C 20.992188 -30.515625 24.4375 -29.664062 26.34375 -27.96875 C 28.25 -26.28125 29.203125 -23.175781 29.203125 -18.65625 L 29.203125 -5.90625 C 29.203125 -3.726562 29.804688 -2.640625 31.015625 -2.640625 C 32.441406 -2.640625 33.28125 -4.796875 33.53125 -9.109375 L 34.46875 -9.046875 C 34.300781 -5.359375 33.609375 -2.820312 32.390625 -1.4375 C 31.179688 -0.0625 29.195312 0.625 26.4375 0.625 C 21.414062 0.625 18.523438 -0.921875 17.765625 -4.015625 C 17.222656 -2.421875 16.40625 -1.25 15.3125 -0.5 C 14.226562 0.25 12.640625 0.625 10.546875 0.625 C 4.347656 0.625 1.25 -1.90625 1.25 -6.96875 C 1.25 -9.9375 2.429688 -11.972656 4.796875 -13.078125 C 7.171875 -14.191406 10.804688 -14.75 15.703125 -14.75 Z M 13.1875 -7.03125 C 13.1875 -4.851562 13.300781 -3.453125 13.53125 -2.828125 C 13.757812 -2.203125 14.195312 -1.890625 14.84375 -1.890625 C 15.5 -1.890625 16.109375 -2.421875 16.671875 -3.484375 C 17.234375 -4.554688 17.515625 -6.03125 17.515625 -7.90625 L 17.515625 -13.75 L 17.078125 -13.75 C 14.484375 -13.75 13.1875 -11.84375 13.1875 -8.03125 Z M 13.1875 -7.03125 "/></g></g><g style="fill:#000000;fill-opacity:1;"><g transform="translate(428.24926, 251.43294)"><path style="stroke:none" d="M 21.609375 -28.140625 C 20.054688 -28.140625 18.691406 -27.132812 17.515625 -25.125 C 16.347656 -23.113281 15.765625 -20.722656 15.765625 -17.953125 L 15.765625 -1.125 L 20.21875 -1.125 L 20.21875 0 L 0.625 0 L 0.625 -1.125 L 4.078125 -1.125 L 4.078125 -28.765625 L 0.625 -28.765625 L 0.625 -29.890625 L 15.765625 -29.890625 L 15.765625 -23.859375 C 16.304688 -25.992188 17.347656 -27.632812 18.890625 -28.78125 C 20.441406 -29.9375 22.203125 -30.515625 24.171875 -30.515625 C 26.140625 -30.515625 27.738281 -29.957031 28.96875 -28.84375 C 30.207031 -27.738281 30.828125 -26.171875 30.828125 -24.140625 C 30.828125 -22.109375 30.363281 -20.546875 29.4375 -19.453125 C 28.519531 -18.367188 27.109375 -17.828125 25.203125 -17.828125 C 23.304688 -17.828125 21.90625 -18.457031 21 -19.71875 C 20.101562 -20.976562 19.988281 -22.71875 20.65625 -24.9375 L 22.921875 -24.9375 C 23.960938 -27.070312 23.523438 -28.140625 21.609375 -28.140625 Z M 21.609375 -28.140625 "/></g></g><g style="fill:#000000;fill-opacity:1;"><g transform="translate(370.104799, 416.919759)"><path style="stroke:none" d="M 25.8125 -33.15625 L 27.5625 -34.21875 C 27.8125 -35.519531 27.3125 -36.171875 26.0625 -36.171875 C 24.257812 -36.171875 23.359375 -34.789062 23.359375 -32.03125 C 23.359375 -30.9375 23.503906 -29.679688 23.796875 -28.265625 C 26.984375 -26.128906 28.578125 -23.394531 28.578125 -20.0625 C 28.578125 -16.738281 27.425781 -14.15625 25.125 -12.3125 C 22.820312 -10.46875 19.703125 -9.546875 15.765625 -9.546875 C 14.128906 -9.546875 12.429688 -9.710938 10.671875 -10.046875 C 8.828125 -8.878906 7.90625 -8 7.90625 -7.40625 C 7.90625 -6.820312 9.25 -6.53125 11.9375 -6.53125 L 18.34375 -6.53125 C 27.84375 -6.53125 32.59375 -3.117188 32.59375 3.703125 C 32.59375 7.390625 31.15625 10.3125 28.28125 12.46875 C 25.414062 14.625 20.953125 15.703125 14.890625 15.703125 C 4.546875 15.703125 -0.625 13.460938 -0.625 8.984375 C -0.625 6.554688 0.984375 4.878906 4.203125 3.953125 L 7.96875 5.65625 C 7.632812 6.863281 7.46875 8.015625 7.46875 9.109375 C 7.46875 12.703125 10.148438 14.5 15.515625 14.5 C 18.773438 14.5 21.285156 13.890625 23.046875 12.671875 C 24.804688 11.460938 25.6875 9.957031 25.6875 8.15625 C 25.6875 6.363281 25.148438 5.160156 24.078125 4.546875 C 23.015625 3.941406 20.890625 3.640625 17.703125 3.640625 L 11.625 3.640625 C 8.226562 3.640625 5.796875 3.070312 4.328125 1.9375 C 2.867188 0.8125 2.140625 -0.570312 2.140625 -2.21875 C 2.140625 -3.875 2.660156 -5.253906 3.703125 -6.359375 C 4.753906 -7.472656 6.617188 -8.847656 9.296875 -10.484375 C 4.441406 -11.867188 2.015625 -15.050781 2.015625 -20.03125 C 2.015625 -23.164062 3.144531 -25.695312 5.40625 -27.625 C 7.664062 -29.550781 11.054688 -30.515625 15.578125 -30.515625 C 18.296875 -30.515625 20.617188 -29.992188 22.546875 -28.953125 C 22.296875 -30.078125 22.171875 -31.101562 22.171875 -32.03125 C 22.171875 -34.375 22.796875 -36.066406 24.046875 -37.109375 C 25.304688 -38.160156 26.707031 -38.6875 28.25 -38.6875 C 29.800781 -38.6875 31.046875 -38.273438 31.984375 -37.453125 C 32.929688 -36.640625 33.40625 -35.519531 33.40625 -34.09375 C 33.40625 -32.675781 33.023438 -31.617188 32.265625 -30.921875 C 31.515625 -30.234375 30.601562 -29.890625 29.53125 -29.890625 C 28.46875 -29.890625 27.59375 -30.171875 26.90625 -30.734375 C 26.21875 -31.304688 25.851562 -32.113281 25.8125 -33.15625 Z M 12.5 -21.40625 L 12.5 -18.015625 C 12.5 -15.210938 12.738281 -13.304688 13.21875 -12.296875 C 13.695312 -11.296875 14.425781 -10.796875 15.40625 -10.796875 C 16.394531 -10.796875 17.109375 -11.285156 17.546875 -12.265625 C 17.992188 -13.253906 18.21875 -15.28125 18.21875 -18.34375 L 18.21875 -21.40625 C 18.21875 -24.675781 18.003906 -26.820312 17.578125 -27.84375 C 17.160156 -28.875 16.457031 -29.390625 15.46875 -29.390625 C 14.488281 -29.390625 13.75 -28.851562 13.25 -27.78125 C 12.75 -26.71875 12.5 -24.59375 12.5 -21.40625 Z M 12.5 -21.40625 "/></g></g><g style="fill:#000000;fill-opacity:1;"><g transform="translate(400.996773, 416.919759)"><path style="stroke:none" d="M 20.90625 -12.375 L 20.90625 -17.703125 C 20.90625 -21.765625 20.6875 -24.726562 20.25 -26.59375 C 19.8125 -28.457031 18.796875 -29.390625 17.203125 -29.390625 C 16.285156 -29.390625 15.539062 -29.125 14.96875 -28.59375 C 14.40625 -28.070312 14 -27.207031 13.75 -26 C 13.375 -24.113281 13.1875 -21.242188 13.1875 -17.390625 L 13.1875 -12.5 C 13.1875 -7.9375 13.320312 -5.191406 13.59375 -4.265625 C 13.863281 -3.347656 14.144531 -2.597656 14.4375 -2.015625 C 14.90625 -1.003906 15.804688 -0.5 17.140625 -0.5 C 18.773438 -0.5 19.84375 -1.441406 20.34375 -3.328125 C 20.71875 -4.671875 20.90625 -7.6875 20.90625 -12.375 Z M 17.015625 0.625 C 11.785156 0.625 7.828125 -0.710938 5.140625 -3.390625 C 2.460938 -6.066406 1.125 -9.90625 1.125 -14.90625 C 1.125 -19.914062 2.554688 -23.769531 5.421875 -26.46875 C 8.296875 -29.164062 12.328125 -30.515625 17.515625 -30.515625 C 22.710938 -30.515625 26.585938 -29.269531 29.140625 -26.78125 C 31.691406 -24.289062 32.96875 -20.492188 32.96875 -15.390625 C 32.96875 -4.710938 27.648438 0.625 17.015625 0.625 Z M 19.71875 -36.40625 C 18.96875 -37.332031 18.59375 -38.441406 18.59375 -39.734375 C 18.59375 -41.035156 19 -42.125 19.8125 -43 C 20.625 -43.882812 21.753906 -44.328125 23.203125 -44.328125 C 24.648438 -44.328125 25.800781 -43.9375 26.65625 -43.15625 C 27.507812 -42.382812 27.9375 -41.265625 27.9375 -39.796875 C 27.9375 -38.335938 27.53125 -37.175781 26.71875 -36.3125 C 25.90625 -35.457031 24.722656 -35.03125 23.171875 -35.03125 C 21.617188 -35.03125 20.46875 -35.488281 19.71875 -36.40625 Z M 7.59375 -36.40625 C 6.84375 -37.332031 6.46875 -38.441406 6.46875 -39.734375 C 6.46875 -41.035156 6.875 -42.125 7.6875 -43 C 8.507812 -43.882812 9.640625 -44.328125 11.078125 -44.328125 C 12.523438 -44.328125 13.675781 -43.9375 14.53125 -43.15625 C 15.394531 -42.382812 15.828125 -41.265625 15.828125 -39.796875 C 15.828125 -38.335938 15.414062 -37.175781 14.59375 -36.3125 C 13.78125 -35.457031 12.597656 -35.03125 11.046875 -35.03125 C 9.503906 -35.03125 8.351562 -35.488281 7.59375 -36.40625 Z M 7.59375 -36.40625 "/></g></g><g style="fill:#000000;fill-opacity:1;"><g transform="translate(435.091239, 416.919759)"><path style="stroke:none" d="M 21.609375 -28.140625 C 20.054688 -28.140625 18.691406 -27.132812 17.515625 -25.125 C 16.347656 -23.113281 15.765625 -20.722656 15.765625 -17.953125 L 15.765625 -1.125 L 20.21875 -1.125 L 20.21875 0 L 0.625 0 L 0.625 -1.125 L 4.078125 -1.125 L 4.078125 -28.765625 L 0.625 -28.765625 L 0.625 -29.890625 L 15.765625 -29.890625 L 15.765625 -23.859375 C 16.304688 -25.992188 17.347656 -27.632812 18.890625 -28.78125 C 20.441406 -29.9375 22.203125 -30.515625 24.171875 -30.515625 C 26.140625 -30.515625 27.738281 -29.957031 28.96875 -28.84375 C 30.207031 -27.738281 30.828125 -26.171875 30.828125 -24.140625 C 30.828125 -22.109375 30.363281 -20.546875 29.4375 -19.453125 C 28.519531 -18.367188 27.109375 -17.828125 25.203125 -17.828125 C 23.304688 -17.828125 21.90625 -18.457031 21 -19.71875 C 20.101562 -20.976562 19.988281 -22.71875 20.65625 -24.9375 L 22.921875 -24.9375 C 23.960938 -27.070312 23.523438 -28.140625 21.609375 -28.140625 Z M 21.609375 -28.140625 "/></g></g><g style="fill:#000000;fill-opacity:1;"><g transform="translate(465.857844, 416.919759)"><path style="stroke:none" d="M 37.359375 0 L 23.046875 0 L 22.359375 -4.578125 C 21.679688 -2.910156 20.679688 -1.625 19.359375 -0.71875 C 18.046875 0.175781 16.09375 0.625 13.5 0.625 C 7.007812 0.625 3.765625 -2.867188 3.765625 -9.859375 L 3.765625 -28.765625 L 0.25 -28.765625 L 0.25 -29.890625 L 15.453125 -29.890625 L 15.453125 -8.359375 C 15.453125 -5.835938 15.628906 -4.179688 15.984375 -3.390625 C 16.335938 -2.597656 17.046875 -2.203125 18.109375 -2.203125 C 19.179688 -2.203125 20.132812 -2.847656 20.96875 -4.140625 C 21.8125 -5.441406 22.234375 -7.242188 22.234375 -9.546875 L 22.234375 -28.765625 L 19.34375 -28.765625 L 19.34375 -29.890625 L 33.90625 -29.890625 L 33.90625 -1.125 L 37.359375 -1.125 Z M 20.84375 -36.421875 C 20.09375 -37.335938 19.71875 -38.445312 19.71875 -39.75 C 19.71875 -41.050781 20.125 -42.140625 20.9375 -43.015625 C 21.757812 -43.890625 22.890625 -44.328125 24.328125 -44.328125 C 25.773438 -44.328125 26.925781 -43.941406 27.78125 -43.171875 C 28.644531 -42.398438 29.078125 -41.28125 29.078125 -39.8125 C 29.078125 -38.34375 28.664062 -37.179688 27.84375 -36.328125 C 27.03125 -35.472656 25.847656 -35.046875 24.296875 -35.046875 C 22.753906 -35.046875 21.601562 -35.503906 20.84375 -36.421875 Z M 8.71875 -36.421875 C 7.96875 -37.335938 7.59375 -38.445312 7.59375 -39.75 C 7.59375 -41.050781 8 -42.140625 8.8125 -43.015625 C 9.632812 -43.890625 10.765625 -44.328125 12.203125 -44.328125 C 13.648438 -44.328125 14.800781 -43.941406 15.65625 -43.171875 C 16.519531 -42.398438 16.953125 -41.28125 16.953125 -39.8125 C 16.953125 -38.34375 16.539062 -37.179688 15.71875 -36.328125 C 14.90625 -35.472656 13.722656 -35.046875 12.171875 -35.046875 C 10.628906 -35.046875 9.476562 -35.503906 8.71875 -36.421875 Z M 8.71875 -36.421875 "/></g></g><g style="fill:#000000;fill-opacity:1;"><g transform="translate(503.845235, 416.919759)"><path style="stroke:none" d="M 2.078125 0.625 L 2.078125 -10.609375 L 2.828125 -10.609375 C 3.910156 -6.972656 5.375 -4.421875 7.21875 -2.953125 C 9.0625 -1.484375 11.363281 -0.75 14.125 -0.75 C 18.394531 -0.75 20.53125 -2.109375 20.53125 -4.828125 C 20.53125 -6.003906 20.007812 -6.882812 18.96875 -7.46875 C 17.332031 -8.394531 15.238281 -9.109375 12.6875 -9.609375 C 9.84375 -10.359375 7.457031 -11.363281 5.53125 -12.625 C 3.226562 -14.132812 2.078125 -16.519531 2.078125 -19.78125 C 2.078125 -23.039062 3.078125 -25.644531 5.078125 -27.59375 C 7.085938 -29.539062 9.769531 -30.515625 13.125 -30.515625 C 15.175781 -30.515625 17.289062 -30.035156 19.46875 -29.078125 C 20.257812 -28.742188 20.863281 -28.578125 21.28125 -28.578125 C 21.707031 -28.578125 22.066406 -28.722656 22.359375 -29.015625 C 22.648438 -29.304688 23.003906 -29.847656 23.421875 -30.640625 L 24.109375 -30.640625 L 24.109375 -21.03125 L 23.359375 -21.03125 C 21.222656 -26.476562 17.914062 -29.203125 13.4375 -29.203125 C 11.46875 -29.203125 10 -28.851562 9.03125 -28.15625 C 8.070312 -27.46875 7.59375 -26.601562 7.59375 -25.5625 C 7.59375 -24.925781 7.738281 -24.429688 8.03125 -24.078125 C 8.332031 -23.722656 8.566406 -23.460938 8.734375 -23.296875 C 8.898438 -23.128906 9.171875 -22.953125 9.546875 -22.765625 C 9.921875 -22.578125 10.234375 -22.429688 10.484375 -22.328125 C 10.734375 -22.222656 11.117188 -22.085938 11.640625 -21.921875 C 12.171875 -21.753906 12.5625 -21.648438 12.8125 -21.609375 C 15.65625 -20.890625 17.703125 -20.269531 18.953125 -19.75 C 20.210938 -19.226562 21.410156 -18.585938 22.546875 -17.828125 C 24.847656 -16.242188 26 -13.679688 26 -10.140625 C 26 -6.597656 24.953125 -3.914062 22.859375 -2.09375 C 20.765625 -0.28125 17.894531 0.625 14.25 0.625 C 13.789062 0.625 13.457031 0.601562 13.25 0.5625 L 11.484375 3.640625 C 12.367188 3.515625 13.0625 3.453125 13.5625 3.453125 C 17.957031 3.453125 20.15625 5.316406 20.15625 9.046875 C 20.15625 10.765625 19.460938 12.28125 18.078125 13.59375 C 16.703125 14.914062 14.550781 15.578125 11.625 15.578125 C 9.695312 15.578125 8.132812 15.1875 6.9375 14.40625 C 5.75 13.632812 5.15625 12.722656 5.15625 11.671875 C 5.15625 10.628906 5.40625 9.859375 5.90625 9.359375 C 6.40625 8.859375 7.050781 8.609375 7.84375 8.609375 C 9.269531 8.609375 10.234375 9.398438 10.734375 10.984375 L 9.109375 12.25 C 9.109375 12.832031 9.273438 13.363281 9.609375 13.84375 C 9.941406 14.320312 10.492188 14.5625 11.265625 14.5625 C 12.046875 14.5625 12.613281 14.195312 12.96875 13.46875 C 13.320312 12.738281 13.5 11.609375 13.5 10.078125 C 13.5 8.546875 13.476562 7.488281 13.4375 6.90625 C 13.269531 5.351562 12.617188 4.578125 11.484375 4.578125 C 10.898438 4.578125 10.273438 4.660156 9.609375 4.828125 L 9.421875 4.265625 L 11.6875 0.4375 C 10.09375 0.226562 8.4375 -0.3125 6.71875 -1.1875 C 6.21875 -1.53125 5.820312 -1.703125 5.53125 -1.703125 C 4.601562 -1.703125 3.703125 -0.925781 2.828125 0.625 Z M 2.078125 0.625 "/></g></g><g style="fill:#000000;fill-opacity:1;"><g transform="translate(530.216576, 416.919759)"><path style="stroke:none" d="M 37.359375 0 L 23.046875 0 L 22.359375 -4.578125 C 21.679688 -2.910156 20.679688 -1.625 19.359375 -0.71875 C 18.046875 0.175781 16.09375 0.625 13.5 0.625 C 7.007812 0.625 3.765625 -2.867188 3.765625 -9.859375 L 3.765625 -28.765625 L 0.25 -28.765625 L 0.25 -29.890625 L 15.453125 -29.890625 L 15.453125 -8.359375 C 15.453125 -5.835938 15.628906 -4.179688 15.984375 -3.390625 C 16.335938 -2.597656 17.046875 -2.203125 18.109375 -2.203125 C 19.179688 -2.203125 20.132812 -2.847656 20.96875 -4.140625 C 21.8125 -5.441406 22.234375 -7.242188 22.234375 -9.546875 L 22.234375 -28.765625 L 19.34375 -28.765625 L 19.34375 -29.890625 L 33.90625 -29.890625 L 33.90625 -1.125 L 37.359375 -1.125 Z M 20.84375 -36.421875 C 20.09375 -37.335938 19.71875 -38.445312 19.71875 -39.75 C 19.71875 -41.050781 20.125 -42.140625 20.9375 -43.015625 C 21.757812 -43.890625 22.890625 -44.328125 24.328125 -44.328125 C 25.773438 -44.328125 26.925781 -43.941406 27.78125 -43.171875 C 28.644531 -42.398438 29.078125 -41.28125 29.078125 -39.8125 C 29.078125 -38.34375 28.664062 -37.179688 27.84375 -36.328125 C 27.03125 -35.472656 25.847656 -35.046875 24.296875 -35.046875 C 22.753906 -35.046875 21.601562 -35.503906 20.84375 -36.421875 Z M 8.71875 -36.421875 C 7.96875 -37.335938 7.59375 -38.445312 7.59375 -39.75 C 7.59375 -41.050781 8 -42.140625 8.8125 -43.015625 C 9.632812 -43.890625 10.765625 -44.328125 12.203125 -44.328125 C 13.648438 -44.328125 14.800781 -43.941406 15.65625 -43.171875 C 16.519531 -42.398438 16.953125 -41.28125 16.953125 -39.8125 C 16.953125 -38.34375 16.539062 -37.179688 15.71875 -36.328125 C 14.90625 -35.472656 13.722656 -35.046875 12.171875 -35.046875 C 10.628906 -35.046875 9.476562 -35.503906 8.71875 -36.421875 Z M 8.71875 -36.421875 "/></g></g><g style="fill:#000000;fill-opacity:1;"><g transform="translate(568.203967, 416.919759)"><path style="stroke:none" d="M 21.609375 -28.140625 C 20.054688 -28.140625 18.691406 -27.132812 17.515625 -25.125 C 16.347656 -23.113281 15.765625 -20.722656 15.765625 -17.953125 L 15.765625 -1.125 L 20.21875 -1.125 L 20.21875 0 L 0.625 0 L 0.625 -1.125 L 4.078125 -1.125 L 4.078125 -28.765625 L 0.625 -28.765625 L 0.625 -29.890625 L 15.765625 -29.890625 L 15.765625 -23.859375 C 16.304688 -25.992188 17.347656 -27.632812 18.890625 -28.78125 C 20.441406 -29.9375 22.203125 -30.515625 24.171875 -30.515625 C 26.140625 -30.515625 27.738281 -29.957031 28.96875 -28.84375 C 30.207031 -27.738281 30.828125 -26.171875 30.828125 -24.140625 C 30.828125 -22.109375 30.363281 -20.546875 29.4375 -19.453125 C 28.519531 -18.367188 27.109375 -17.828125 25.203125 -17.828125 C 23.304688 -17.828125 21.90625 -18.457031 21 -19.71875 C 20.101562 -20.976562 19.988281 -22.71875 20.65625 -24.9375 L 22.921875 -24.9375 C 23.960938 -27.070312 23.523438 -28.140625 21.609375 -28.140625 Z M 21.609375 -28.140625 "/></g></g><g style="fill:#000000;fill-opacity:1;"><g transform="translate(598.970559, 416.919759)"><path style="stroke:none" d="M 37.359375 0 L 23.046875 0 L 22.359375 -4.578125 C 21.679688 -2.910156 20.679688 -1.625 19.359375 -0.71875 C 18.046875 0.175781 16.09375 0.625 13.5 0.625 C 7.007812 0.625 3.765625 -2.867188 3.765625 -9.859375 L 3.765625 -28.765625 L 0.25 -28.765625 L 0.25 -29.890625 L 15.453125 -29.890625 L 15.453125 -8.359375 C 15.453125 -5.835938 15.628906 -4.179688 15.984375 -3.390625 C 16.335938 -2.597656 17.046875 -2.203125 18.109375 -2.203125 C 19.179688 -2.203125 20.132812 -2.847656 20.96875 -4.140625 C 21.8125 -5.441406 22.234375 -7.242188 22.234375 -9.546875 L 22.234375 -28.765625 L 19.34375 -28.765625 L 19.34375 -29.890625 L 33.90625 -29.890625 L 33.90625 -1.125 L 37.359375 -1.125 Z M 20.84375 -36.421875 C 20.09375 -37.335938 19.71875 -38.445312 19.71875 -39.75 C 19.71875 -41.050781 20.125 -42.140625 20.9375 -43.015625 C 21.757812 -43.890625 22.890625 -44.328125 24.328125 -44.328125 C 25.773438 -44.328125 26.925781 -43.941406 27.78125 -43.171875 C 28.644531 -42.398438 29.078125 -41.28125 29.078125 -39.8125 C 29.078125 -38.34375 28.664062 -37.179688 27.84375 -36.328125 C 27.03125 -35.472656 25.847656 -35.046875 24.296875 -35.046875 C 22.753906 -35.046875 21.601562 -35.503906 20.84375 -36.421875 Z M 8.71875 -36.421875 C 7.96875 -37.335938 7.59375 -38.445312 7.59375 -39.75 C 7.59375 -41.050781 8 -42.140625 8.8125 -43.015625 C 9.632812 -43.890625 10.765625 -44.328125 12.203125 -44.328125 C 13.648438 -44.328125 14.800781 -43.941406 15.65625 -43.171875 C 16.519531 -42.398438 16.953125 -41.28125 16.953125 -39.8125 C 16.953125 -38.34375 16.539062 -37.179688 15.71875 -36.328125 C 14.90625 -35.472656 13.722656 -35.046875 12.171875 -35.046875 C 10.628906 -35.046875 9.476562 -35.503906 8.71875 -36.421875 Z M 8.71875 -36.421875 "/></g></g><g style="fill:#000000;fill-opacity:1;"><g transform="translate(636.329978, 416.919759)"><path style="stroke:none" d="M 29.828125 -29.890625 L 29.828125 -28.765625 L 14.953125 -1.125 L 15.765625 -1.125 C 19.273438 -1.125 22.035156 -2.046875 24.046875 -3.890625 C 26.054688 -5.734375 27.628906 -8.726562 28.765625 -12.875 L 29.640625 -12.875 L 28.640625 0 L 2.265625 0 L 2.265625 -0.9375 L 17.390625 -28.765625 L 16.703125 -28.765625 C 12.472656 -28.765625 9.53125 -28.070312 7.875 -26.6875 C 6.226562 -25.300781 4.753906 -22.347656 3.453125 -17.828125 L 2.640625 -17.828125 L 3.453125 -29.890625 Z M 29.828125 -29.890625 "/></g></g></g></svg>