<svg xmlns="http://www.w3.org/2000/svg" xmlns:xlink="http://www.w3.org/1999/xlink" width="1440" zoomAndPan="magnify" viewBox="0 0 1080 607.499987" height="810" preserveAspectRatio="xMidYMid meet" version="1.2"><g id="99f98a52b0"><path style=" stroke:none;fill-rule:nonzero;fill:#f2a87d;fill-opacity:1;" d="M 440.792969 118.613281 C 440.207031 117.277344 437.820312 115.421875 436.4375 115.1875 C 436.390625 115.113281 436.332031 115.050781 436.273438 114.988281 C 437.34375 111.738281 438.828125 109.289062 436.679688 106.347656 C 434.515625 103.378906 428.214844 102.589844 418.234375 115.027344 C 416.308594 117.429688 409.699219 125.546875 408.234375 127.097656 C 407.097656 128.304688 402.914062 126.261719 402.917969 124.601562 C 402.929688 118.605469 401.292969 110.203125 397.222656 106.875 C 395.457031 105.429688 393.21875 105.191406 391.316406 106.53125 C 388.707031 108.367188 388.441406 111.765625 388.09375 114.664062 C 386.921875 124.394531 387.8125 131.835938 387.8125 143.21875 C 387.8125 146.488281 384.378906 156.003906 380.824219 164.980469 C 379.824219 167.507812 379.414062 170.113281 379.527344 172.652344 L 377.703125 172.300781 C 373.875 171.5625 370.105469 173.824219 368.957031 177.550781 L 367.859375 181.117188 C 367.859375 181.117188 367.746094 180.894531 367.539062 180.5 C 367.472656 180.339844 367.410156 180.179688 367.34375 180.019531 C 367.285156 179.882812 367.207031 179.785156 367.121094 179.703125 C 365.121094 175.90625 359.539062 165.511719 356.363281 161.597656 C 343.214844 145.378906 326.347656 137.554688 308.117188 133.386719 C 307.652344 133.277344 307.175781 133.1875 306.710938 133.085938 C 306.808594 133.109375 306.90625 133.125 307.007812 133.148438 C 313.757812 127.628906 317.492188 118.789062 316.023438 109.558594 C 314.964844 102.917969 311.402344 97.320312 306.46875 93.515625 C 306.664062 93.253906 306.757812 92.917969 306.691406 92.570312 C 306.601562 92.078125 306.21875 91.714844 305.761719 91.613281 C 305.460938 90.210938 305.179688 88.820312 304.96875 87.46875 C 304.96875 87.46875 308.65625 80.320312 307.863281 78.164062 C 307.566406 77.355469 306.410156 76.5625 304.996094 75.804688 C 305.089844 74.152344 305.109375 72.480469 305.039062 70.792969 C 303.898438 43.414062 280.78125 22.144531 253.402344 23.28125 C 226.023438 24.421875 204.75 47.542969 205.890625 74.921875 C 206.167969 81.554688 207.742188 87.824219 210.347656 93.507812 C 196.546875 99.0625 187.894531 113.574219 190.332031 128.890625 C 191.589844 136.769531 195.570312 143.539062 201.164062 148.386719 C 201.160156 148.386719 201.160156 148.386719 201.160156 148.386719 C 200.195312 149.195312 199.25 150.023438 198.339844 150.894531 C 195.722656 153.386719 193.515625 156.136719 191.605469 159.0625 C 185.605469 168.242188 182.476562 179.175781 178.550781 189.503906 C 171.960938 206.855469 165.957031 224.558594 161.738281 242.652344 C 159.203125 253.519531 153.949219 271.410156 160.425781 281.890625 C 176.183594 307.390625 204.949219 293.660156 204.949219 293.660156 L 205.46875 291.125 C 205.59375 291.230469 205.75 291.300781 205.945312 291.328125 L 178.082031 457.621094 C 177.050781 463.785156 181.03125 469.65625 187.136719 471 C 194.867188 472.703125 206.898438 474.105469 223.515625 472.671875 C 222.753906 494.308594 221.957031 526.101562 222.699219 550.410156 C 221.945312 550.167969 221.136719 550.714844 221.132812 551.550781 C 221.113281 557.972656 221.339844 577.488281 224.789062 585.027344 C 228.941406 594.113281 254.894531 590.21875 254.894531 590.21875 C 254.636719 606.828125 266.316406 605.789062 289.675781 603.714844 C 313.035156 601.636719 342.621094 595.925781 341.84375 589.179688 C 341.0625 582.433594 319.003906 575.941406 319.003906 575.941406 L 319.003906 556.285156 C 319.003906 555.558594 318.375 555.019531 317.699219 555.074219 L 320.742188 470.894531 C 322.257812 470.925781 323.800781 470.945312 325.402344 470.945312 C 353.726562 470.945312 365.148438 474.324219 374.292969 464.996094 C 377.046875 462.183594 378.082031 458.101562 377.183594 454.265625 L 338.792969 290.675781 C 339.285156 290.167969 339.144531 289.160156 338.382812 288.9375 L 335.515625 276.722656 C 335.675781 276.964844 335.902344 277.109375 336.15625 277.164062 C 338.171875 280.625 343.949219 288.882812 356.628906 296.375 C 378.691406 309.414062 408.074219 289.5625 414.570312 256.496094 C 422.847656 214.359375 427.367188 208.761719 425.414062 191.082031 C 424.789062 185.433594 420.660156 180.835938 415.167969 179.550781 C 415.453125 178.921875 415.714844 178.277344 415.929688 177.605469 C 419.316406 167.160156 423.25 155.492188 424.632812 153.21875 C 426.984375 149.347656 430.457031 145.953125 433.238281 142.375 C 435.414062 139.574219 439.484375 135.796875 439.730469 132.007812 C 439.792969 131.035156 439.386719 129.949219 438.703125 129.324219 C 440.515625 126.199219 442.230469 121.886719 440.792969 118.613281 Z M 306.226562 93.757812 C 306.226562 93.765625 306.226562 93.773438 306.230469 93.78125 C 306.226562 93.773438 306.226562 93.765625 306.226562 93.757812 Z M 334.054688 275.648438 L 334.054688 275.496094 L 335.03125 275.480469 C 335.046875 275.535156 335.066406 275.585938 335.082031 275.636719 Z M 334.054688 275.648438 "/><path style=" stroke:none;fill-rule:nonzero;fill:#f2a87d;fill-opacity:1;" d="M 345.53125 110.769531 C 344.824219 112.214844 346.988281 113.492188 347.699219 112.035156 C 352.378906 102.445312 353.554688 91.300781 350.652344 80.996094 C 347.992188 71.554688 342.097656 63.285156 334.207031 57.503906 C 332.902344 56.550781 331.648438 58.726562 332.9375 59.671875 C 348.820312 71.300781 354.160156 93.082031 345.53125 110.769531 Z M 345.53125 110.769531 "/><path style=" stroke:none;fill-rule:nonzero;fill:#f2a87d;fill-opacity:1;" d="M 367.3125 100.339844 C 366.660156 106.570312 364.957031 112.703125 362.339844 118.394531 C 361.667969 119.851562 363.832031 121.128906 364.507812 119.664062 C 373.875 99.304688 371.234375 75.152344 357.476562 57.4375 C 353.886719 52.8125 349.640625 48.777344 344.886719 45.363281 C 343.570312 44.421875 342.316406 46.597656 343.617188 47.53125 C 360.328125 59.523438 369.445312 79.894531 367.3125 100.339844 Z M 367.3125 100.339844 "/><path style=" stroke:none;fill-rule:nonzero;fill:#f2a87d;fill-opacity:1;" d="M 331.089844 104.332031 C 330.449219 105.800781 332.613281 107.078125 333.257812 105.601562 C 337.957031 94.8125 336.078125 81.949219 328.425781 72.988281 C 327.375 71.757812 325.605469 73.542969 326.652344 74.765625 C 333.5 82.78125 335.304688 94.652344 331.089844 104.332031 Z M 331.089844 104.332031 "/><path style=" stroke:none;fill-rule:nonzero;fill:#f2a87d;fill-opacity:1;" d="M 322.042969 88.90625 C 322.054688 88.933594 322.152344 89.144531 322.175781 89.191406 C 322.273438 89.425781 322.359375 89.664062 322.433594 89.90625 C 322.511719 90.164062 322.578125 90.429688 322.636719 90.695312 C 322.660156 90.820312 322.683594 90.945312 322.703125 91.070312 C 322.703125 91.089844 322.734375 91.300781 322.738281 91.34375 C 322.789062 91.902344 322.789062 92.46875 322.734375 93.03125 C 322.730469 93.082031 322.722656 93.136719 322.71875 93.1875 C 322.714844 93.203125 322.710938 93.21875 322.703125 93.273438 C 322.679688 93.386719 322.664062 93.503906 322.640625 93.617188 C 322.574219 93.921875 322.492188 94.222656 322.398438 94.519531 C 322.199219 95.144531 322.632812 95.917969 323.277344 96.0625 C 323.964844 96.21875 324.605469 95.855469 324.820312 95.183594 C 325.660156 92.554688 325.335938 89.632812 323.996094 87.226562 C 323.675781 86.652344 322.839844 86.414062 322.277344 86.777344 C 321.695312 87.152344 321.484375 87.878906 321.828125 88.492188 C 321.898438 88.628906 321.972656 88.765625 322.042969 88.90625 Z M 322.042969 88.90625 "/><path style=" stroke:none;fill-rule:nonzero;fill:#f2a87d;fill-opacity:1;" d="M 380.828125 164.980469 C 376.816406 175.105469 382.289062 186.5 392.703125 189.695312 C 402.449219 192.683594 412.785156 187.300781 415.929688 177.605469 C 419.316406 167.160156 423.25 155.492188 424.632812 153.21875 C 426.984375 149.347656 430.457031 145.953125 433.238281 142.371094 C 435.414062 139.570312 439.484375 135.796875 439.730469 132.003906 C 439.789062 131.03125 439.386719 129.949219 438.703125 129.320312 C 440.515625 126.199219 442.230469 121.886719 440.792969 118.613281 C 440.175781 117.203125 437.554688 115.207031 436.21875 115.144531 C 437.292969 111.8125 438.863281 109.335938 436.683594 106.34375 C 434.515625 103.375 428.214844 102.589844 418.238281 115.023438 C 416.308594 117.425781 409.703125 125.542969 408.238281 127.097656 C 407.097656 128.304688 402.914062 126.257812 402.917969 124.597656 C 402.929688 118.601562 401.296875 110.199219 397.226562 106.871094 C 395.457031 105.429688 393.222656 105.1875 391.320312 106.527344 C 388.710938 108.363281 388.445312 111.761719 388.09375 114.660156 C 386.921875 124.390625 387.8125 131.832031 387.8125 143.214844 C 387.8125 146.488281 384.382812 156.003906 380.828125 164.980469 Z M 321.742188 443.316406 L 316.878906 577.800781 C 316.878906 577.800781 341.183594 583.472656 340.375 590.761719 C 339.5625 598.054688 285.285156 602.914062 269.082031 602.105469 C 252.878906 601.292969 256.929688 588.332031 256.929688 588.332031 C 256.929688 588.332031 237.484375 591.574219 227.761719 585.089844 C 218.042969 578.609375 224.523438 448.175781 224.523438 448.175781 Z M 304.972656 87.46875 C 306.808594 99.40625 314.589844 114.078125 286.882812 118.261719 L 283.449219 141.148438 L 250.578125 140.441406 C 251.714844 138.535156 252.660156 136.515625 253.390625 134.402344 C 253.730469 134.363281 254.070312 134.347656 254.410156 134.292969 C 268.222656 132.097656 277.636719 119.117188 275.4375 105.304688 C 274.585938 99.9375 272.097656 95.242188 268.570312 91.632812 C 263.691406 93.167969 258.421875 90.613281 256.65625 85.761719 C 254.839844 80.773438 257.414062 75.257812 262.398438 73.441406 C 264.445312 72.695312 266.574219 72.699219 268.507812 73.292969 C 274.039062 67.757812 276.941406 59.753906 275.617188 51.429688 C 275.015625 47.652344 273.585938 44.222656 271.578125 41.253906 C 282.578125 40.003906 292.386719 47.25 295.640625 59.570312 C 296.972656 64.617188 296.4375 69.417969 298.246094 71.992188 C 299.511719 73.796875 307.03125 75.894531 307.867188 78.167969 C 308.660156 80.320312 304.972656 87.46875 304.972656 87.46875 Z M 304.972656 87.46875 "/><path style=" stroke:none;fill-rule:nonzero;fill:#f5c46a;fill-opacity:1;" d="M 335.261719 275.632812 L 377.1875 454.269531 C 378.085938 458.101562 377.050781 462.183594 374.292969 464.996094 C 365.148438 474.328125 353.726562 470.945312 325.402344 470.945312 C 292.671875 470.945312 279.125 464.175781 237.367188 470.945312 C 213.40625 474.832031 196.875 473.144531 187.136719 471 C 181.035156 469.65625 177.050781 463.785156 178.085938 457.621094 L 208.332031 277.09375 Z M 335.261719 275.632812 "/><path style=" stroke:none;fill-rule:nonzero;fill:#e67e22;fill-opacity:1;" d="M 414.566406 256.496094 C 408.070312 289.5625 378.691406 309.414062 356.628906 296.378906 C 340.074219 286.59375 335.261719 275.480469 335.261719 275.480469 L 208.328125 277.09375 L 204.949219 293.660156 C 204.949219 293.660156 176.183594 307.390625 160.425781 281.890625 C 153.949219 271.410156 159.203125 253.519531 161.738281 242.652344 C 165.957031 224.558594 171.960938 206.855469 178.550781 189.503906 C 182.476562 179.175781 185.605469 168.242188 191.605469 159.0625 C 193.515625 156.136719 195.722656 153.386719 198.339844 150.894531 C 199.25 150.023438 200.195312 149.195312 201.160156 148.386719 C 208.191406 154.484375 217.765625 157.554688 227.679688 155.976562 C 237.625 154.394531 245.796875 148.464844 250.578125 140.441406 C 250.710938 140.21875 250.832031 139.992188 250.957031 139.765625 C 251.152344 139.421875 251.34375 139.078125 251.527344 138.726562 C 251.652344 138.480469 251.773438 138.234375 251.890625 137.988281 C 252.074219 137.617188 252.246094 137.238281 252.414062 136.859375 C 252.507812 136.648438 252.601562 136.4375 252.691406 136.226562 C 252.9375 135.625 253.175781 135.019531 253.390625 134.40625 C 253.730469 134.363281 254.066406 134.351562 254.410156 134.296875 C 258.898438 133.582031 262.917969 131.722656 266.226562 129.066406 C 280.519531 128.878906 294.988281 130.386719 308.117188 133.390625 C 326.34375 137.558594 343.214844 145.382812 356.363281 161.601562 C 360.277344 166.429688 367.859375 181.121094 367.859375 181.121094 L 368.957031 177.554688 C 370.101562 173.828125 373.875 171.566406 377.703125 172.304688 L 414.585938 179.421875 C 420.367188 180.507812 424.761719 185.238281 425.410156 191.085938 C 427.363281 208.761719 422.84375 214.359375 414.566406 256.496094 Z M 221.136719 551.550781 C 221.113281 557.96875 221.34375 577.488281 224.789062 585.027344 C 228.941406 594.109375 254.898438 590.21875 254.898438 590.21875 C 254.636719 606.828125 266.316406 605.789062 289.675781 603.714844 C 313.035156 601.636719 342.625 595.925781 341.847656 589.179688 C 341.066406 582.429688 319.003906 575.941406 319.003906 575.941406 L 319.003906 556.285156 C 319.003906 555.425781 318.132812 554.820312 317.34375 555.15625 C 295.398438 564.527344 260.605469 554.65625 260.605469 554.65625 C 244.390625 560.84375 228.175781 553.351562 222.917969 550.488281 C 222.113281 550.050781 221.140625 550.632812 221.136719 551.550781 Z M 274.464844 50.535156 C 269.804688 48.097656 264.601562 47.285156 259.410156 48.058594 C 258.328125 48.21875 257.734375 49.585938 257.996094 50.546875 C 258.316406 51.703125 259.402344 52.121094 260.484375 51.957031 C 262.199219 51.703125 264.726562 51.730469 266.457031 52.03125 C 268.613281 52.40625 270.582031 53.0625 272.421875 54.027344 C 273.390625 54.53125 274.621094 54.273438 275.191406 53.300781 C 275.722656 52.390625 275.4375 51.042969 274.464844 50.535156 Z M 274.464844 50.535156 "/><path style=" stroke:none;fill-rule:nonzero;fill:#2c3242;fill-opacity:1;" d="M 290.675781 71.050781 C 290.917969 72.714844 290.117188 74.203125 288.882812 74.382812 C 287.652344 74.5625 286.460938 73.359375 286.21875 71.699219 C 285.976562 70.035156 286.78125 68.542969 288.011719 68.367188 C 289.242188 68.1875 290.4375 69.390625 290.675781 71.050781 Z M 291.902344 63.617188 C 292.011719 62.957031 291.5625 62.335938 290.902344 62.226562 C 281.363281 60.667969 277.484375 66.824219 277.324219 67.085938 C 276.980469 67.65625 277.160156 68.394531 277.726562 68.742188 C 277.921875 68.867188 278.140625 68.921875 278.359375 68.921875 C 278.765625 68.921875 279.160156 68.71875 279.390625 68.351562 C 279.519531 68.148438 282.621094 63.332031 290.515625 64.617188 C 291.171875 64.71875 291.796875 64.277344 291.902344 63.617188 Z M 265.484375 78.234375 C 266.03125 77.851562 266.164062 77.097656 265.78125 76.546875 C 265.398438 76 264.640625 75.867188 264.097656 76.25 C 263.960938 76.34375 260.851562 78.558594 260.632812 81.980469 C 260.496094 84.125 261.5 86.1875 263.613281 88.109375 C 263.847656 88.316406 264.136719 88.421875 264.429688 88.421875 C 264.757812 88.421875 265.085938 88.285156 265.324219 88.023438 C 265.773438 87.53125 265.738281 86.761719 265.242188 86.3125 C 263.703125 84.917969 262.964844 83.515625 263.046875 82.144531 C 263.183594 79.902344 265.445312 78.261719 265.484375 78.234375 Z M 293.472656 93.851562 L 305.28125 91.609375 C 305.933594 91.480469 306.574219 91.914062 306.699219 92.570312 C 306.761719 92.917969 306.667969 93.253906 306.472656 93.515625 C 311.40625 97.320312 314.96875 102.921875 316.027344 109.558594 C 317.496094 118.789062 313.761719 127.632812 307.011719 133.148438 C 300.011719 131.601562 292.65625 130.46875 285.152344 129.792969 L 286.882812 118.265625 C 305.089844 115.515625 307.972656 108.234375 307.285156 100.179688 C 305.90625 100.574219 304.601562 100.75 303.390625 100.75 C 296.8125 100.753906 292.800781 95.855469 292.753906 95.796875 C 292.488281 95.464844 292.417969 95.019531 292.5625 94.621094 C 292.710938 94.222656 293.054688 93.929688 293.472656 93.851562 Z M 296.230469 95.789062 C 298.210938 97.34375 301.949219 99.335938 306.957031 97.757812 C 306.96875 97.753906 306.976562 97.757812 306.984375 97.753906 C 306.777344 96.429688 306.507812 95.089844 306.226562 93.757812 C 306.082031 93.867188 305.921875 93.949219 305.734375 93.984375 Z M 307.4375 193.527344 C 306.960938 192.285156 304.9375 192.824219 305.417969 194.085938 C 313.539062 215.277344 321.378906 236.578125 328.929688 257.984375 C 331.101562 264.144531 333.25 270.3125 335.378906 276.488281 C 335.8125 277.753906 337.835938 277.210938 337.394531 275.929688 C 330.007812 254.472656 322.335938 233.109375 314.378906 211.851562 C 312.089844 205.734375 309.773438 199.625 307.4375 193.527344 Z M 217.429688 196.085938 C 213.996094 216.007812 211.292969 236 209.128906 256.097656 C 208.417969 262.667969 207.734375 269.242188 207.046875 275.8125 C 206.910156 277.152344 209 277.140625 209.140625 275.8125 C 211.261719 255.59375 213.320312 235.363281 216.398438 215.261719 C 217.351562 209.042969 218.378906 202.839844 219.445312 196.640625 C 219.671875 195.324219 217.65625 194.757812 217.429688 196.085938 Z M 259.277344 556.605469 C 257.972656 568.035156 256.667969 579.460938 255.367188 590.890625 C 255.214844 592.226562 257.308594 592.214844 257.457031 590.890625 C 258.761719 579.460938 260.066406 568.03125 261.367188 556.605469 C 261.523438 555.269531 259.429688 555.277344 259.277344 556.605469 Z M 261.894531 470.4375 C 261.894531 495.007812 261.894531 519.578125 261.894531 544.148438 C 261.894531 545.492188 263.988281 545.496094 263.988281 544.148438 C 263.988281 519.578125 263.988281 495.007812 263.988281 470.4375 C 263.988281 469.089844 261.894531 469.089844 261.894531 470.4375 Z M 338.082031 288.875 C 334.257812 288.875 330.429688 288.886719 326.605469 288.894531 C 325.53125 284.351562 324.453125 279.8125 323.375 275.273438 C 323.066406 273.960938 321.046875 274.515625 321.359375 275.828125 C 322.390625 280.183594 323.421875 284.539062 324.453125 288.894531 C 316.484375 288.910156 308.519531 288.929688 300.550781 288.957031 C 300.582031 288.800781 300.589844 288.640625 300.5625 288.472656 C 299.886719 284.472656 299.261719 280.464844 298.695312 276.449219 C 298.613281 275.890625 297.902344 275.582031 297.40625 275.71875 C 296.804688 275.882812 296.597656 276.445312 296.675781 277.003906 C 297.238281 281 297.859375 284.988281 298.535156 288.964844 C 290.261719 288.996094 281.988281 289.027344 273.71875 289.0625 C 273.71875 284.808594 273.71875 280.550781 273.71875 276.296875 C 273.71875 274.949219 271.625 274.949219 271.625 276.296875 C 271.625 280.554688 271.625 284.8125 271.625 289.074219 C 264.324219 289.105469 257.023438 289.132812 249.722656 289.160156 C 250.445312 284.964844 251.28125 280.789062 251.878906 276.574219 C 251.960938 276.015625 251.742188 275.449219 251.148438 275.285156 C 250.660156 275.152344 249.945312 275.457031 249.863281 276.015625 C 249.25 280.320312 248.390625 284.578125 247.660156 288.863281 C 247.644531 288.964844 247.648438 289.066406 247.65625 289.171875 C 243.433594 289.1875 239.210938 289.203125 234.988281 289.21875 C 231.25 289.230469 227.507812 289.226562 223.769531 289.234375 C 224.695312 285.167969 225.417969 281.0625 226.1875 276.964844 C 226.433594 275.648438 224.417969 275.082031 224.167969 276.40625 C 223.363281 280.695312 222.613281 284.988281 221.625 289.238281 C 216.449219 289.25 211.277344 289.265625 206.101562 289.265625 C 204.753906 289.265625 204.753906 291.355469 206.101562 291.355469 C 240.464844 291.355469 274.828125 291.121094 309.191406 291.015625 C 318.824219 290.984375 328.449219 290.96875 338.082031 290.96875 C 339.425781 290.96875 339.429688 288.875 338.082031 288.875 Z M 326.46875 150.910156 C 325.375 150.125 324.328125 151.9375 325.414062 152.71875 C 335.921875 160.273438 344.027344 170.945312 348.492188 183.09375 C 348.953125 184.34375 350.972656 183.804688 350.507812 182.535156 C 345.839844 169.839844 337.449219 158.804688 326.46875 150.910156 Z M 211.289062 344.53125 C 206.929688 367.382812 202.570312 390.234375 198.207031 413.082031 C 197.957031 414.398438 199.972656 414.960938 200.226562 413.640625 C 204.585938 390.789062 208.949219 367.941406 213.308594 345.089844 C 213.558594 343.773438 211.542969 343.207031 211.289062 344.53125 Z M 215.28125 373.363281 C 214.523438 376.742188 213.769531 380.121094 213.011719 383.5 C 212.71875 384.8125 214.734375 385.371094 215.03125 384.054688 C 215.785156 380.675781 216.542969 377.296875 217.300781 373.917969 C 217.59375 372.609375 215.578125 372.046875 215.28125 373.363281 Z M 322.042969 88.90625 C 322.054688 88.933594 322.152344 89.144531 322.175781 89.191406 C 322.273438 89.425781 322.359375 89.664062 322.433594 89.90625 C 322.511719 90.164062 322.578125 90.429688 322.636719 90.695312 C 322.660156 90.820312 322.683594 90.945312 322.703125 91.070312 C 322.703125 91.089844 322.734375 91.300781 322.738281 91.34375 C 322.789062 91.902344 322.789062 92.46875 322.734375 93.03125 C 322.730469 93.082031 322.722656 93.136719 322.71875 93.1875 C 322.714844 93.203125 322.710938 93.21875 322.703125 93.273438 C 322.679688 93.386719 322.664062 93.503906 322.640625 93.617188 C 322.574219 93.921875 322.492188 94.222656 322.398438 94.519531 C 322.199219 95.144531 322.632812 95.917969 323.277344 96.0625 C 323.964844 96.21875 324.605469 95.855469 324.820312 95.183594 C 325.660156 92.554688 325.335938 89.632812 323.996094 87.226562 C 323.675781 86.652344 322.839844 86.414062 322.277344 86.777344 C 321.695312 87.152344 321.484375 87.878906 321.828125 88.492188 C 321.898438 88.628906 321.972656 88.765625 322.042969 88.90625 Z M 331.089844 104.332031 C 330.449219 105.800781 332.613281 107.078125 333.257812 105.601562 C 337.957031 94.8125 336.078125 81.949219 328.425781 72.988281 C 327.375 71.757812 325.605469 73.542969 326.652344 74.765625 C 333.5 82.78125 335.304688 94.652344 331.089844 104.332031 Z M 334.207031 57.503906 C 332.902344 56.550781 331.648438 58.726562 332.941406 59.671875 C 348.820312 71.300781 354.160156 93.082031 345.53125 110.769531 C 344.824219 112.214844 346.988281 113.492188 347.699219 112.035156 C 352.378906 102.445312 353.554688 91.300781 350.652344 80.996094 C 347.996094 71.554688 342.097656 63.285156 334.207031 57.503906 Z M 357.476562 57.4375 C 353.886719 52.8125 349.640625 48.777344 344.886719 45.363281 C 343.570312 44.421875 342.316406 46.597656 343.617188 47.53125 C 360.328125 59.523438 369.445312 79.894531 367.3125 100.339844 C 366.660156 106.570312 364.957031 112.703125 362.339844 118.394531 C 361.667969 119.851562 363.832031 121.128906 364.507812 119.664062 C 373.875 99.304688 371.234375 75.152344 357.476562 57.4375 Z M 367.34375 180.023438 C 366.820312 178.785156 365.019531 179.851562 365.535156 181.078125 C 372.570312 197.71875 378.554688 214.789062 383.484375 232.167969 C 383.851562 233.460938 385.871094 232.914062 385.503906 231.613281 C 380.519531 214.054688 374.449219 196.832031 367.34375 180.023438 Z M 190.332031 128.886719 C 187.894531 113.574219 196.546875 99.0625 210.347656 93.507812 C 207.742188 87.824219 206.164062 81.554688 205.890625 74.921875 C 204.75 47.542969 226.023438 24.421875 253.402344 23.28125 C 280.78125 22.144531 303.898438 43.414062 305.039062 70.792969 C 305.109375 72.480469 305.09375 74.152344 304.996094 75.804688 C 302.449219 74.433594 299.054688 73.148438 298.242188 71.992188 C 296.4375 69.417969 296.96875 64.617188 295.636719 59.570312 C 292.382812 47.246094 282.574219 40.003906 271.574219 41.25 C 272.082031 42.003906 272.550781 42.785156 272.980469 43.589844 C 273.15625 43.914062 273.316406 44.246094 273.476562 44.578125 C 273.71875 45.085938 273.945312 45.605469 274.15625 46.132812 C 274.230469 46.316406 274.292969 46.5 274.363281 46.6875 C 274.648438 47.457031 274.898438 48.246094 275.109375 49.058594 C 275.117188 49.085938 275.125 49.117188 275.128906 49.148438 C 275.320312 49.894531 275.488281 50.652344 275.613281 51.425781 C 275.738281 52.203125 275.8125 52.972656 275.863281 53.742188 C 275.871094 53.859375 275.878906 53.972656 275.886719 54.089844 C 275.925781 54.851562 275.933594 55.609375 275.90625 56.363281 C 275.902344 56.523438 275.886719 56.683594 275.878906 56.839844 C 275.796875 58.292969 275.589844 59.71875 275.269531 61.109375 C 275.21875 61.320312 275.171875 61.53125 275.117188 61.742188 C 274.777344 63.046875 274.328125 64.316406 273.789062 65.542969 C 273.621094 65.925781 273.445312 66.304688 273.257812 66.675781 C 273.257812 66.679688 273.257812 66.679688 273.257812 66.679688 C 273.082031 67.027344 272.90625 67.371094 272.714844 67.710938 C 272.554688 68 272.386719 68.285156 272.21875 68.566406 C 272.019531 68.886719 271.8125 69.203125 271.601562 69.519531 C 271.597656 69.523438 271.59375 69.53125 271.585938 69.535156 C 271.269531 70.003906 270.945312 70.460938 270.597656 70.90625 C 269.949219 71.738281 269.253906 72.539062 268.503906 73.289062 C 268.414062 73.261719 268.316406 73.25 268.222656 73.226562 C 267.828125 73.117188 267.429688 73.015625 267.019531 72.957031 C 266.941406 72.945312 266.859375 72.949219 266.777344 72.941406 C 266.351562 72.890625 265.925781 72.851562 265.492188 72.859375 C 265.378906 72.863281 265.269531 72.886719 265.15625 72.894531 C 264.75 72.914062 264.347656 72.941406 263.941406 73.015625 C 263.421875 73.109375 262.90625 73.25 262.394531 73.4375 C 262.042969 73.566406 261.703125 73.714844 261.375 73.882812 C 261.273438 73.933594 261.175781 73.988281 261.078125 74.046875 C 260.851562 74.167969 260.628906 74.296875 260.414062 74.4375 C 260.316406 74.503906 260.214844 74.574219 260.117188 74.640625 C 259.90625 74.792969 259.703125 74.949219 259.511719 75.113281 C 259.433594 75.179688 259.351562 75.242188 259.273438 75.3125 C 259.019531 75.539062 258.773438 75.777344 258.546875 76.03125 C 258.542969 76.039062 258.535156 76.042969 258.527344 76.050781 C 258.277344 76.328125 258.050781 76.617188 257.839844 76.917969 C 257.8125 76.957031 257.789062 77 257.761719 77.039062 C 257.585938 77.296875 257.421875 77.5625 257.273438 77.832031 C 257.238281 77.898438 257.203125 77.96875 257.167969 78.035156 C 257.03125 78.296875 256.90625 78.566406 256.792969 78.839844 C 256.769531 78.898438 256.742188 78.960938 256.71875 79.023438 C 256.59375 79.351562 256.480469 79.691406 256.390625 80.035156 C 256 81.511719 255.960938 83.09375 256.328125 84.65625 C 256.414062 85.023438 256.519531 85.390625 256.652344 85.757812 C 256.871094 86.363281 257.148438 86.933594 257.46875 87.464844 C 257.539062 87.574219 257.617188 87.675781 257.6875 87.785156 C 257.785156 87.933594 257.882812 88.089844 257.988281 88.230469 C 258.121094 88.410156 258.265625 88.574219 258.410156 88.742188 C 258.464844 88.804688 258.515625 88.875 258.574219 88.933594 C 258.710938 89.085938 258.863281 89.230469 259.011719 89.371094 C 259.078125 89.441406 259.144531 89.511719 259.214844 89.578125 C 259.328125 89.679688 259.449219 89.769531 259.566406 89.867188 C 259.683594 89.960938 259.792969 90.0625 259.914062 90.152344 C 260.109375 90.300781 260.320312 90.4375 260.527344 90.566406 C 260.570312 90.597656 260.609375 90.628906 260.65625 90.652344 C 260.902344 90.804688 261.152344 90.941406 261.410156 91.070312 C 261.421875 91.074219 261.429688 91.082031 261.441406 91.085938 C 261.65625 91.191406 261.875 91.28125 262.097656 91.371094 C 262.152344 91.394531 262.207031 91.421875 262.261719 91.441406 C 263.378906 91.867188 264.574219 92.085938 265.789062 92.070312 C 265.792969 92.070312 265.796875 92.070312 265.800781 92.070312 C 266.703125 92.058594 267.617188 91.917969 268.519531 91.636719 C 268.535156 91.632812 268.550781 91.628906 268.566406 91.625 C 268.585938 91.644531 268.605469 91.667969 268.625 91.6875 C 268.75 91.820312 268.871094 91.957031 268.992188 92.09375 C 269.371094 92.5 269.738281 92.917969 270.089844 93.347656 C 270.261719 93.5625 270.425781 93.777344 270.59375 93.996094 C 270.898438 94.394531 271.191406 94.804688 271.46875 95.226562 C 271.535156 95.324219 271.597656 95.421875 271.664062 95.515625 C 273.535156 98.390625 274.859375 101.6875 275.433594 105.296875 C 275.558594 106.054688 275.628906 106.808594 275.679688 107.5625 C 275.695312 107.800781 275.707031 108.039062 275.714844 108.273438 C 275.734375 108.808594 275.738281 109.339844 275.726562 109.871094 C 275.722656 110.117188 275.722656 110.367188 275.710938 110.613281 C 275.679688 111.238281 275.617188 111.859375 275.535156 112.476562 C 275.484375 112.902344 275.410156 113.320312 275.335938 113.738281 C 275.296875 113.953125 275.253906 114.167969 275.207031 114.378906 C 274.882812 115.957031 274.410156 117.488281 273.800781 118.957031 C 270.539062 126.8125 263.421875 132.851562 254.410156 134.285156 C 254.066406 134.339844 253.730469 134.355469 253.390625 134.394531 C 253.175781 135.011719 252.9375 135.617188 252.691406 136.214844 C 252.601562 136.425781 252.507812 136.636719 252.414062 136.847656 C 252.25 137.230469 252.074219 137.605469 251.890625 137.980469 C 251.773438 138.226562 251.652344 138.472656 251.527344 138.714844 C 251.34375 139.066406 251.152344 139.414062 250.957031 139.757812 C 250.832031 139.984375 250.710938 140.210938 250.578125 140.429688 C 245.796875 148.457031 237.625 154.386719 227.679688 155.96875 C 209.886719 158.808594 193.164062 146.679688 190.332031 128.886719 Z M 258 50.546875 C 258.316406 51.703125 259.402344 52.121094 260.484375 51.957031 C 262.203125 51.703125 264.730469 51.730469 266.457031 52.03125 C 268.613281 52.40625 270.585938 53.0625 272.425781 54.027344 C 273.394531 54.53125 274.621094 54.273438 275.191406 53.300781 C 275.722656 52.390625 275.4375 51.042969 274.464844 50.535156 C 269.804688 48.097656 264.601562 47.285156 259.410156 48.058594 C 258.332031 48.21875 257.734375 49.582031 258 50.546875 Z M 435.136719 114.921875 C 427.59375 120.726562 420.453125 127.027344 413.777344 133.8125 C 412.832031 134.773438 414.308594 136.253906 415.257812 135.289062 C 421.800781 128.636719 428.792969 122.421875 436.191406 116.730469 C 437.242188 115.917969 436.203125 114.101562 435.136719 114.921875 Z M 436.417969 128.613281 C 432.152344 132.375 427.886719 136.136719 423.621094 139.894531 C 422.609375 140.789062 424.09375 142.261719 425.101562 141.375 C 429.367188 137.617188 433.632812 133.855469 437.898438 130.09375 C 438.910156 129.203125 437.425781 127.726562 436.417969 128.613281 Z M 436.417969 128.613281 "/></g></svg>