<svg xmlns="http://www.w3.org/2000/svg" xmlns:xlink="http://www.w3.org/1999/xlink" width="1024" zoomAndPan="magnify" viewBox="0 0 768 576" height="768" preserveAspectRatio="xMidYMid meet" version="1.2"><defs><clipPath id="ed52cb47c4"><path d="M 697 50.703125 L 710 50.703125 L 710 64.203125 L 697 64.203125 Z M 697 50.703125 "/></clipPath><clipPath id="07d8ac3e76"><path d="M 162 27.921875 L 606 27.921875 L 606 548 L 162 548 Z M 162 27.921875 "/></clipPath><clipPath id="3a241e7b53"><path d="M 254 417 L 551.695312 417 L 551.695312 518 L 254 518 Z M 254 417 "/></clipPath><clipPath id="3a7546a1e2"><path d="M 245 408.574219 L 543 408.574219 L 543 509 L 245 509 Z M 245 408.574219 "/></clipPath></defs><g id="6972917d09"><g clip-rule="nonzero" clip-path="url(#ed52cb47c4)"><path style=" stroke:none;fill-rule:evenodd;fill:#f9f7f8;fill-opacity:1;" d="M 700.515625 62.738281 C 700.332031 62.738281 700.304688 62.476562 700.460938 62.421875 L 707.550781 60.539062 C 707.761719 60.488281 707.839844 60.773438 707.632812 60.828125 Z M 708.652344 64.175781 L 700.960938 64.175781 C 700.90625 64.203125 700.828125 64.203125 700.75 64.203125 C 700.382812 64.203125 700.042969 63.941406 699.9375 63.574219 L 697.324219 53.761719 C 697.191406 53.292969 697.453125 52.820312 697.898438 52.714844 L 704.910156 50.832031 C 705.355469 50.703125 705.824219 50.988281 705.957031 51.433594 L 706.191406 52.324219 L 708.652344 52.324219 C 709.121094 52.324219 709.515625 52.691406 709.515625 53.160156 L 709.515625 63.339844 C 709.515625 63.808594 709.121094 64.175781 708.652344 64.175781 Z M 708.285156 61.324219 L 705.644531 51.511719 C 705.5625 51.226562 705.277344 51.066406 704.988281 51.148438 L 698.003906 53.003906 C 697.714844 53.082031 697.53125 53.398438 697.609375 53.660156 L 700.253906 63.496094 C 700.332031 63.785156 700.621094 63.941406 700.90625 63.863281 L 707.894531 62.003906 C 708.179688 61.925781 708.363281 61.613281 708.285156 61.324219 Z M 702.136719 63.863281 L 708.652344 63.863281 C 708.9375 63.863281 709.199219 63.625 709.199219 63.339844 L 709.199219 53.160156 C 709.199219 52.875 708.9375 52.636719 708.652344 52.636719 L 706.269531 52.636719 L 708.597656 61.246094 C 708.703125 61.714844 708.441406 62.1875 707.996094 62.292969 Z M 699.546875 59.101562 C 699.363281 59.101562 699.3125 58.839844 699.496094 58.8125 L 706.585938 56.902344 C 706.792969 56.851562 706.871094 57.164062 706.664062 57.214844 Z M 699.703125 59.753906 C 699.519531 59.753906 699.496094 59.492188 699.675781 59.464844 L 706.769531 57.554688 C 706.949219 57.503906 707.03125 57.816406 706.847656 57.871094 Z M 699.886719 60.433594 C 699.703125 60.433594 699.675781 60.171875 699.859375 60.121094 L 706.925781 58.210938 C 707.132812 58.160156 707.210938 58.472656 707.03125 58.523438 Z M 700.148438 61.429688 C 699.964844 61.429688 699.9375 61.167969 700.121094 61.113281 L 707.210938 59.203125 C 707.394531 59.152344 707.472656 59.464844 707.292969 59.519531 Z M 700.332031 62.082031 C 700.148438 62.082031 700.121094 61.820312 700.304688 61.769531 L 707.371094 59.886719 C 707.578125 59.804688 707.65625 60.121094 707.449219 60.171875 Z M 700.332031 62.082031 "/></g><g clip-rule="nonzero" clip-path="url(#07d8ac3e76)"><path style=" stroke:none;fill-rule:nonzero;fill:#e67e22;fill-opacity:1;" d="M 537.964844 32.148438 C 532.917969 31.082031 525.667969 30.859375 520.476562 30.550781 C 508.390625 29.832031 496.257812 29.433594 484.148438 29.101562 C 450.742188 28.1875 417.277344 27.925781 383.851562 27.925781 C 350.433594 27.925781 316.957031 28.1875 283.550781 29.101562 C 271.449219 29.433594 259.316406 29.832031 247.226562 30.550781 C 242.039062 30.859375 234.78125 31.082031 229.738281 32.148438 C 219.003906 34.421875 201.796875 35.914062 192.21875 40.40625 C 183.066406 44.695312 179.070312 54.625 176.269531 63.738281 C 167.367188 92.667969 167.003906 134.441406 167.183594 164.449219 C 167.410156 204.125 166.167969 243.867188 164.953125 283.523438 C 163.171875 341.757812 160.390625 402.375 164.089844 460.480469 C 165.296875 479.453125 167.273438 501.003906 172.652344 519.296875 C 173.71875 522.949219 178.214844 536.152344 181.972656 538.058594 C 187.667969 540.054688 198.746094 541.003906 204.820312 541.632812 C 220.636719 543.269531 236.632812 544.203125 252.515625 544.96875 C 296.191406 547.070312 340.132812 547.6875 383.851562 547.6875 C 427.566406 547.6875 471.519531 547.070312 515.183594 544.96875 C 531.066406 544.203125 547.066406 543.269531 562.886719 541.632812 C 568.953125 541.003906 580.039062 540.054688 585.726562 538.058594 C 589.484375 536.152344 593.980469 522.949219 595.058594 519.296875 C 600.425781 501.003906 602.414062 479.453125 603.613281 460.480469 C 607.308594 402.375 604.53125 341.757812 602.746094 283.523438 C 601.539062 243.867188 600.296875 204.125 600.527344 164.449219 C 600.695312 134.441406 600.332031 92.667969 591.433594 63.738281 C 588.628906 54.625 584.636719 44.695312 575.488281 40.40625 C 565.902344 35.914062 548.695312 34.421875 537.964844 32.148438 Z M 537.964844 32.148438 "/></g><path style=" stroke:none;fill-rule:nonzero;fill:#e67e22;fill-opacity:1;" d="M 519.945312 375.324219 C 567.984375 375.777344 577.050781 375.324219 563 410.21875 C 548.941406 445.117188 554.382812 432.425781 562.089844 461.429688 C 569.792969 490.433594 577.5 498.140625 530.820312 504.484375 C 476.574219 511.859375 291.136719 511.859375 236.886719 504.484375 C 190.207031 498.140625 197.917969 490.433594 205.617188 461.429688 C 213.324219 432.425781 218.757812 445.117188 204.707031 410.21875 C 190.667969 375.324219 199.726562 375.777344 247.765625 375.324219 C 337.265625 374.476562 430.441406 374.476562 519.945312 375.324219 Z M 519.945312 375.324219 "/><path style=" stroke:none;fill-rule:nonzero;fill:#e67e22;fill-opacity:1;" d="M 363.277344 194.605469 C 363.277344 194.605469 373.265625 183.085938 378.691406 179.703125 C 384.105469 176.316406 391.390625 186.308594 394.777344 208.148438 C 395.128906 210.429688 395.5625 213.292969 395.996094 216.589844 C 399.140625 221.265625 403.3125 224.828125 408.695312 224.585938 C 423.765625 223.90625 429.179688 208.839844 432.734375 198.339844 C 436.289062 187.839844 448.148438 185.300781 447.636719 190.382812 C 447.128906 195.460938 447.472656 219.335938 456.269531 224.078125 C 465.074219 228.816406 478.796875 223.738281 476.425781 213.917969 C 474.050781 204.097656 464.738281 201.726562 467.789062 194.953125 C 470.832031 188.179688 479.132812 179.542969 484.722656 174.632812 C 490.304688 169.722656 494.371094 177.851562 494.714844 198.84375 C 495.050781 219.84375 493.691406 250.324219 472.359375 259.976562 C 451.027344 269.628906 435.105469 249.644531 435.105469 249.644531 C 435.105469 249.644531 416.894531 272.847656 397.421875 261.390625 C 395.042969 285.953125 385.773438 310.332031 359.386719 317.199219 C 309.945312 330.070312 278.109375 309.410156 273.707031 271.144531 C 269.308594 232.875 285.894531 213.742188 290.296875 212.554688 C 294.707031 211.367188 294.707031 217.636719 291.65625 232.367188 C 288.605469 247.097656 284.882812 279.269531 311.292969 286.214844 C 337.710938 293.15625 367.003906 286.042969 376.828125 267.589844 C 386.644531 249.132812 372.429688 228.808594 366.835938 219.835938 C 361.246094 210.863281 357.179688 202.90625 363.277344 194.605469 Z M 437.550781 140.558594 C 437.550781 140.558594 441.570312 131.5625 444.410156 128.367188 C 447.261719 125.167969 452.109375 128.007812 459.214844 135.351562 C 466.316406 142.695312 470.585938 144.707031 468.335938 148.257812 C 466.089844 151.8125 463.714844 159.152344 460.160156 161.878906 C 456.605469 164.601562 450.75 161.820312 443.351562 155.71875 C 435.945312 149.621094 435.355469 146.304688 437.550781 140.558594 Z M 397.582031 140.558594 C 397.582031 140.558594 401.613281 131.5625 404.453125 128.367188 C 407.292969 125.167969 412.148438 128.007812 419.257812 135.351562 C 426.359375 142.695312 430.625 144.707031 428.367188 148.257812 C 426.121094 151.8125 423.757812 159.152344 420.203125 161.878906 C 416.648438 164.601562 410.792969 161.820312 403.382812 155.71875 C 395.984375 149.621094 395.394531 146.304688 397.582031 140.558594 Z M 414.179688 101.277344 C 414.179688 101.277344 418.203125 92.28125 421.050781 89.082031 C 423.890625 85.882812 428.738281 88.726562 435.847656 96.070312 C 442.957031 103.410156 447.214844 105.421875 444.964844 108.976562 C 442.71875 112.527344 440.34375 119.871094 436.789062 122.59375 C 433.246094 125.316406 427.378906 122.535156 419.980469 116.433594 C 412.574219 110.339844 411.984375 107.023438 414.179688 101.277344 Z M 414.179688 101.277344 "/><path style=" stroke:none;fill-rule:nonzero;fill:#e67e22;fill-opacity:1;" d="M 320.695312 469.609375 C 323.023438 469.609375 325.40625 469.335938 327.867188 468.777344 C 330.316406 468.214844 332.707031 467.386719 335 466.285156 C 337.292969 465.183594 339.367188 463.808594 341.207031 462.164062 C 343.054688 460.523438 344.5 458.589844 345.585938 456.40625 C 346.667969 454.21875 347.226562 451.746094 347.242188 449.015625 C 347.226562 445.964844 346.71875 443.308594 345.726562 441.050781 C 344.738281 438.8125 343.414062 436.859375 341.722656 435.234375 C 340.039062 433.609375 338.140625 432.203125 336.042969 430.988281 C 333.933594 429.800781 331.765625 428.734375 329.488281 427.777344 C 327.230469 426.820312 325.042969 425.898438 322.890625 424.996094 C 320.769531 424.09375 318.816406 423.132812 317.0625 422.105469 C 315.308594 421.074219 313.90625 419.882812 312.820312 418.527344 C 311.71875 417.15625 311.101562 415.546875 310.941406 413.6875 C 310.828125 411.738281 311.15625 410.1875 311.964844 408.992188 C 312.769531 407.800781 313.84375 406.917969 315.21875 406.355469 C 316.613281 405.777344 318.09375 405.433594 319.71875 405.34375 C 320.097656 405.289062 320.457031 405.253906 320.785156 405.253906 C 321.128906 405.238281 321.457031 405.238281 321.78125 405.238281 C 323.527344 405.238281 325.117188 405.433594 326.542969 405.832031 C 327.972656 406.230469 329.328125 406.769531 330.628906 407.441406 C 331.921875 408.125 333.28125 408.902344 334.675781 409.789062 C 334.832031 409.898438 335 409.96875 335.175781 410.023438 C 335.34375 410.078125 335.539062 410.113281 335.757812 410.113281 C 335.8125 410.113281 335.882812 410.09375 335.988281 410.058594 C 336.078125 410.023438 336.191406 410.003906 336.296875 410.003906 C 336.84375 409.898438 337.277344 409.570312 337.601562 409.027344 L 341.394531 402.636719 C 341.605469 402.308594 341.714844 401.984375 341.714844 401.660156 C 341.714844 401.550781 341.714844 401.445312 341.695312 401.335938 C 341.695312 401.226562 341.660156 401.121094 341.605469 401.007812 C 341.554688 400.738281 341.445312 400.488281 341.28125 400.289062 C 341.121094 400.089844 340.902344 399.925781 340.636719 399.820312 C 338.554688 398.535156 336.554688 397.433594 334.621094 396.496094 C 332.664062 395.554688 330.644531 394.832031 328.570312 394.308594 C 326.472656 393.804688 324.179688 393.53125 321.664062 393.53125 C 321.234375 393.53125 320.800781 393.53125 320.351562 393.550781 C 319.921875 393.550781 319.445312 393.585938 318.960938 393.640625 C 315.078125 393.929688 311.683594 394.90625 308.773438 396.566406 C 305.882812 398.230469 303.621094 400.539062 302.015625 403.5 C 300.414062 406.445312 299.582031 410.039062 299.558594 414.230469 C 299.582031 417.28125 300.085938 419.9375 301.058594 422.214844 C 302.035156 424.472656 303.332031 426.441406 305 428.121094 C 306.65625 429.78125 308.5 431.246094 310.5625 432.492188 C 312.636719 433.71875 314.753906 434.839844 316.957031 435.832031 C 319.164062 436.824219 321.289062 437.78125 323.351562 438.6875 C 325.40625 439.605469 327.269531 440.5625 328.90625 441.59375 C 330.574219 442.605469 331.871094 443.746094 332.847656 445.027344 C 333.828125 446.308594 334.332031 447.824219 334.351562 449.558594 C 334.332031 450.75 333.988281 451.796875 333.332031 452.71875 C 332.691406 453.621094 331.816406 454.417969 330.75 455.066406 C 329.710938 455.734375 328.546875 456.261719 327.320312 456.675781 C 326.09375 457.105469 324.902344 457.417969 323.746094 457.613281 C 322.578125 457.8125 321.558594 457.902344 320.695312 457.902344 C 318.289062 457.902344 316.164062 457.667969 314.238281 457.234375 C 312.355469 456.785156 310.546875 456.167969 308.828125 455.390625 C 307.089844 454.617188 305.324219 453.710938 303.464844 452.703125 C 303.296875 452.59375 303.136719 452.539062 302.980469 452.519531 C 302.8125 452.484375 302.652344 452.484375 302.484375 452.484375 C 302.105469 452.484375 301.746094 452.574219 301.402344 452.738281 C 301.074219 452.917969 300.828125 453.191406 300.640625 453.570312 L 297.175781 460.179688 C 297.070312 460.339844 297 460.488281 296.949219 460.632812 C 296.886719 460.777344 296.847656 460.9375 296.847656 461.15625 C 296.847656 461.207031 296.867188 461.28125 296.910156 461.390625 C 296.949219 461.480469 296.964844 461.589844 296.964844 461.699219 C 297.070312 461.96875 297.210938 462.203125 297.378906 462.417969 C 297.539062 462.621094 297.722656 462.78125 297.933594 462.890625 C 299.8125 463.898438 301.621094 464.800781 303.378906 465.632812 C 305.105469 466.445312 306.859375 467.152344 308.632812 467.746094 C 310.398438 468.34375 312.257812 468.796875 314.226562 469.121094 C 316.199219 469.445312 318.34375 469.609375 320.695312 469.609375 Z M 375.65625 491.171875 C 378.382812 491.152344 380.773438 490.792969 382.808594 490.050781 C 384.847656 489.328125 386.585938 488.335938 388.011719 487.089844 C 389.425781 485.824219 390.578125 484.398438 391.460938 482.8125 C 392.324219 481.21875 392.980469 479.558594 393.375 477.804688 C 393.773438 476.074219 393.972656 474.339844 393.972656 472.640625 L 394.300781 423.765625 C 394.28125 423.152344 394.0625 422.628906 393.667969 422.175781 C 393.25 421.746094 392.75 421.507812 392.128906 421.492188 L 384.222656 421.492188 C 383.601562 421.507812 383.101562 421.726562 382.683594 422.125 C 382.289062 422.539062 382.070312 423.046875 382.050781 423.660156 C 382 425.230469 381.964844 426.730469 381.964844 428.140625 C 381.945312 429.546875 381.945312 430.867188 381.945312 432.113281 L 381.945312 433.523438 C 381.875 442.046875 381.238281 448.527344 380.050781 452.953125 C 378.859375 457.382812 377.246094 459.617188 375.226562 459.636719 C 373.8125 459.617188 372.730469 459.078125 371.988281 458.011719 C 371.273438 456.964844 370.886719 455.554688 370.886719 453.785156 L 370.886719 423.117188 C 370.867188 422.503906 370.65625 421.996094 370.257812 421.582031 C 369.84375 421.1875 369.332031 420.96875 368.726562 420.949219 L 359.402344 420.949219 C 358.785156 420.96875 358.285156 421.1875 357.867188 421.582031 C 357.472656 421.996094 357.253906 422.503906 357.234375 423.117188 C 357.214844 424.328125 357.214844 425.863281 357.234375 427.722656 C 357.253906 429.566406 357.285156 431.570312 357.320312 433.738281 C 357.367188 435.90625 357.421875 438.089844 357.472656 440.277344 C 357.523438 442.460938 357.558594 444.519531 357.613281 446.417969 C 357.667969 448.3125 357.703125 449.917969 357.71875 451.21875 C 357.761719 452.519531 357.78125 453.386719 357.78125 453.785156 C 357.761719 455.066406 357.851562 456.441406 358.027344 457.9375 C 358.210938 459.421875 358.554688 460.902344 359.058594 462.378906 C 359.5625 463.84375 360.269531 465.183594 361.230469 466.410156 C 362.164062 467.621094 363.382812 468.613281 364.898438 469.335938 C 366.414062 470.074219 368.25 470.457031 370.453125 470.472656 C 372.730469 470.472656 374.84375 470.003906 376.757812 469.027344 C 378.671875 468.070312 380.375 466.554688 381.839844 464.511719 C 381.839844 465.652344 381.820312 466.898438 381.777344 468.269531 C 381.742188 469.660156 381.726562 471.179688 381.726562 472.859375 C 381.726562 473.757812 381.65625 474.683594 381.496094 475.625 C 381.3125 476.5625 381 477.410156 380.570312 478.203125 C 380.136719 479 379.535156 479.648438 378.761719 480.136719 C 377.96875 480.605469 376.980469 480.859375 375.761719 480.878906 C 375.277344 480.878906 374.773438 480.769531 374.246094 480.519531 C 373.726562 480.261719 373.222656 479.847656 372.730469 479.253906 C 372.570312 478.980469 372.332031 478.78125 372.050781 478.675781 C 371.757812 478.546875 371.433594 478.496094 371.105469 478.496094 C 370.949219 478.496094 370.78125 478.511719 370.621094 478.5625 C 370.453125 478.601562 370.296875 478.65625 370.136719 478.710938 L 364.386719 481.417969 C 364.121094 481.582031 363.882812 481.777344 363.664062 481.996094 C 363.46875 482.214844 363.300781 482.449219 363.195312 482.71875 C 363.140625 482.992188 363.125 483.28125 363.140625 483.585938 C 363.160156 483.894531 363.246094 484.183594 363.414062 484.453125 C 364.335938 486.078125 365.4375 487.378906 366.742188 488.355469 C 368.039062 489.347656 369.449219 490.070312 370.964844 490.523438 C 372.5 490.957031 374.050781 491.171875 375.65625 491.171875 Z M 412.523438 413.6875 C 413.226562 413.6875 413.949219 413.597656 414.671875 413.433594 C 415.394531 413.253906 416.101562 412.984375 416.753906 412.605469 C 418.15625 411.8125 419.257812 410.816406 420.015625 409.589844 C 420.792969 408.359375 421.171875 407.042969 421.1875 405.671875 C 421.1875 405.074219 421.117188 404.496094 420.960938 403.953125 C 420.8125 403.414062 420.597656 402.90625 420.324219 402.417969 C 419.65625 401.226562 418.753906 400.324219 417.621094 399.726562 C 416.480469 399.132812 415.253906 398.84375 413.929688 398.84375 C 413.226562 398.84375 412.523438 398.933594 411.824219 399.097656 C 411.121094 399.277344 410.414062 399.546875 409.707031 399.925781 C 408.332031 400.71875 407.292969 401.734375 406.523438 402.996094 C 405.765625 404.261719 405.386719 405.582031 405.367188 406.96875 C 405.367188 407.511719 405.449219 408.054688 405.605469 408.597656 C 405.746094 409.136719 405.96875 409.679688 406.242188 410.21875 C 406.902344 411.359375 407.792969 412.226562 408.894531 412.804688 C 409.996094 413.382812 411.207031 413.6875 412.523438 413.6875 Z M 409.054688 470.148438 L 416.964844 470.148438 C 417.582031 470.132812 418.085938 469.914062 418.5 469.515625 C 418.898438 469.101562 419.117188 468.59375 419.136719 467.980469 L 419.566406 423.660156 C 419.550781 423.046875 419.371094 422.539062 418.992188 422.125 C 418.613281 421.726562 418.121094 421.507812 417.511719 421.492188 L 409.601562 421.492188 C 408.984375 421.507812 408.464844 421.726562 408.003906 422.125 C 407.574219 422.539062 407.34375 423.046875 407.324219 423.660156 L 407.210938 435.582031 C 407.210938 436.210938 407.210938 437.023438 407.210938 438.035156 C 407.210938 439.027344 407.210938 440.328125 407.195312 441.898438 C 407.195312 443.472656 407.175781 445.421875 407.160156 447.769531 C 407.160156 450.117188 407.125 452.953125 407.105469 456.261719 C 407.070312 459.582031 407.035156 463.484375 407 467.980469 C 406.964844 468.59375 407.140625 469.101562 407.539062 469.515625 C 407.9375 469.914062 408.445312 470.132812 409.054688 470.148438 Z M 435.953125 470.472656 L 443.863281 470.472656 C 444.480469 470.457031 444.984375 470.238281 445.398438 469.84375 C 445.796875 469.425781 446.015625 468.921875 446.035156 468.308594 C 445.980469 464.675781 445.945312 461.425781 445.929688 458.519531 C 445.902344 455.628906 445.867188 453.082031 445.8125 450.859375 L 445.8125 450.75 C 445.945312 447.410156 446.28125 444.464844 446.84375 441.898438 C 447.382812 439.355469 448.085938 437.203125 448.945312 435.453125 C 449.789062 433.71875 450.707031 432.402344 451.683594 431.496094 C 452.65625 430.613281 453.636719 430.160156 454.597656 430.160156 C 455.585938 430.179688 456.394531 430.433594 457.03125 430.917969 C 457.664062 431.425781 458.152344 432.058594 458.476562 432.851562 C 458.820312 433.648438 459.050781 434.496094 459.183594 435.417969 C 459.304688 436.339844 459.359375 437.222656 459.359375 438.070312 L 459.359375 467.332031 C 459.378906 467.945312 459.597656 468.449219 459.992188 468.867188 C 460.410156 469.265625 460.910156 469.480469 461.527344 469.5 L 470.851562 469.5 C 471.457031 469.480469 471.96875 469.265625 472.382812 468.867188 C 472.78125 468.449219 473.003906 467.945312 473.019531 467.332031 C 473.035156 466.085938 473.035156 464.53125 473.019531 462.65625 C 472.992188 460.757812 472.957031 458.71875 472.921875 456.492188 C 472.886719 454.273438 472.835938 452.035156 472.78125 449.792969 C 472.726562 447.554688 472.691406 445.476562 472.632812 443.527344 C 472.597656 441.59375 472.542969 439.949219 472.527344 438.613281 C 472.492188 437.277344 472.472656 436.410156 472.472656 436.011719 C 472.492188 434.730469 472.421875 433.355469 472.296875 431.859375 C 472.144531 430.375 471.855469 428.894531 471.421875 427.417969 C 470.988281 425.953125 470.339844 424.597656 469.472656 423.386719 C 468.609375 422.160156 467.453125 421.1875 465.992188 420.460938 C 464.542969 419.722656 462.738281 419.34375 460.546875 419.324219 C 457.71875 419.304688 455.046875 419.847656 452.515625 420.949219 C 450 422.050781 447.726562 423.785156 445.707031 426.152344 C 445.652344 425.554688 445.621094 424.851562 445.621094 424.058594 C 445.601562 423.246094 445.601562 422.359375 445.601562 421.382812 C 445.582031 420.769531 445.363281 420.261719 444.964844 419.847656 C 444.550781 419.449219 444.050781 419.234375 443.433594 419.214844 C 442.109375 419.792969 440.742188 420.371094 439.261719 420.96875 C 437.796875 421.582031 436.296875 422.324219 434.761719 423.226562 C 434.332031 423.476562 433.984375 423.785156 433.730469 424.128906 C 433.472656 424.488281 433.351562 424.976562 433.351562 425.609375 L 433.785156 468.308594 C 433.800781 468.921875 434.023438 469.425781 434.417969 469.84375 C 434.832031 470.238281 435.335938 470.457031 435.953125 470.472656 Z M 435.953125 470.472656 "/><path style=" stroke:none;fill-rule:evenodd;fill:#a97790;fill-opacity:1;" d="M 256.015625 420.050781 C 351.070312 420.117188 447.25 420.914062 550.070312 419.183594 C 550.964844 419.167969 521.398438 467.40625 522.316406 468.851562 C 532.796875 485.304688 551.390625 514.828125 549.375 514.863281 C 438.976562 516.839844 322.917969 516.492188 255.664062 515.617188 C 253.171875 515.585938 283.96875 466.019531 283.496094 465.214844 C 272.519531 446.457031 263.125 431.574219 256.015625 420.050781 Z M 256.015625 420.050781 "/><g clip-rule="nonzero" clip-path="url(#3a241e7b53)"><path style="fill:none;stroke-width:4.14;stroke-linecap:round;stroke-linejoin:round;stroke:#a8768f;stroke-opacity:1;stroke-miterlimit:1.5;" d="M 1087.348627 687.332286 C 1233.007156 687.4413 1380.389597 688.749472 1537.947903 685.908687 C 1539.318652 685.883037 1494.012109 765.072317 1495.418773 767.444982 C 1511.478682 794.454881 1539.971104 842.921363 1536.88243 842.979076 C 1367.711666 846.223855 1189.867474 845.653133 1086.809905 844.216709 C 1082.990962 844.165409 1130.183033 762.795842 1129.458751 761.474845 C 1112.638644 730.681507 1098.242788 706.249476 1087.348627 687.332286 Z M 1087.348627 687.332286 " transform="matrix(0.652586,0,0,0.609152,-453.572645,1.361182)"/></g><path style=" stroke:none;fill-rule:evenodd;fill:#ffffff;fill-opacity:1;" d="M 247.363281 410.734375 C 342.417969 410.800781 438.597656 411.597656 541.417969 409.867188 C 542.3125 409.851562 512.742188 458.089844 513.664062 459.535156 C 524.144531 475.988281 542.738281 505.511719 540.71875 505.546875 C 430.320312 507.527344 314.265625 507.175781 247.011719 506.300781 C 244.519531 506.269531 275.3125 456.703125 274.84375 455.902344 C 263.867188 437.140625 254.46875 422.257812 247.363281 410.734375 Z M 247.363281 410.734375 "/><g clip-rule="nonzero" clip-path="url(#3a7546a1e2)"><path style=" stroke:none;fill-rule:evenodd;fill:#a8768f;fill-opacity:1;" d="M 273.433594 456.011719 C 262.59375 437.511719 253.316406 422.804688 246.28125 411.398438 C 246.039062 411.003906 246.023438 410.515625 246.246094 410.113281 C 246.476562 409.710938 246.898438 409.464844 247.363281 409.464844 C 342.414062 409.53125 438.582031 410.332031 541.398438 408.597656 C 541.804688 408.589844 542.117188 408.746094 542.359375 409 C 542.527344 409.179688 542.789062 409.527344 542.691406 410.121094 C 542.664062 410.316406 542.4375 410.910156 541.960938 411.804688 C 538.65625 418.058594 522.722656 444.402344 516.902344 455.355469 C 516.027344 457.007812 515.277344 458.6875 515.015625 459.285156 C 524.535156 474.238281 540.316406 499.359375 541.945312 504.296875 C 542.222656 505.132812 542.128906 505.71875 542.003906 505.988281 C 541.765625 506.519531 541.351562 506.804688 540.746094 506.816406 C 430.328125 508.792969 314.257812 508.445312 246.996094 507.570312 C 246.679688 507.566406 246.417969 507.46875 246.203125 507.3125 C 245.941406 507.128906 245.710938 506.847656 245.628906 506.402344 C 245.570312 506.089844 245.632812 505.402344 246.011719 504.441406 C 248.558594 497.96875 265.046875 470.835938 271.332031 459.871094 C 272.316406 458.148438 273.101562 456.652344 273.433594 456.011719 Z M 248.511719 505.050781 C 315.664062 505.910156 430.0625 506.238281 539.1875 504.304688 C 539.011719 503.886719 538.796875 503.386719 538.546875 502.894531 C 534.496094 494.8125 520.953125 473.34375 512.59375 460.214844 C 512.464844 460.011719 512.285156 459.601562 512.425781 458.980469 C 512.5625 458.378906 513.175781 456.992188 514.1875 455.054688 C 518.84375 446.09375 532.007812 424.179688 537.679688 414.257812 C 538.332031 413.121094 538.933594 412.015625 539.382812 411.167969 C 438.152344 412.84375 343.332031 412.082031 249.648438 412.003906 C 256.605469 423.25 265.5625 437.527344 275.945312 455.261719 C 276.039062 455.417969 276.128906 455.640625 276.121094 455.949219 C 276.121094 456.121094 275.964844 456.699219 275.523438 457.558594 C 272.558594 463.300781 256.0625 490.246094 250.128906 501.707031 C 249.425781 503.070312 248.871094 504.207031 248.511719 505.050781 Z M 248.511719 505.050781 "/></g><path style=" stroke:none;fill-rule:nonzero;fill:#ffffff;fill-opacity:1;" d="M 497.3125 198.128906 C 499.140625 193.058594 497.40625 187.578125 493.386719 184.378906 C 494.894531 182.691406 495.945312 180.589844 496.355469 178.214844 C 497.269531 172.914062 494.574219 167.800781 490.101562 165.378906 C 491.289062 163.460938 491.972656 161.222656 491.925781 158.800781 C 491.882812 153.410156 488.367188 148.84375 483.527344 147.246094 C 484.347656 145.144531 484.621094 142.816406 484.164062 140.441406 C 483.160156 135.140625 478.914062 131.257812 473.890625 130.527344 C 474.347656 128.335938 474.210938 125.960938 473.34375 123.722656 C 471.425781 118.699219 466.585938 115.636719 461.472656 115.773438 C 461.519531 113.539062 460.972656 111.253906 459.738281 109.152344 C 457 104.539062 451.65625 102.347656 446.679688 103.398438 C 446.359375 101.160156 445.402344 99.011719 443.851562 97.183594 C 440.335938 93.121094 434.71875 91.886719 429.96875 93.804688 C 429.238281 91.660156 427.960938 89.695312 426.089844 88.1875 C 421.933594 84.761719 416.183594 84.578125 411.84375 87.273438 C 410.75 85.308594 409.152344 83.621094 407.050781 82.433594 C 402.347656 79.828125 396.640625 80.605469 392.851562 84.03125 C 391.4375 82.296875 389.5625 80.878906 387.28125 80.101562 C 383.082031 78.640625 378.652344 79.601562 375.5 82.203125 C 374.3125 81.519531 373.035156 80.96875 371.574219 80.695312 C 366.277344 79.644531 361.121094 82.203125 358.5625 86.589844 C 356.691406 85.355469 354.453125 84.625 352.035156 84.578125 C 346.644531 84.488281 341.988281 87.867188 340.253906 92.664062 C 338.199219 91.796875 335.871094 91.429688 333.496094 91.796875 C 328.199219 92.710938 324.230469 96.867188 323.359375 101.890625 C 321.167969 101.386719 318.839844 101.433594 316.558594 102.253906 C 311.492188 104.035156 308.292969 108.785156 308.292969 113.902344 C 306.058594 113.765625 303.730469 114.269531 301.628906 115.410156 C 296.878906 118.058594 294.597656 123.3125 295.464844 128.335938 C 293.226562 128.609375 291.035156 129.476562 289.164062 130.984375 C 285.007812 134.410156 283.640625 139.984375 285.421875 144.777344 C 283.273438 145.417969 281.265625 146.699219 279.714844 148.523438 C 276.199219 152.589844 275.832031 158.34375 278.433594 162.730469 C 276.425781 163.734375 274.691406 165.332031 273.457031 167.386719 C 270.71875 172 271.359375 177.757812 274.644531 181.640625 C 272.863281 183.007812 271.402344 184.835938 270.535156 187.121094 C 268.617188 192.144531 270.261719 197.671875 274.1875 200.914062 C 272.636719 202.558594 271.539062 204.660156 271.128906 206.988281 C 270.125 212.289062 272.726562 217.449219 277.15625 219.960938 C 275.921875 221.832031 275.238281 224.070312 275.191406 226.492188 C 275.148438 231.882812 278.570312 236.496094 283.367188 238.183594 C 282.5 240.242188 282.179688 242.570312 282.589844 244.945312 C 283.503906 250.242188 287.65625 254.21875 292.679688 255.039062 C 292.175781 257.230469 292.269531 259.5625 293.089844 261.84375 C 294.917969 266.914062 299.710938 270.066406 304.824219 270.019531 C 304.734375 272.257812 305.234375 274.542969 306.421875 276.644531 C 309.070312 281.347656 314.367188 283.585938 319.390625 282.628906 C 319.664062 284.867188 320.574219 287.011719 322.128906 288.886719 C 325.550781 293.042969 331.167969 294.320312 335.917969 292.539062 C 336.601562 294.6875 337.835938 296.648438 339.707031 298.203125 C 343.816406 301.675781 349.566406 301.992188 353.953125 299.390625 C 355 301.398438 356.597656 303.136719 358.652344 304.324219 C 363.3125 307.019531 369.019531 306.332031 372.851562 303 C 374.222656 304.78125 376.09375 306.195312 378.378906 307.019531 C 383.445312 308.890625 388.925781 307.199219 392.167969 303.226562 C 393.808594 304.734375 395.910156 305.832031 398.285156 306.242188 C 403.582031 307.199219 408.695312 304.550781 411.160156 300.074219 C 413.078125 301.261719 415.3125 301.992188 417.734375 301.992188 C 423.121094 301.992188 427.6875 298.523438 429.375 293.679688 C 431.476562 294.550781 433.804688 294.824219 436.179688 294.410156 C 441.476562 293.453125 445.402344 289.25 446.179688 284.226562 C 448.371094 284.683594 450.746094 284.589844 452.980469 283.769531 C 458.050781 281.898438 461.152344 277.101562 461.015625 271.984375 C 463.253906 272.078125 465.539062 271.527344 467.636719 270.339844 C 472.292969 267.644531 474.484375 262.347656 473.527344 257.324219 C 475.765625 257.003906 477.910156 256.089844 479.78125 254.539062 C 483.890625 251.066406 485.125 245.449219 483.296875 240.699219 C 485.445312 240.011719 487.40625 238.734375 488.960938 236.859375 C 492.382812 232.703125 492.65625 226.996094 490.007812 222.609375 C 491.972656 221.558594 493.707031 219.960938 494.894531 217.859375 C 497.542969 213.15625 496.8125 207.492188 493.433594 203.65625 C 495.121094 202.285156 496.539062 200.410156 497.3125 198.128906 Z M 497.3125 198.128906 "/><path style=" stroke:none;fill-rule:nonzero;fill:#7d8693;fill-opacity:1;" d="M 383.902344 295.644531 C 356.691406 295.644531 331.078125 285.046875 311.808594 265.773438 C 292.589844 246.5 281.996094 220.875 281.996094 193.652344 C 281.996094 166.429688 292.589844 140.804688 311.855469 121.53125 C 331.078125 102.300781 356.691406 91.703125 383.902344 91.703125 C 411.113281 91.703125 436.726562 102.300781 455.996094 121.574219 C 475.261719 140.851562 485.855469 166.429688 485.855469 193.699219 C 485.855469 220.921875 475.261719 246.542969 455.996094 265.820312 C 436.726562 285.003906 411.113281 295.644531 383.902344 295.644531 Z M 383.902344 94.035156 C 357.285156 94.035156 332.265625 104.402344 313.453125 123.21875 C 294.644531 142.039062 284.277344 167.023438 284.277344 193.652344 C 284.277344 220.28125 294.644531 245.3125 313.453125 264.128906 C 332.265625 282.949219 357.285156 293.316406 383.902344 293.316406 C 410.519531 293.316406 435.539062 282.949219 454.351562 264.128906 C 473.160156 245.3125 483.527344 220.28125 483.527344 193.652344 C 483.527344 167.023438 473.160156 141.992188 454.351562 123.175781 C 435.539062 104.402344 410.519531 94.035156 383.902344 94.035156 Z M 383.902344 94.035156 "/><g style="fill:#000000;fill-opacity:1;"><g transform="translate(292.65211, 481.184377)"><path style="stroke:none" d="M 1.265625 -42.0625 L 19.234375 -42.0625 C 24.796875 -42.0625 28.96875 -41.3125 31.75 -39.8125 C 34.539062 -38.3125 35.9375 -35.773438 35.9375 -32.203125 C 35.9375 -26.722656 32.628906 -23.441406 26.015625 -22.359375 L 26.015625 -22.234375 C 34.035156 -21.234375 38.046875 -17.75 38.046875 -11.78125 C 38.046875 -7.414062 36.398438 -4.359375 33.109375 -2.609375 C 29.828125 -0.867188 25.097656 0 18.921875 0 L 1.265625 0 L 1.265625 -1.140625 L 5.171875 -1.140625 L 5.171875 -40.921875 L 1.265625 -40.921875 Z M 16.890625 -21.265625 L 16.890625 -1.140625 L 19.703125 -1.140625 C 21.910156 -1.140625 23.453125 -1.898438 24.328125 -3.421875 C 25.210938 -4.941406 25.65625 -7.1875 25.65625 -10.15625 L 25.65625 -13.34375 C 25.65625 -15.988281 25.113281 -17.96875 24.03125 -19.28125 C 22.957031 -20.601562 21.035156 -21.265625 18.265625 -21.265625 Z M 16.890625 -40.921875 L 16.890625 -22.421875 L 18.453125 -22.421875 C 20.535156 -22.421875 21.984375 -23.050781 22.796875 -24.3125 C 23.617188 -25.570312 24.03125 -27.503906 24.03125 -30.109375 L 24.03125 -32.9375 C 24.03125 -35.894531 23.671875 -37.960938 22.953125 -39.140625 C 22.234375 -40.328125 20.851562 -40.921875 18.8125 -40.921875 Z M 16.890625 -40.921875 "/></g></g><g style="fill:#000000;fill-opacity:1;"><g transform="translate(332.252016, 481.184377)"><path style="stroke:none" d="M 1.265625 -42.0625 L 32.515625 -42.0625 L 33.109375 -30.171875 L 32.03125 -30.171875 C 30.34375 -34.210938 28.578125 -36.984375 26.734375 -38.484375 C 24.898438 -39.992188 22.195312 -40.75 18.625 -40.75 L 16.53125 -40.75 L 16.53125 -22.171875 L 18.5625 -22.171875 C 20.445312 -22.171875 22.03125 -22.878906 23.3125 -24.296875 C 24.59375 -25.722656 25.492188 -27.640625 26.015625 -30.046875 L 26.921875 -30.046875 L 26.921875 -12.265625 L 25.90625 -12.265625 C 25.175781 -15.265625 24.203125 -17.40625 22.984375 -18.6875 C 21.765625 -19.96875 20.09375 -20.609375 17.96875 -20.609375 L 16.53125 -20.609375 L 16.53125 -1.328125 L 18.8125 -1.328125 C 22.5 -1.328125 25.632812 -2.425781 28.21875 -4.625 C 30.800781 -6.832031 32.570312 -9.65625 33.53125 -13.09375 L 34.734375 -13.09375 L 34.25 0 L 1.265625 0 L 1.265625 -1.328125 L 4.8125 -1.328125 L 4.8125 -40.75 L 1.265625 -40.75 Z M 1.265625 -42.0625 "/></g></g><g style="fill:#000000;fill-opacity:1;"><g transform="translate(365.542382, 481.184377)"><path style="stroke:none" d="M 23.859375 -22.296875 L 32.390625 -41.109375 L 26.328125 -41.109375 L 26.328125 -42.0625 L 38.15625 -42.0625 L 38.15625 -41.109375 L 34.1875 -41.109375 L 25.125 -21.03125 L 25.125 -1.140625 L 28.78125 -1.140625 L 28.78125 0 L 9.734375 0 L 9.734375 -1.140625 L 13.40625 -1.140625 L 13.40625 -19.890625 L 3.1875 -41.109375 L 0.359375 -41.109375 L 0.359375 -42.0625 L 19.59375 -42.0625 L 19.59375 -41.109375 L 15.6875 -41.109375 Z M 23.859375 -22.296875 "/></g></g><g style="fill:#000000;fill-opacity:1;"><g transform="translate(397.450675, 481.184377)"><path style="stroke:none" d="M 25.953125 -1.140625 L 21.578125 -14.125 L 9.671875 -14.125 L 5.046875 -1.140625 L 9.5625 -1.140625 L 9.5625 0 L 0.359375 0 L 0.359375 -1.140625 L 3.1875 -1.140625 L 18.515625 -42.421875 L 23.4375 -42.421875 L 38.578125 -1.140625 L 41.34375 -1.140625 L 41.34375 0 L 21.6875 0 L 21.6875 -1.140625 Z M 15.859375 -31.1875 L 10.21875 -15.4375 L 21.09375 -15.4375 Z M 15.859375 -31.1875 "/></g></g><g style="fill:#000000;fill-opacity:1;"><g transform="translate(438.552857, 481.184377)"><path style="stroke:none" d="M 33.59375 -42.0625 L 33.59375 -40.75 L 15.796875 -1.375 L 17.84375 -1.375 C 21.445312 -1.375 24.617188 -2.523438 27.359375 -4.828125 C 30.109375 -7.140625 32.085938 -10.414062 33.296875 -14.65625 L 34.375 -14.65625 L 33.65625 0 L 2.890625 0 L 2.890625 -1.140625 L 20.859375 -40.75 L 18.390625 -40.75 C 14.828125 -40.75 12.125 -39.96875 10.28125 -38.40625 C 8.4375 -36.84375 6.351562 -33.632812 4.03125 -28.78125 L 2.9375 -28.78125 L 3.84375 -42.0625 Z M 33.59375 -42.0625 "/></g></g></g></svg>