<svg xmlns="http://www.w3.org/2000/svg" xmlns:xlink="http://www.w3.org/1999/xlink" width="1440" zoomAndPan="magnify" viewBox="0 0 1080 607.499987" height="810" preserveAspectRatio="xMidYMid meet" version="1.2"><defs><clipPath id="9395428cff"><path d="M 273.273438 30.464844 L 449.378906 30.464844 L 449.378906 131.632812 L 273.273438 131.632812 Z M 273.273438 30.464844 "/></clipPath></defs><g id="b0a8881b5f"><path style=" stroke:none;fill-rule:nonzero;fill:#f2a87d;fill-opacity:1;" d="M 360.332031 191.785156 C 359.855469 190.695312 357.914062 189.191406 356.792969 189 C 356.753906 188.9375 356.707031 188.886719 356.65625 188.835938 C 357.527344 186.191406 358.738281 184.203125 356.988281 181.8125 C 355.226562 179.398438 350.105469 178.757812 341.996094 188.867188 C 340.429688 190.820312 335.054688 197.417969 333.867188 198.683594 C 332.9375 199.664062 329.539062 198 329.542969 196.652344 C 329.550781 191.777344 328.222656 184.945312 324.914062 182.242188 C 323.476562 181.066406 321.65625 180.871094 320.109375 181.960938 C 317.988281 183.453125 317.773438 186.214844 317.488281 188.574219 C 316.535156 196.484375 317.261719 202.53125 317.261719 211.789062 C 317.261719 214.445312 314.46875 222.179688 311.582031 229.480469 C 310.769531 231.535156 310.433594 233.652344 310.523438 235.714844 L 309.042969 235.429688 C 305.933594 234.828125 302.867188 236.667969 301.933594 239.699219 L 301.042969 242.597656 C 301.042969 242.597656 300.949219 242.414062 300.78125 242.09375 C 300.726562 241.964844 300.675781 241.835938 300.621094 241.707031 C 300.574219 241.59375 300.507812 241.515625 300.441406 241.449219 C 298.8125 238.363281 294.273438 229.910156 291.695312 226.726562 C 281.003906 213.542969 267.292969 207.179688 252.472656 203.792969 C 252.09375 203.707031 251.707031 203.632812 251.328125 203.550781 C 251.40625 203.566406 251.488281 203.582031 251.570312 203.601562 C 257.058594 199.113281 260.09375 191.925781 258.898438 184.421875 C 258.039062 179.023438 255.140625 174.472656 251.132812 171.378906 C 251.289062 171.164062 251.367188 170.894531 251.3125 170.613281 C 251.238281 170.210938 250.929688 169.917969 250.558594 169.835938 C 250.3125 168.695312 250.082031 167.566406 249.914062 166.464844 C 249.914062 166.464844 252.910156 160.652344 252.265625 158.902344 C 252.023438 158.242188 251.082031 157.597656 249.933594 156.980469 C 250.011719 155.636719 250.023438 154.28125 249.96875 152.90625 C 249.042969 130.652344 230.25 113.355469 207.988281 114.28125 C 185.730469 115.210938 168.4375 134.003906 169.363281 156.265625 C 169.589844 161.65625 170.871094 166.753906 172.988281 171.375 C 161.765625 175.890625 154.734375 187.6875 156.71875 200.136719 C 157.738281 206.546875 160.976562 212.046875 165.519531 215.988281 C 164.738281 216.644531 163.96875 217.320312 163.226562 218.027344 C 161.097656 220.054688 159.304688 222.289062 157.75 224.667969 C 152.875 232.128906 150.328125 241.019531 147.140625 249.414062 C 141.78125 263.519531 136.902344 277.914062 133.46875 292.621094 C 131.410156 301.457031 127.136719 316.003906 132.402344 324.519531 C 145.214844 345.253906 168.601562 334.089844 168.601562 334.089844 L 169.019531 332.03125 C 169.125 332.117188 169.25 332.171875 169.410156 332.195312 L 146.757812 467.386719 C 145.917969 472.394531 149.15625 477.167969 154.117188 478.261719 C 160.402344 479.644531 170.183594 480.789062 183.695312 479.621094 C 183.074219 497.210938 182.429688 523.058594 183.03125 542.820312 C 182.417969 542.625 181.757812 543.066406 181.757812 543.746094 C 181.738281 548.96875 181.925781 564.832031 184.726562 570.964844 C 188.101562 578.347656 209.203125 575.183594 209.203125 575.183594 C 208.992188 588.6875 218.488281 587.84375 237.476562 586.15625 C 256.46875 584.46875 280.523438 579.824219 279.890625 574.339844 C 279.257812 568.855469 261.320312 563.578125 261.320312 563.578125 L 261.320312 547.597656 C 261.320312 547.003906 260.808594 546.566406 260.261719 546.613281 L 262.738281 478.175781 C 263.96875 478.199219 265.222656 478.21875 266.523438 478.21875 C 289.550781 478.21875 298.835938 480.964844 306.269531 473.382812 C 308.507812 471.09375 309.351562 467.777344 308.621094 464.660156 L 277.410156 331.664062 C 277.8125 331.25 277.695312 330.433594 277.078125 330.25 L 274.746094 320.320312 C 274.875 320.519531 275.058594 320.636719 275.265625 320.679688 C 276.90625 323.496094 281.601562 330.207031 291.910156 336.296875 C 309.847656 346.898438 333.734375 330.757812 339.011719 303.878906 C 345.742188 269.621094 349.417969 265.074219 347.828125 250.699219 C 347.320312 246.105469 343.964844 242.367188 339.5 241.324219 C 339.730469 240.8125 339.945312 240.289062 340.121094 239.742188 C 342.875 231.25 346.074219 221.765625 347.195312 219.917969 C 349.105469 216.769531 351.929688 214.011719 354.191406 211.101562 C 355.960938 208.824219 359.269531 205.753906 359.46875 202.671875 C 359.519531 201.882812 359.191406 201 358.632812 200.492188 C 360.105469 197.949219 361.503906 194.445312 360.332031 191.785156 Z M 250.933594 171.578125 C 250.933594 171.585938 250.9375 171.589844 250.9375 171.597656 C 250.9375 171.589844 250.933594 171.585938 250.933594 171.578125 Z M 273.558594 319.449219 L 273.558594 319.324219 L 274.351562 319.3125 C 274.363281 319.355469 274.378906 319.398438 274.394531 319.4375 Z M 273.558594 319.449219 "/><path style=" stroke:none;fill-rule:nonzero;fill:#f2a87d;fill-opacity:1;" d="M 282.886719 185.40625 C 282.3125 186.582031 284.074219 187.617188 284.648438 186.4375 C 288.453125 178.640625 289.410156 169.578125 287.050781 161.203125 C 284.890625 153.527344 280.097656 146.804688 273.679688 142.105469 C 272.621094 141.328125 271.601562 143.097656 272.652344 143.867188 C 285.5625 153.320312 289.902344 171.027344 282.886719 185.40625 Z M 282.886719 185.40625 "/><path style=" stroke:none;fill-rule:nonzero;fill:#f2a87d;fill-opacity:1;" d="M 300.59375 176.925781 C 300.066406 181.996094 298.683594 186.980469 296.550781 191.605469 C 296.007812 192.789062 297.765625 193.828125 298.316406 192.636719 C 305.933594 176.085938 303.785156 156.449219 292.601562 142.050781 C 289.679688 138.289062 286.230469 135.007812 282.363281 132.234375 C 281.296875 131.46875 280.273438 133.238281 281.332031 133.996094 C 294.914062 143.746094 302.328125 160.308594 300.59375 176.925781 Z M 300.59375 176.925781 "/><path style=" stroke:none;fill-rule:nonzero;fill:#f2a87d;fill-opacity:1;" d="M 271.148438 180.175781 C 270.628906 181.367188 272.386719 182.40625 272.910156 181.203125 C 276.730469 172.433594 275.203125 161.976562 268.984375 154.691406 C 268.128906 153.691406 266.691406 155.144531 267.539062 156.136719 C 273.105469 162.65625 274.574219 172.304688 271.148438 180.175781 Z M 271.148438 180.175781 "/><path style=" stroke:none;fill-rule:nonzero;fill:#f2a87d;fill-opacity:1;" d="M 263.792969 167.632812 C 263.804688 167.65625 263.882812 167.824219 263.902344 167.863281 C 263.980469 168.054688 264.050781 168.25 264.109375 168.445312 C 264.175781 168.65625 264.230469 168.871094 264.273438 169.085938 C 264.296875 169.1875 264.3125 169.289062 264.328125 169.390625 C 264.332031 169.40625 264.355469 169.582031 264.359375 169.613281 C 264.398438 170.070312 264.398438 170.527344 264.355469 170.984375 C 264.351562 171.027344 264.347656 171.070312 264.339844 171.113281 C 264.339844 171.125 264.335938 171.136719 264.332031 171.183594 C 264.3125 171.277344 264.296875 171.371094 264.277344 171.464844 C 264.226562 171.710938 264.160156 171.953125 264.082031 172.195312 C 263.921875 172.703125 264.273438 173.332031 264.796875 173.449219 C 265.355469 173.578125 265.878906 173.285156 266.050781 172.738281 C 266.734375 170.601562 266.46875 168.222656 265.378906 166.265625 C 265.121094 165.800781 264.441406 165.605469 263.984375 165.902344 C 263.511719 166.207031 263.339844 166.796875 263.617188 167.296875 C 263.675781 167.40625 263.738281 167.519531 263.792969 167.632812 Z M 263.792969 167.632812 "/><path style=" stroke:none;fill-rule:nonzero;fill:#f2a87d;fill-opacity:1;" d="M 311.582031 229.480469 C 308.324219 237.710938 312.773438 246.972656 321.234375 249.570312 C 329.160156 252 337.5625 247.625 340.117188 239.742188 C 342.875 231.25 346.070312 221.765625 347.195312 219.917969 C 349.105469 216.769531 351.929688 214.011719 354.191406 211.097656 C 355.960938 208.820312 359.269531 205.753906 359.46875 202.671875 C 359.519531 201.878906 359.1875 201 358.632812 200.488281 C 360.105469 197.949219 361.5 194.445312 360.332031 191.78125 C 359.832031 190.636719 357.699219 189.011719 356.613281 188.960938 C 357.488281 186.253906 358.765625 184.242188 356.992188 181.808594 C 355.230469 179.398438 350.105469 178.753906 341.996094 188.867188 C 340.429688 190.816406 335.054688 197.417969 333.867188 198.679688 C 332.941406 199.660156 329.539062 198 329.542969 196.648438 C 329.550781 191.773438 328.222656 184.945312 324.914062 182.238281 C 323.476562 181.066406 321.660156 180.867188 320.113281 181.957031 C 317.992188 183.453125 317.773438 186.214844 317.492188 188.570312 C 316.539062 196.480469 317.261719 202.53125 317.261719 211.785156 C 317.261719 214.445312 314.472656 222.179688 311.582031 229.480469 Z M 263.546875 455.753906 L 259.59375 565.089844 C 259.59375 565.089844 279.355469 569.699219 278.695312 575.625 C 278.035156 581.554688 233.910156 585.503906 220.734375 584.847656 C 207.5625 584.1875 210.855469 573.648438 210.855469 573.648438 C 210.855469 573.648438 195.050781 576.285156 187.144531 571.015625 C 179.242188 565.746094 184.511719 459.707031 184.511719 459.707031 Z M 249.914062 166.464844 C 251.40625 176.167969 257.730469 188.097656 235.207031 191.5 L 232.417969 210.105469 L 205.695312 209.527344 C 206.617188 207.980469 207.386719 206.335938 207.980469 204.621094 C 208.257812 204.589844 208.535156 204.574219 208.8125 204.53125 C 220.039062 202.746094 227.695312 192.195312 225.90625 180.964844 C 225.210938 176.601562 223.191406 172.785156 220.320312 169.847656 C 216.355469 171.097656 212.070312 169.023438 210.636719 165.078125 C 209.160156 161.023438 211.25 156.535156 215.304688 155.058594 C 216.96875 154.457031 218.699219 154.457031 220.269531 154.941406 C 224.765625 150.441406 227.125 143.933594 226.050781 137.167969 C 225.5625 134.097656 224.398438 131.308594 222.765625 128.890625 C 231.707031 127.875 239.683594 133.765625 242.328125 143.785156 C 243.414062 147.886719 242.976562 151.792969 244.445312 153.882812 C 245.476562 155.347656 251.589844 157.054688 252.269531 158.902344 C 252.914062 160.65625 249.914062 166.464844 249.914062 166.464844 Z M 249.914062 166.464844 "/><path style=" stroke:none;fill-rule:nonzero;fill:#f5c46a;fill-opacity:1;" d="M 274.539062 319.4375 L 308.621094 464.660156 C 309.351562 467.777344 308.511719 471.097656 306.269531 473.382812 C 298.835938 480.96875 289.550781 478.21875 266.523438 478.21875 C 239.914062 478.21875 228.902344 472.714844 194.953125 478.21875 C 175.472656 481.378906 162.035156 480.003906 154.121094 478.261719 C 149.15625 477.167969 145.921875 472.394531 146.761719 467.386719 L 171.347656 320.621094 Z M 274.539062 319.4375 "/><path style=" stroke:none;fill-rule:nonzero;fill:#e67e22;fill-opacity:1;" d="M 339.011719 303.878906 C 333.730469 330.757812 309.847656 346.898438 291.910156 336.300781 C 278.453125 328.347656 274.539062 319.3125 274.539062 319.3125 L 171.347656 320.621094 L 168.601562 334.089844 C 168.601562 334.089844 145.214844 345.253906 132.402344 324.519531 C 127.136719 316.003906 131.410156 301.457031 133.46875 292.621094 C 136.902344 277.914062 141.78125 263.523438 147.140625 249.414062 C 150.328125 241.019531 152.875 232.128906 157.75 224.667969 C 159.304688 222.289062 161.097656 220.054688 163.226562 218.027344 C 163.96875 217.320312 164.738281 216.644531 165.519531 215.988281 C 171.234375 220.945312 179.019531 223.441406 187.078125 222.160156 C 195.164062 220.871094 201.808594 216.054688 205.695312 209.527344 C 205.800781 209.347656 205.898438 209.164062 206.003906 208.980469 C 206.160156 208.699219 206.316406 208.417969 206.464844 208.132812 C 206.566406 207.9375 206.664062 207.734375 206.761719 207.535156 C 206.910156 207.234375 207.050781 206.925781 207.1875 206.617188 C 207.265625 206.445312 207.339844 206.273438 207.410156 206.101562 C 207.613281 205.613281 207.808594 205.125 207.980469 204.621094 C 208.257812 204.589844 208.53125 204.578125 208.808594 204.535156 C 212.460938 203.953125 215.726562 202.441406 218.414062 200.28125 C 230.035156 200.128906 241.800781 201.355469 252.46875 203.796875 C 267.289062 207.183594 281.003906 213.546875 291.695312 226.730469 C 294.875 230.65625 301.039062 242.597656 301.039062 242.597656 L 301.929688 239.703125 C 302.863281 236.671875 305.929688 234.832031 309.042969 235.433594 L 339.027344 241.21875 C 343.726562 242.101562 347.300781 245.949219 347.824219 250.699219 C 349.417969 265.074219 345.742188 269.625 339.011719 303.878906 Z M 181.757812 543.746094 C 181.742188 548.964844 181.925781 564.832031 184.730469 570.960938 C 188.105469 578.347656 209.207031 575.183594 209.207031 575.183594 C 208.996094 588.6875 218.492188 587.84375 237.480469 586.152344 C 256.472656 584.464844 280.523438 579.824219 279.890625 574.339844 C 279.257812 568.851562 261.324219 563.578125 261.324219 563.578125 L 261.324219 547.597656 C 261.324219 546.898438 260.613281 546.40625 259.972656 546.679688 C 242.132812 554.296875 213.847656 546.273438 213.847656 546.273438 C 200.664062 551.304688 187.484375 545.210938 183.207031 542.882812 C 182.554688 542.527344 181.761719 543 181.757812 543.746094 Z M 225.113281 136.4375 C 221.324219 134.457031 217.09375 133.792969 212.875 134.425781 C 211.996094 134.554688 211.511719 135.664062 211.726562 136.445312 C 211.984375 137.386719 212.867188 137.726562 213.75 137.597656 C 215.144531 137.386719 217.199219 137.410156 218.601562 137.65625 C 220.355469 137.960938 221.957031 138.496094 223.453125 139.277344 C 224.242188 139.6875 225.242188 139.480469 225.703125 138.6875 C 226.136719 137.949219 225.90625 136.851562 225.113281 136.4375 Z M 225.113281 136.4375 "/><path style=" stroke:none;fill-rule:nonzero;fill:#2c3242;fill-opacity:1;" d="M 238.292969 153.117188 C 238.488281 154.46875 237.835938 155.679688 236.835938 155.828125 C 235.835938 155.972656 234.867188 154.992188 234.667969 153.644531 C 234.472656 152.292969 235.125 151.078125 236.128906 150.933594 C 237.128906 150.789062 238.097656 151.765625 238.292969 153.117188 Z M 239.292969 147.074219 C 239.378906 146.535156 239.015625 146.03125 238.476562 145.941406 C 230.71875 144.675781 227.570312 149.679688 227.4375 149.894531 C 227.15625 150.355469 227.304688 150.957031 227.765625 151.242188 C 227.925781 151.339844 228.101562 151.386719 228.277344 151.386719 C 228.609375 151.386719 228.929688 151.222656 229.117188 150.921875 C 229.222656 150.757812 231.746094 146.84375 238.164062 147.886719 C 238.695312 147.96875 239.203125 147.609375 239.292969 147.074219 Z M 217.8125 158.957031 C 218.257812 158.644531 218.367188 158.03125 218.054688 157.585938 C 217.742188 157.140625 217.128906 157.03125 216.683594 157.34375 C 216.574219 157.417969 214.046875 159.21875 213.871094 162.003906 C 213.757812 163.746094 214.574219 165.421875 216.292969 166.984375 C 216.480469 167.15625 216.71875 167.238281 216.953125 167.238281 C 217.222656 167.238281 217.488281 167.128906 217.683594 166.914062 C 218.046875 166.511719 218.019531 165.890625 217.617188 165.523438 C 216.367188 164.390625 215.765625 163.25 215.832031 162.136719 C 215.941406 160.3125 217.78125 158.980469 217.8125 158.957031 Z M 240.566406 171.652344 L 250.167969 169.828125 C 250.695312 169.726562 251.214844 170.078125 251.316406 170.613281 C 251.371094 170.894531 251.292969 171.167969 251.132812 171.378906 C 255.144531 174.476562 258.042969 179.027344 258.902344 184.421875 C 260.097656 191.925781 257.058594 199.113281 251.570312 203.601562 C 245.882812 202.34375 239.902344 201.421875 233.804688 200.871094 L 235.207031 191.5 C 250.011719 189.265625 252.351562 183.347656 251.796875 176.796875 C 250.675781 177.117188 249.613281 177.261719 248.628906 177.261719 C 243.28125 177.265625 240.019531 173.285156 239.980469 173.234375 C 239.765625 172.964844 239.707031 172.601562 239.824219 172.277344 C 239.945312 171.953125 240.226562 171.71875 240.566406 171.652344 Z M 242.808594 173.230469 C 244.417969 174.492188 247.457031 176.109375 251.53125 174.828125 C 251.535156 174.828125 251.542969 174.828125 251.550781 174.828125 C 251.382812 173.75 251.164062 172.660156 250.933594 171.578125 C 250.816406 171.664062 250.6875 171.734375 250.535156 171.761719 Z M 251.917969 252.6875 C 251.53125 251.675781 249.886719 252.113281 250.277344 253.140625 C 256.878906 270.371094 263.253906 287.6875 269.390625 305.085938 C 271.15625 310.09375 272.90625 315.109375 274.632812 320.128906 C 274.988281 321.160156 276.632812 320.71875 276.273438 319.679688 C 270.265625 302.230469 264.03125 284.863281 257.5625 267.585938 C 255.703125 262.609375 253.820312 257.644531 251.917969 252.6875 Z M 178.746094 254.765625 C 175.953125 270.960938 173.753906 287.214844 171.996094 303.554688 C 171.421875 308.894531 170.863281 314.238281 170.304688 319.582031 C 170.191406 320.671875 171.894531 320.664062 172.007812 319.582031 C 173.730469 303.144531 175.40625 286.699219 177.90625 270.355469 C 178.683594 265.300781 179.515625 260.257812 180.386719 255.21875 C 180.570312 254.148438 178.929688 253.6875 178.746094 254.765625 Z M 212.765625 547.855469 C 211.707031 557.148438 210.644531 566.4375 209.585938 575.730469 C 209.460938 576.816406 211.164062 576.808594 211.289062 575.730469 C 212.347656 566.4375 213.40625 557.144531 214.46875 547.855469 C 214.59375 546.769531 212.890625 546.777344 212.765625 547.855469 Z M 214.894531 477.804688 C 214.894531 497.777344 214.894531 517.753906 214.894531 537.730469 C 214.894531 538.824219 216.597656 538.824219 216.597656 537.730469 C 216.597656 517.753906 216.597656 497.777344 216.597656 477.804688 C 216.597656 476.710938 214.894531 476.707031 214.894531 477.804688 Z M 276.832031 330.203125 C 273.722656 330.203125 270.613281 330.210938 267.503906 330.214844 C 266.628906 326.523438 265.753906 322.832031 264.878906 319.140625 C 264.625 318.078125 262.984375 318.527344 263.238281 319.59375 C 264.074219 323.136719 264.914062 326.675781 265.753906 330.21875 C 259.277344 330.230469 252.796875 330.246094 246.320312 330.269531 C 246.34375 330.140625 246.351562 330.007812 246.332031 329.875 C 245.78125 326.621094 245.273438 323.363281 244.8125 320.097656 C 244.746094 319.644531 244.167969 319.394531 243.765625 319.503906 C 243.273438 319.640625 243.105469 320.09375 243.167969 320.550781 C 243.628906 323.800781 244.132812 327.042969 244.679688 330.273438 C 237.957031 330.300781 231.230469 330.324219 224.507812 330.355469 C 224.507812 326.894531 224.507812 323.433594 224.507812 319.976562 C 224.507812 318.878906 222.804688 318.878906 222.804688 319.976562 C 222.804688 323.4375 222.804688 326.898438 222.804688 330.363281 C 216.871094 330.386719 210.9375 330.410156 205 330.433594 C 205.585938 327.023438 206.265625 323.628906 206.753906 320.199219 C 206.816406 319.746094 206.640625 319.285156 206.160156 319.152344 C 205.761719 319.042969 205.179688 319.292969 205.113281 319.75 C 204.613281 323.246094 203.914062 326.707031 203.324219 330.191406 C 203.308594 330.273438 203.3125 330.359375 203.320312 330.441406 C 199.886719 330.453125 196.453125 330.46875 193.019531 330.480469 C 189.980469 330.488281 186.9375 330.488281 183.898438 330.496094 C 184.652344 327.1875 185.238281 323.851562 185.863281 320.519531 C 186.066406 319.449219 184.425781 318.988281 184.222656 320.066406 C 183.570312 323.550781 182.960938 327.042969 182.15625 330.496094 C 177.949219 330.503906 173.742188 330.515625 169.535156 330.515625 C 168.441406 330.515625 168.441406 332.21875 169.535156 332.21875 C 197.472656 332.21875 225.410156 332.027344 253.347656 331.941406 C 261.175781 331.917969 269.003906 331.902344 276.832031 331.902344 C 277.925781 331.902344 277.929688 330.203125 276.832031 330.203125 Z M 267.390625 218.042969 C 266.5 217.402344 265.648438 218.875 266.53125 219.511719 C 275.074219 225.652344 281.664062 234.328125 285.292969 244.203125 C 285.667969 245.222656 287.3125 244.78125 286.933594 243.75 C 283.140625 233.429688 276.320312 224.460938 267.390625 218.042969 Z M 173.753906 375.449219 C 170.210938 394.023438 166.664062 412.601562 163.121094 431.175781 C 162.914062 432.246094 164.554688 432.707031 164.761719 431.628906 C 168.304688 413.054688 171.851562 394.476562 175.394531 375.902344 C 175.597656 374.832031 173.960938 374.371094 173.753906 375.449219 Z M 177 398.886719 C 176.382812 401.632812 175.769531 404.378906 175.15625 407.128906 C 174.914062 408.195312 176.554688 408.648438 176.796875 407.578125 C 177.410156 404.832031 178.023438 402.085938 178.640625 399.339844 C 178.878906 398.273438 177.238281 397.816406 177 398.886719 Z M 263.792969 167.632812 C 263.804688 167.65625 263.882812 167.824219 263.902344 167.863281 C 263.980469 168.054688 264.050781 168.25 264.109375 168.445312 C 264.175781 168.65625 264.230469 168.871094 264.273438 169.085938 C 264.296875 169.1875 264.3125 169.289062 264.328125 169.390625 C 264.332031 169.40625 264.355469 169.582031 264.359375 169.613281 C 264.398438 170.070312 264.398438 170.527344 264.355469 170.984375 C 264.351562 171.027344 264.347656 171.070312 264.339844 171.113281 C 264.339844 171.125 264.335938 171.136719 264.332031 171.183594 C 264.3125 171.277344 264.296875 171.371094 264.277344 171.464844 C 264.226562 171.710938 264.160156 171.953125 264.082031 172.195312 C 263.921875 172.703125 264.273438 173.332031 264.796875 173.449219 C 265.355469 173.578125 265.878906 173.285156 266.050781 172.738281 C 266.734375 170.601562 266.46875 168.222656 265.378906 166.265625 C 265.121094 165.800781 264.441406 165.605469 263.984375 165.902344 C 263.511719 166.207031 263.339844 166.796875 263.617188 167.296875 C 263.675781 167.40625 263.738281 167.519531 263.792969 167.632812 Z M 271.148438 180.175781 C 270.628906 181.367188 272.386719 182.40625 272.910156 181.203125 C 276.730469 172.433594 275.203125 161.976562 268.984375 154.691406 C 268.128906 153.691406 266.691406 155.144531 267.539062 156.136719 C 273.105469 162.65625 274.574219 172.304688 271.148438 180.175781 Z M 273.683594 142.105469 C 272.621094 141.328125 271.601562 143.097656 272.652344 143.867188 C 285.5625 153.320312 289.902344 171.027344 282.886719 185.40625 C 282.3125 186.582031 284.074219 187.617188 284.648438 186.4375 C 288.453125 178.640625 289.410156 169.578125 287.050781 161.203125 C 284.890625 153.527344 280.097656 146.804688 273.683594 142.105469 Z M 292.601562 142.050781 C 289.679688 138.289062 286.230469 135.007812 282.363281 132.234375 C 281.296875 131.46875 280.273438 133.238281 281.332031 133.996094 C 294.917969 143.746094 302.328125 160.304688 300.59375 176.925781 C 300.066406 181.996094 298.683594 186.980469 296.550781 191.605469 C 296.007812 192.789062 297.765625 193.828125 298.316406 192.636719 C 305.929688 176.085938 303.78125 156.449219 292.601562 142.050781 Z M 300.621094 241.707031 C 300.195312 240.703125 298.730469 241.566406 299.152344 242.566406 C 304.871094 256.09375 309.734375 269.972656 313.742188 284.101562 C 314.042969 285.152344 315.683594 284.707031 315.382812 283.648438 C 311.332031 269.375 306.398438 255.375 300.621094 241.707031 Z M 156.71875 200.136719 C 154.734375 187.6875 161.765625 175.886719 172.988281 171.375 C 170.871094 166.753906 169.589844 161.65625 169.363281 156.261719 C 168.4375 134.003906 185.730469 115.210938 207.988281 114.28125 C 230.25 113.355469 249.042969 130.648438 249.96875 152.90625 C 250.027344 154.28125 250.011719 155.636719 249.933594 156.980469 C 247.863281 155.867188 245.105469 154.824219 244.445312 153.882812 C 242.976562 151.789062 243.410156 147.886719 242.324219 143.78125 C 239.679688 133.765625 231.707031 127.875 222.761719 128.890625 C 223.175781 129.5 223.558594 130.136719 223.90625 130.792969 C 224.046875 131.054688 224.179688 131.324219 224.308594 131.59375 C 224.507812 132.007812 224.691406 132.429688 224.863281 132.859375 C 224.921875 133.007812 224.976562 133.160156 225.03125 133.308594 C 225.261719 133.9375 225.464844 134.578125 225.636719 135.238281 C 225.644531 135.261719 225.648438 135.285156 225.65625 135.308594 C 225.808594 135.917969 225.945312 136.53125 226.046875 137.164062 C 226.148438 137.792969 226.207031 138.421875 226.25 139.046875 C 226.257812 139.140625 226.261719 139.234375 226.269531 139.328125 C 226.300781 139.949219 226.308594 140.566406 226.285156 141.175781 C 226.28125 141.308594 226.269531 141.4375 226.261719 141.566406 C 226.195312 142.746094 226.027344 143.90625 225.765625 145.035156 C 225.726562 145.207031 225.6875 145.378906 225.644531 145.546875 C 225.367188 146.613281 225.003906 147.644531 224.566406 148.640625 C 224.429688 148.949219 224.285156 149.257812 224.132812 149.5625 C 223.988281 149.847656 223.84375 150.125 223.691406 150.402344 C 223.558594 150.636719 223.425781 150.867188 223.285156 151.097656 C 223.125 151.359375 222.957031 151.617188 222.785156 151.871094 C 222.78125 151.875 222.777344 151.882812 222.773438 151.886719 C 222.515625 152.265625 222.25 152.636719 221.96875 153 C 221.441406 153.675781 220.875 154.328125 220.269531 154.9375 C 220.195312 154.914062 220.113281 154.90625 220.039062 154.886719 C 219.71875 154.796875 219.394531 154.714844 219.0625 154.664062 C 218.996094 154.65625 218.929688 154.660156 218.863281 154.652344 C 218.519531 154.613281 218.171875 154.582031 217.820312 154.589844 C 217.726562 154.589844 217.636719 154.609375 217.546875 154.617188 C 217.21875 154.632812 216.886719 154.652344 216.558594 154.714844 C 216.136719 154.792969 215.71875 154.90625 215.300781 155.054688 C 215.015625 155.160156 214.738281 155.285156 214.472656 155.417969 C 214.390625 155.460938 214.308594 155.507812 214.230469 155.550781 C 214.046875 155.652344 213.867188 155.757812 213.691406 155.871094 C 213.609375 155.925781 213.527344 155.980469 213.449219 156.035156 C 213.277344 156.160156 213.113281 156.285156 212.957031 156.417969 C 212.890625 156.472656 212.828125 156.527344 212.765625 156.582031 C 212.558594 156.765625 212.359375 156.960938 212.175781 157.164062 C 212.167969 157.171875 212.164062 157.175781 212.15625 157.183594 C 211.953125 157.40625 211.769531 157.644531 211.597656 157.886719 C 211.574219 157.917969 211.554688 157.953125 211.535156 157.984375 C 211.390625 158.195312 211.257812 158.410156 211.136719 158.632812 C 211.109375 158.683594 211.078125 158.742188 211.050781 158.796875 C 210.941406 159.007812 210.839844 159.226562 210.75 159.449219 C 210.730469 159.5 210.707031 159.546875 210.6875 159.597656 C 210.582031 159.867188 210.492188 160.140625 210.417969 160.417969 C 210.101562 161.621094 210.070312 162.90625 210.371094 164.175781 C 210.441406 164.476562 210.523438 164.777344 210.632812 165.074219 C 210.8125 165.566406 211.035156 166.027344 211.296875 166.460938 C 211.351562 166.550781 211.414062 166.632812 211.472656 166.722656 C 211.554688 166.84375 211.632812 166.96875 211.71875 167.085938 C 211.828125 167.230469 211.945312 167.363281 212.0625 167.5 C 212.105469 167.550781 212.148438 167.605469 212.195312 167.65625 C 212.308594 167.78125 212.429688 167.894531 212.550781 168.011719 C 212.605469 168.066406 212.660156 168.125 212.714844 168.179688 C 212.808594 168.261719 212.90625 168.335938 213 168.414062 C 213.097656 168.488281 213.1875 168.570312 213.285156 168.644531 C 213.445312 168.765625 213.613281 168.875 213.78125 168.984375 C 213.816406 169.007812 213.851562 169.03125 213.886719 169.054688 C 214.085938 169.175781 214.292969 169.289062 214.5 169.390625 C 214.507812 169.394531 214.515625 169.402344 214.523438 169.40625 C 214.699219 169.492188 214.878906 169.566406 215.058594 169.636719 C 215.105469 169.65625 215.148438 169.675781 215.195312 169.695312 C 216.101562 170.039062 217.070312 170.21875 218.0625 170.203125 C 218.0625 170.203125 218.066406 170.203125 218.070312 170.203125 C 218.804688 170.195312 219.546875 170.078125 220.28125 169.851562 C 220.292969 169.847656 220.304688 169.847656 220.320312 169.84375 C 220.335938 169.859375 220.347656 169.878906 220.367188 169.894531 C 220.46875 170 220.566406 170.113281 220.664062 170.222656 C 220.972656 170.554688 221.269531 170.894531 221.554688 171.242188 C 221.554688 171.242188 221.558594 171.246094 221.558594 171.246094 C 221.695312 171.417969 221.832031 171.59375 221.964844 171.769531 C 222.214844 172.09375 222.453125 172.429688 222.679688 172.769531 C 222.730469 172.847656 222.78125 172.929688 222.835938 173.007812 C 224.355469 175.34375 225.4375 178.023438 225.902344 180.957031 C 226 181.574219 226.058594 182.1875 226.101562 182.800781 C 226.113281 182.992188 226.121094 183.1875 226.128906 183.378906 C 226.148438 183.8125 226.148438 184.246094 226.140625 184.675781 C 226.136719 184.875 226.136719 185.078125 226.128906 185.277344 C 226.101562 185.789062 226.050781 186.292969 225.984375 186.792969 C 225.941406 187.140625 225.882812 187.480469 225.820312 187.820312 C 225.789062 187.996094 225.753906 188.167969 225.71875 188.34375 C 225.453125 189.625 225.070312 190.867188 224.574219 192.0625 C 221.921875 198.449219 216.136719 203.359375 208.808594 204.527344 C 208.53125 204.570312 208.257812 204.582031 207.980469 204.613281 C 207.808594 205.113281 207.613281 205.605469 207.414062 206.09375 C 207.339844 206.265625 207.265625 206.4375 207.1875 206.609375 C 207.050781 206.917969 206.910156 207.226562 206.761719 207.527344 C 206.664062 207.726562 206.566406 207.929688 206.464844 208.125 C 206.316406 208.414062 206.160156 208.691406 206.003906 208.972656 C 205.898438 209.15625 205.800781 209.339844 205.695312 209.519531 C 201.808594 216.046875 195.164062 220.867188 187.078125 222.152344 C 172.613281 224.460938 159.019531 214.601562 156.71875 200.136719 Z M 211.726562 136.445312 C 211.984375 137.386719 212.867188 137.726562 213.75 137.597656 C 215.144531 137.386719 217.199219 137.410156 218.605469 137.65625 C 220.359375 137.960938 221.960938 138.496094 223.457031 139.277344 C 224.242188 139.6875 225.242188 139.480469 225.703125 138.6875 C 226.136719 137.949219 225.902344 136.851562 225.113281 136.4375 C 221.324219 134.457031 217.09375 133.792969 212.875 134.425781 C 211.996094 134.554688 211.511719 135.664062 211.726562 136.445312 Z M 355.734375 188.78125 C 349.601562 193.503906 343.796875 198.621094 338.367188 204.140625 C 337.601562 204.921875 338.804688 206.125 339.570312 205.339844 C 344.894531 199.929688 350.578125 194.878906 356.59375 190.25 C 357.449219 189.59375 356.601562 188.117188 355.734375 188.78125 Z M 356.777344 199.914062 C 353.308594 202.972656 349.839844 206.027344 346.375 209.085938 C 345.550781 209.8125 346.757812 211.011719 347.578125 210.289062 C 351.046875 207.234375 354.511719 204.175781 357.980469 201.117188 C 358.800781 200.390625 357.59375 199.191406 356.777344 199.914062 Z M 356.777344 199.914062 "/><g clip-rule="nonzero" clip-path="url(#9395428cff)"><path style=" stroke:none;fill-rule:nonzero;fill:#e67e22;fill-opacity:1;" d="M 424.234375 30.464844 L 298.488281 30.464844 C 297.667969 30.464844 296.84375 30.503906 296.027344 30.585938 C 295.207031 30.667969 294.390625 30.785156 293.585938 30.949219 C 292.777344 31.109375 291.980469 31.308594 291.191406 31.546875 C 290.402344 31.785156 289.628906 32.0625 288.867188 32.378906 C 288.105469 32.695312 287.363281 33.046875 286.636719 33.433594 C 285.910156 33.820312 285.203125 34.246094 284.519531 34.703125 C 283.835938 35.160156 283.175781 35.648438 282.539062 36.171875 C 281.902344 36.695312 281.292969 37.246094 280.710938 37.828125 C 280.128906 38.410156 279.574219 39.019531 279.050781 39.65625 C 278.53125 40.292969 278.039062 40.953125 277.582031 41.640625 C 277.125 42.324219 276.703125 43.03125 276.3125 43.757812 C 275.925781 44.484375 275.574219 45.226562 275.257812 45.988281 C 274.945312 46.746094 274.667969 47.523438 274.425781 48.308594 C 274.1875 49.097656 273.988281 49.894531 273.828125 50.703125 C 273.667969 51.511719 273.546875 52.324219 273.464844 53.144531 C 273.386719 53.964844 273.34375 54.785156 273.34375 55.609375 L 273.34375 82.859375 C 273.34375 83.683594 273.386719 84.503906 273.464844 85.324219 C 273.546875 86.144531 273.667969 86.957031 273.828125 87.765625 C 273.988281 88.574219 274.1875 89.371094 274.425781 90.160156 C 274.667969 90.949219 274.945312 91.722656 275.257812 92.484375 C 275.574219 93.242188 275.925781 93.988281 276.3125 94.714844 C 276.703125 95.441406 277.125 96.144531 277.582031 96.828125 C 278.039062 97.515625 278.53125 98.175781 279.050781 98.8125 C 279.574219 99.449219 280.128906 100.058594 280.710938 100.640625 C 281.292969 101.222656 281.902344 101.773438 282.539062 102.296875 C 283.175781 102.820312 283.835938 103.308594 284.519531 103.765625 C 285.203125 104.226562 285.910156 104.648438 286.636719 105.035156 C 287.363281 105.425781 288.105469 105.777344 288.867188 106.089844 C 289.628906 106.40625 290.402344 106.683594 291.191406 106.921875 C 291.980469 107.160156 292.777344 107.363281 293.585938 107.523438 C 294.390625 107.683594 295.207031 107.804688 296.027344 107.882812 C 296.84375 107.964844 297.667969 108.003906 298.488281 108.003906 L 306.039062 108.003906 C 307.75 114.613281 308.179688 123.410156 301.726562 131.234375 C 301.726562 131.234375 327.761719 125.480469 333.648438 108.003906 L 424.234375 108.003906 C 425.054688 108.003906 425.878906 107.964844 426.699219 107.882812 C 427.515625 107.804688 428.332031 107.683594 429.136719 107.523438 C 429.945312 107.363281 430.742188 107.160156 431.53125 106.921875 C 432.320312 106.683594 433.09375 106.40625 433.855469 106.089844 C 434.617188 105.777344 435.359375 105.425781 436.085938 105.035156 C 436.8125 104.648438 437.519531 104.226562 438.203125 103.765625 C 438.886719 103.308594 439.546875 102.820312 440.183594 102.296875 C 440.820312 101.773438 441.429688 101.222656 442.011719 100.640625 C 442.59375 100.058594 443.148438 99.449219 443.671875 98.8125 C 444.191406 98.175781 444.683594 97.515625 445.140625 96.828125 C 445.597656 96.144531 446.019531 95.441406 446.410156 94.714844 C 446.796875 93.988281 447.148438 93.242188 447.464844 92.484375 C 447.777344 91.722656 448.054688 90.949219 448.296875 90.160156 C 448.535156 89.371094 448.734375 88.574219 448.894531 87.765625 C 449.054688 86.957031 449.175781 86.144531 449.257812 85.324219 C 449.335938 84.503906 449.378906 83.683594 449.378906 82.859375 L 449.378906 55.609375 C 449.378906 54.785156 449.335938 53.964844 449.257812 53.144531 C 449.175781 52.324219 449.054688 51.511719 448.894531 50.703125 C 448.734375 49.894531 448.535156 49.097656 448.296875 48.308594 C 448.054688 47.523438 447.777344 46.746094 447.464844 45.988281 C 447.148438 45.226562 446.796875 44.484375 446.410156 43.757812 C 446.019531 43.03125 445.597656 42.324219 445.140625 41.640625 C 444.683594 40.953125 444.191406 40.292969 443.671875 39.65625 C 443.148438 39.019531 442.59375 38.410156 442.011719 37.828125 C 441.429688 37.246094 440.820312 36.695312 440.183594 36.171875 C 439.546875 35.648438 438.886719 35.160156 438.203125 34.703125 C 437.519531 34.246094 436.8125 33.820312 436.085938 33.433594 C 435.359375 33.046875 434.617188 32.695312 433.855469 32.378906 C 433.09375 32.0625 432.320312 31.785156 431.53125 31.546875 C 430.742188 31.308594 429.945312 31.109375 429.136719 30.949219 C 428.332031 30.785156 427.515625 30.667969 426.699219 30.585938 C 425.878906 30.503906 425.054688 30.464844 424.234375 30.464844 Z M 424.234375 30.464844 "/></g><g style="fill:#000000;fill-opacity:1;"><g transform="translate(289.268661, 75.561753)"><path style="stroke:none" d="M 3.78125 -14.234375 C 3.488281 -14.234375 3.210938 -14.304688 2.953125 -14.453125 C 2.703125 -14.609375 2.5 -14.8125 2.34375 -15.0625 C 2.195312 -15.320312 2.125 -15.597656 2.125 -15.890625 C 2.125 -16.191406 2.195312 -16.472656 2.34375 -16.734375 C 2.5 -16.992188 2.703125 -17.195312 2.953125 -17.34375 C 3.210938 -17.5 3.488281 -17.578125 3.78125 -17.578125 C 4.082031 -17.578125 4.359375 -17.5 4.609375 -17.34375 C 4.867188 -17.195312 5.078125 -16.992188 5.234375 -16.734375 C 5.390625 -16.472656 5.46875 -16.191406 5.46875 -15.890625 C 5.46875 -15.597656 5.390625 -15.320312 5.234375 -15.0625 C 5.078125 -14.8125 4.867188 -14.609375 4.609375 -14.453125 C 4.359375 -14.304688 4.082031 -14.234375 3.78125 -14.234375 Z M 0.625 0 L 0.625 -1.265625 L 2.796875 -1.265625 L 2.796875 -10.84375 L 0.59375 -10.84375 L 0.59375 -12.09375 L 5.21875 -12.09375 L 5.21875 -1.265625 L 7.4375 -1.265625 L 7.4375 0 Z M 0.625 0 "/></g><g transform="translate(296.767419, 75.561753)"><path style="stroke:none" d="M 4.0625 5.265625 C 3.375 5.265625 2.765625 5.15625 2.234375 4.9375 C 1.703125 4.726562 1.285156 4.429688 0.984375 4.046875 C 0.691406 3.671875 0.546875 3.238281 0.546875 2.75 C 0.546875 2.21875 0.71875 1.785156 1.0625 1.453125 C 1.414062 1.117188 1.890625 0.953125 2.484375 0.953125 C 2.941406 0.953125 3.289062 1.101562 3.53125 1.40625 C 3.78125 1.707031 3.90625 2.097656 3.90625 2.578125 C 3.90625 2.847656 3.816406 3.085938 3.640625 3.296875 C 3.472656 3.515625 3.242188 3.691406 2.953125 3.828125 C 3.265625 3.992188 3.515625 4.078125 3.703125 4.078125 C 4.378906 4.078125 4.941406 3.773438 5.390625 3.171875 C 5.835938 2.566406 6.179688 1.597656 6.421875 0.265625 L 1.9375 -10.84375 L -0.296875 -10.84375 L -0.296875 -12.09375 L 6.65625 -12.09375 L 6.65625 -10.84375 L 4.59375 -10.84375 L 7.875 -1.984375 L 10.671875 -10.84375 L 8.796875 -10.84375 L 8.796875 -12.09375 L 14.59375 -12.09375 L 14.59375 -10.84375 L 12.65625 -10.84375 L 8.765625 0.046875 C 8.328125 1.328125 7.875 2.347656 7.40625 3.109375 C 6.9375 3.867188 6.429688 4.414062 5.890625 4.75 C 5.347656 5.09375 4.738281 5.265625 4.0625 5.265625 Z M 4.0625 5.265625 "/></g><g transform="translate(311.201118, 75.561753)"><path style="stroke:none" d="M 3.78125 -14.234375 C 3.488281 -14.234375 3.210938 -14.304688 2.953125 -14.453125 C 2.703125 -14.609375 2.5 -14.8125 2.34375 -15.0625 C 2.195312 -15.320312 2.125 -15.597656 2.125 -15.890625 C 2.125 -16.191406 2.195312 -16.472656 2.34375 -16.734375 C 2.5 -16.992188 2.703125 -17.195312 2.953125 -17.34375 C 3.210938 -17.5 3.488281 -17.578125 3.78125 -17.578125 C 4.082031 -17.578125 4.359375 -17.5 4.609375 -17.34375 C 4.867188 -17.195312 5.078125 -16.992188 5.234375 -16.734375 C 5.390625 -16.472656 5.46875 -16.191406 5.46875 -15.890625 C 5.46875 -15.597656 5.390625 -15.320312 5.234375 -15.0625 C 5.078125 -14.8125 4.867188 -14.609375 4.609375 -14.453125 C 4.359375 -14.304688 4.082031 -14.234375 3.78125 -14.234375 Z M 0.625 0 L 0.625 -1.265625 L 2.796875 -1.265625 L 2.796875 -10.84375 L 0.59375 -10.84375 L 0.59375 -12.09375 L 5.21875 -12.09375 L 5.21875 -1.265625 L 7.4375 -1.265625 L 7.4375 0 Z M 0.625 0 "/></g><g transform="translate(318.699876, 75.561753)"><path style="stroke:none" d=""/></g><g transform="translate(324.112513, 75.561753)"><path style="stroke:none" d="M 4.015625 0.296875 C 3.398438 0.296875 2.851562 0.1875 2.375 -0.03125 C 1.90625 -0.25 1.535156 -0.566406 1.265625 -0.984375 C 1.003906 -1.410156 0.875 -1.90625 0.875 -2.46875 C 0.875 -2.914062 0.972656 -3.320312 1.171875 -3.6875 C 1.378906 -4.0625 1.65625 -4.378906 2 -4.640625 C 2.320312 -4.878906 2.695312 -5.113281 3.125 -5.34375 C 3.550781 -5.570312 3.988281 -5.769531 4.4375 -5.9375 C 5.332031 -6.257812 6.144531 -6.628906 6.875 -7.046875 C 7.21875 -7.253906 7.484375 -7.5 7.671875 -7.78125 C 7.867188 -8.0625 7.96875 -8.367188 7.96875 -8.703125 C 7.96875 -9.546875 7.757812 -10.179688 7.34375 -10.609375 C 6.9375 -11.035156 6.347656 -11.25 5.578125 -11.25 C 5.035156 -11.25 4.523438 -11.160156 4.046875 -10.984375 C 3.566406 -10.816406 3.195312 -10.585938 2.9375 -10.296875 C 3.394531 -10.296875 3.769531 -10.171875 4.0625 -9.921875 C 4.351562 -9.671875 4.5 -9.359375 4.5 -8.984375 C 4.5 -8.679688 4.425781 -8.40625 4.28125 -8.15625 C 4.144531 -7.914062 3.957031 -7.726562 3.71875 -7.59375 C 3.476562 -7.457031 3.21875 -7.390625 2.9375 -7.390625 C 2.46875 -7.390625 2.070312 -7.550781 1.75 -7.875 C 1.4375 -8.195312 1.28125 -8.644531 1.28125 -9.21875 C 1.28125 -9.519531 1.378906 -9.847656 1.578125 -10.203125 C 1.785156 -10.566406 2.070312 -10.914062 2.4375 -11.25 C 2.820312 -11.601562 3.332031 -11.882812 3.96875 -12.09375 C 4.613281 -12.3125 5.3125 -12.421875 6.0625 -12.421875 C 6.675781 -12.421875 7.234375 -12.351562 7.734375 -12.21875 C 8.242188 -12.082031 8.703125 -11.863281 9.109375 -11.5625 C 9.523438 -11.25 9.84375 -10.820312 10.0625 -10.28125 C 10.28125 -9.738281 10.390625 -9.101562 10.390625 -8.375 L 10.390625 -3.1875 C 10.390625 -2.863281 10.429688 -2.570312 10.515625 -2.3125 C 10.597656 -2.050781 10.734375 -1.820312 10.921875 -1.625 C 11.140625 -1.40625 11.410156 -1.296875 11.734375 -1.296875 C 12.679688 -1.296875 13.15625 -1.960938 13.15625 -3.296875 L 13.15625 -4.984375 L 14.390625 -4.984375 L 14.390625 -3.53125 C 14.390625 -2.78125 14.3125 -2.144531 14.15625 -1.625 C 14 -1.101562 13.769531 -0.707031 13.46875 -0.4375 C 13.175781 -0.175781 12.851562 0.0078125 12.5 0.125 C 12.144531 0.238281 11.726562 0.296875 11.25 0.296875 C 10.726562 0.296875 10.25 0.195312 9.8125 0 C 9.382812 -0.195312 9.019531 -0.507812 8.71875 -0.9375 C 8.394531 -1.375 8.207031 -1.898438 8.15625 -2.515625 C 7.945312 -1.972656 7.628906 -1.488281 7.203125 -1.0625 C 6.773438 -0.632812 6.28125 -0.300781 5.71875 -0.0625 C 5.164062 0.175781 4.597656 0.296875 4.015625 0.296875 Z M 4.59375 -1.3125 C 5.082031 -1.3125 5.59375 -1.457031 6.125 -1.75 C 6.664062 -2.050781 7.109375 -2.429688 7.453125 -2.890625 C 7.796875 -3.328125 7.96875 -3.757812 7.96875 -4.1875 L 7.96875 -6.578125 C 7.539062 -6.148438 7.023438 -5.75 6.421875 -5.375 C 5.816406 -5 5.265625 -4.703125 4.765625 -4.484375 C 4.328125 -4.285156 3.96875 -4.023438 3.6875 -3.703125 C 3.414062 -3.378906 3.28125 -3.003906 3.28125 -2.578125 C 3.28125 -2.191406 3.394531 -1.882812 3.625 -1.65625 C 3.851562 -1.425781 4.175781 -1.3125 4.59375 -1.3125 Z M 4.59375 -1.3125 "/></g></g><g style="fill:#000000;fill-opacity:1;"><g transform="translate(338.18537, 75.561753)"><path style="stroke:none" d="M 12.734375 0.21875 C 11.953125 0.21875 11.269531 0.015625 10.6875 -0.390625 C 10.113281 -0.796875 9.582031 -1.414062 9.09375 -2.25 L 6.828125 -6.140625 L 4.96875 -4.71875 L 4.96875 -1.265625 L 6.875 -1.265625 L 6.875 0 L 0.265625 0 L 0.265625 -1.265625 L 2.53125 -1.265625 L 2.53125 -15.578125 L 0.265625 -15.578125 L 0.265625 -16.96875 L 4.96875 -16.96875 L 4.96875 -6.4375 L 9.671875 -10.84375 L 7.5625 -10.84375 L 7.5625 -12.09375 L 14.328125 -12.09375 L 14.328125 -10.84375 L 12.171875 -10.84375 L 8.265625 -7.09375 C 8.484375 -6.789062 8.78125 -6.335938 9.15625 -5.734375 C 9.550781 -5.085938 9.882812 -4.5625 10.15625 -4.15625 C 10.4375 -3.75 10.742188 -3.335938 11.078125 -2.921875 C 11.429688 -2.472656 11.789062 -2.128906 12.15625 -1.890625 C 12.53125 -1.660156 12.898438 -1.546875 13.265625 -1.546875 C 13.703125 -1.546875 14.09375 -1.625 14.4375 -1.78125 L 14.765625 -0.265625 C 14.410156 -0.0664062 14.09375 0.0625 13.8125 0.125 C 13.53125 0.1875 13.171875 0.21875 12.734375 0.21875 Z M 12.734375 0.21875 "/></g><g transform="translate(352.844596, 75.561753)"><path style="stroke:none" d="M 9.65625 -5.8125 C 10.03125 -5.539062 10.320312 -5.1875 10.53125 -4.75 C 10.75 -4.320312 10.859375 -3.847656 10.859375 -3.328125 C 10.859375 -2.796875 10.757812 -2.3125 10.5625 -1.875 C 10.363281 -1.445312 10.101562 -1.097656 9.78125 -0.828125 C 9.46875 -0.554688 9.085938 -0.332031 8.640625 -0.15625 C 8.203125 0.0078125 7.742188 0.128906 7.265625 0.203125 L 6.6875 0.265625 L 6.6875 3.25 C 6.6875 3.5 6.582031 3.738281 6.375 3.96875 C 6.175781 4.207031 5.921875 4.398438 5.609375 4.546875 C 5.328125 4.671875 5.035156 4.78125 4.734375 4.875 C 4.441406 4.96875 4.179688 5.035156 3.953125 5.078125 L 3.640625 5.140625 L 3.3125 4.34375 C 3.769531 4.257812 4.15625 4.15625 4.46875 4.03125 C 4.800781 3.894531 4.96875 3.75 4.96875 3.59375 C 4.96875 3.4375 4.789062 3.179688 4.4375 2.828125 C 4.070312 2.484375 3.890625 2.21875 3.890625 2.03125 C 3.890625 1.695312 4.023438 1.363281 4.296875 1.03125 C 4.578125 0.707031 4.9375 0.460938 5.375 0.296875 C 4.332031 0.242188 3.382812 0.015625 2.53125 -0.390625 C 2.019531 -0.617188 1.617188 -0.9375 1.328125 -1.34375 C 1.035156 -1.757812 0.890625 -2.222656 0.890625 -2.734375 C 0.890625 -3.054688 0.957031 -3.34375 1.09375 -3.59375 C 1.238281 -3.851562 1.429688 -4.054688 1.671875 -4.203125 C 1.910156 -4.347656 2.164062 -4.421875 2.4375 -4.421875 C 2.875 -4.421875 3.234375 -4.300781 3.515625 -4.0625 C 3.804688 -3.820312 3.953125 -3.488281 3.953125 -3.0625 C 3.953125 -2.8125 3.898438 -2.582031 3.796875 -2.375 C 3.703125 -2.175781 3.566406 -2.015625 3.390625 -1.890625 C 3.222656 -1.773438 3.046875 -1.71875 2.859375 -1.71875 C 3.148438 -1.507812 3.539062 -1.335938 4.03125 -1.203125 C 4.519531 -1.066406 5.007812 -1 5.5 -1 C 6.125 -1 6.65625 -1.054688 7.09375 -1.171875 C 7.539062 -1.296875 7.914062 -1.503906 8.21875 -1.796875 C 8.539062 -2.097656 8.703125 -2.492188 8.703125 -2.984375 C 8.703125 -3.328125 8.59375 -3.640625 8.375 -3.921875 C 8.15625 -4.210938 7.863281 -4.441406 7.5 -4.609375 C 6.675781 -4.984375 5.789062 -5.289062 4.84375 -5.53125 C 4.351562 -5.664062 3.878906 -5.828125 3.421875 -6.015625 C 2.960938 -6.210938 2.554688 -6.429688 2.203125 -6.671875 C 1.828125 -6.921875 1.53125 -7.242188 1.3125 -7.640625 C 1.101562 -8.046875 1 -8.492188 1 -8.984375 C 1 -9.484375 1.101562 -9.9375 1.3125 -10.34375 C 1.53125 -10.75 1.816406 -11.085938 2.171875 -11.359375 C 2.492188 -11.597656 2.867188 -11.800781 3.296875 -11.96875 C 3.734375 -12.144531 4.160156 -12.269531 4.578125 -12.34375 C 4.992188 -12.394531 5.378906 -12.421875 5.734375 -12.421875 C 6.273438 -12.421875 6.820312 -12.359375 7.375 -12.234375 C 7.925781 -12.117188 8.441406 -11.953125 8.921875 -11.734375 C 9.410156 -11.503906 9.800781 -11.207031 10.09375 -10.84375 C 10.382812 -10.476562 10.53125 -10.082031 10.53125 -9.65625 C 10.53125 -9.332031 10.460938 -9.039062 10.328125 -8.78125 C 10.203125 -8.53125 10.023438 -8.332031 9.796875 -8.1875 C 9.566406 -8.039062 9.328125 -7.96875 9.078125 -7.96875 C 8.628906 -7.96875 8.257812 -8.097656 7.96875 -8.359375 C 7.675781 -8.628906 7.53125 -8.984375 7.53125 -9.421875 C 7.53125 -9.617188 7.578125 -9.804688 7.671875 -9.984375 C 7.773438 -10.171875 7.882812 -10.3125 8 -10.40625 L 8.390625 -10.671875 C 7.640625 -11.035156 6.796875 -11.21875 5.859375 -11.21875 C 5.335938 -11.21875 4.867188 -11.140625 4.453125 -10.984375 C 4.035156 -10.828125 3.703125 -10.601562 3.453125 -10.3125 C 3.210938 -10.019531 3.09375 -9.675781 3.09375 -9.28125 C 3.09375 -9 3.203125 -8.738281 3.421875 -8.5 C 3.640625 -8.269531 3.9375 -8.085938 4.3125 -7.953125 C 5.1875 -7.609375 6.078125 -7.316406 6.984375 -7.078125 C 7.460938 -6.941406 7.929688 -6.765625 8.390625 -6.546875 C 8.859375 -6.328125 9.28125 -6.082031 9.65625 -5.8125 Z M 9.65625 -5.8125 "/></g><g transform="translate(364.571976, 75.561753)"><path style="stroke:none" d="M 4.015625 0.296875 C 3.398438 0.296875 2.851562 0.1875 2.375 -0.03125 C 1.90625 -0.25 1.535156 -0.566406 1.265625 -0.984375 C 1.003906 -1.410156 0.875 -1.90625 0.875 -2.46875 C 0.875 -2.914062 0.972656 -3.320312 1.171875 -3.6875 C 1.378906 -4.0625 1.65625 -4.378906 2 -4.640625 C 2.320312 -4.878906 2.695312 -5.113281 3.125 -5.34375 C 3.550781 -5.570312 3.988281 -5.769531 4.4375 -5.9375 C 5.332031 -6.257812 6.144531 -6.628906 6.875 -7.046875 C 7.21875 -7.253906 7.484375 -7.5 7.671875 -7.78125 C 7.867188 -8.0625 7.96875 -8.367188 7.96875 -8.703125 C 7.96875 -9.546875 7.757812 -10.179688 7.34375 -10.609375 C 6.9375 -11.035156 6.347656 -11.25 5.578125 -11.25 C 5.035156 -11.25 4.523438 -11.160156 4.046875 -10.984375 C 3.566406 -10.816406 3.195312 -10.585938 2.9375 -10.296875 C 3.394531 -10.296875 3.769531 -10.171875 4.0625 -9.921875 C 4.351562 -9.671875 4.5 -9.359375 4.5 -8.984375 C 4.5 -8.679688 4.425781 -8.40625 4.28125 -8.15625 C 4.144531 -7.914062 3.957031 -7.726562 3.71875 -7.59375 C 3.476562 -7.457031 3.21875 -7.390625 2.9375 -7.390625 C 2.46875 -7.390625 2.070312 -7.550781 1.75 -7.875 C 1.4375 -8.195312 1.28125 -8.644531 1.28125 -9.21875 C 1.28125 -9.519531 1.378906 -9.847656 1.578125 -10.203125 C 1.785156 -10.566406 2.070312 -10.914062 2.4375 -11.25 C 2.820312 -11.601562 3.332031 -11.882812 3.96875 -12.09375 C 4.613281 -12.3125 5.3125 -12.421875 6.0625 -12.421875 C 6.675781 -12.421875 7.234375 -12.351562 7.734375 -12.21875 C 8.242188 -12.082031 8.703125 -11.863281 9.109375 -11.5625 C 9.523438 -11.25 9.84375 -10.820312 10.0625 -10.28125 C 10.28125 -9.738281 10.390625 -9.101562 10.390625 -8.375 L 10.390625 -3.1875 C 10.390625 -2.863281 10.429688 -2.570312 10.515625 -2.3125 C 10.597656 -2.050781 10.734375 -1.820312 10.921875 -1.625 C 11.140625 -1.40625 11.410156 -1.296875 11.734375 -1.296875 C 12.679688 -1.296875 13.15625 -1.960938 13.15625 -3.296875 L 13.15625 -4.984375 L 14.390625 -4.984375 L 14.390625 -3.53125 C 14.390625 -2.78125 14.3125 -2.144531 14.15625 -1.625 C 14 -1.101562 13.769531 -0.707031 13.46875 -0.4375 C 13.175781 -0.175781 12.851562 0.0078125 12.5 0.125 C 12.144531 0.238281 11.726562 0.296875 11.25 0.296875 C 10.726562 0.296875 10.25 0.195312 9.8125 0 C 9.382812 -0.195312 9.019531 -0.507812 8.71875 -0.9375 C 8.394531 -1.375 8.207031 -1.898438 8.15625 -2.515625 C 7.945312 -1.972656 7.628906 -1.488281 7.203125 -1.0625 C 6.773438 -0.632812 6.28125 -0.300781 5.71875 -0.0625 C 5.164062 0.175781 4.597656 0.296875 4.015625 0.296875 Z M 4.59375 -1.3125 C 5.082031 -1.3125 5.59375 -1.457031 6.125 -1.75 C 6.664062 -2.050781 7.109375 -2.429688 7.453125 -2.890625 C 7.796875 -3.328125 7.96875 -3.757812 7.96875 -4.1875 L 7.96875 -6.578125 C 7.539062 -6.148438 7.023438 -5.75 6.421875 -5.375 C 5.816406 -5 5.265625 -4.703125 4.765625 -4.484375 C 4.328125 -4.285156 3.96875 -4.023438 3.6875 -3.703125 C 3.414062 -3.378906 3.28125 -3.003906 3.28125 -2.578125 C 3.28125 -2.191406 3.394531 -1.882812 3.625 -1.65625 C 3.851562 -1.425781 4.175781 -1.3125 4.59375 -1.3125 Z M 4.59375 -1.3125 "/></g><g transform="translate(378.859083, 75.561753)"><path style="stroke:none" d="M 0.546875 -1.265625 L 2.75 -1.265625 L 2.75 -10.84375 L 0.546875 -10.84375 L 0.546875 -12.09375 L 4.828125 -12.296875 L 5.109375 -9.828125 C 5.253906 -10.273438 5.46875 -10.671875 5.75 -11.015625 C 6.039062 -11.367188 6.367188 -11.644531 6.734375 -11.84375 C 7.421875 -12.226562 8.148438 -12.421875 8.921875 -12.421875 C 9.210938 -12.421875 9.457031 -12.40625 9.65625 -12.375 C 9.863281 -12.351562 10.097656 -12.300781 10.359375 -12.21875 C 10.640625 -12.125 10.882812 -11.992188 11.09375 -11.828125 C 11.300781 -11.660156 11.5 -11.425781 11.6875 -11.125 C 11.875 -10.820312 12.035156 -10.457031 12.171875 -10.03125 C 12.523438 -10.832031 13.015625 -11.429688 13.640625 -11.828125 C 14.265625 -12.222656 14.976562 -12.421875 15.78125 -12.421875 C 16.03125 -12.421875 16.253906 -12.410156 16.453125 -12.390625 C 16.648438 -12.367188 16.875 -12.320312 17.125 -12.25 C 17.382812 -12.164062 17.617188 -12.054688 17.828125 -11.921875 C 18.035156 -11.796875 18.25 -11.625 18.46875 -11.40625 C 18.695312 -11.175781 18.878906 -10.910156 19.015625 -10.609375 C 19.160156 -10.316406 19.285156 -9.953125 19.390625 -9.515625 C 19.472656 -9.078125 19.515625 -8.585938 19.515625 -8.046875 L 19.515625 -1.265625 L 21.59375 -1.265625 L 21.59375 0 L 15.265625 0 L 15.265625 -1.265625 L 17.09375 -1.265625 L 17.09375 -8.015625 C 17.09375 -8.972656 16.90625 -9.6875 16.53125 -10.15625 C 16.15625 -10.632812 15.625 -10.875 14.9375 -10.875 C 14.414062 -10.875 13.960938 -10.757812 13.578125 -10.53125 C 13.203125 -10.3125 12.910156 -10.003906 12.703125 -9.609375 C 12.503906 -9.210938 12.40625 -8.757812 12.40625 -8.25 L 12.40625 -1.265625 L 14.34375 -1.265625 L 14.34375 0 L 8.046875 0 L 8.046875 -1.265625 L 9.984375 -1.265625 L 9.984375 -8.015625 C 9.984375 -8.972656 9.796875 -9.6875 9.421875 -10.15625 C 9.046875 -10.632812 8.515625 -10.875 7.828125 -10.875 C 7.398438 -10.875 7.023438 -10.789062 6.703125 -10.625 C 6.378906 -10.46875 6.117188 -10.253906 5.921875 -9.984375 C 5.742188 -9.734375 5.59375 -9.414062 5.46875 -9.03125 C 5.351562 -8.65625 5.273438 -8.269531 5.234375 -7.875 C 5.191406 -7.445312 5.171875 -7.023438 5.171875 -6.609375 L 5.171875 -1.265625 L 7.109375 -1.265625 L 7.109375 0 L 0.546875 0 Z M 0.546875 -1.265625 "/></g><g transform="translate(400.611119, 75.561753)"><path style="stroke:none" d="M 0.421875 0 L 0.421875 -1.265625 L 2.9375 -1.265625 L 2.9375 -15.578125 L 0.421875 -15.578125 L 0.421875 -16.96875 L 5.359375 -16.96875 L 5.359375 -1.265625 L 7.78125 -1.265625 L 7.78125 0 Z M 0.421875 0 "/></g><g transform="translate(408.594759, 75.561753)"><path style="stroke:none" d="M 4.015625 0.296875 C 3.398438 0.296875 2.851562 0.1875 2.375 -0.03125 C 1.90625 -0.25 1.535156 -0.566406 1.265625 -0.984375 C 1.003906 -1.410156 0.875 -1.90625 0.875 -2.46875 C 0.875 -2.914062 0.972656 -3.320312 1.171875 -3.6875 C 1.378906 -4.0625 1.65625 -4.378906 2 -4.640625 C 2.320312 -4.878906 2.695312 -5.113281 3.125 -5.34375 C 3.550781 -5.570312 3.988281 -5.769531 4.4375 -5.9375 C 5.332031 -6.257812 6.144531 -6.628906 6.875 -7.046875 C 7.21875 -7.253906 7.484375 -7.5 7.671875 -7.78125 C 7.867188 -8.0625 7.96875 -8.367188 7.96875 -8.703125 C 7.96875 -9.546875 7.757812 -10.179688 7.34375 -10.609375 C 6.9375 -11.035156 6.347656 -11.25 5.578125 -11.25 C 5.035156 -11.25 4.523438 -11.160156 4.046875 -10.984375 C 3.566406 -10.816406 3.195312 -10.585938 2.9375 -10.296875 C 3.394531 -10.296875 3.769531 -10.171875 4.0625 -9.921875 C 4.351562 -9.671875 4.5 -9.359375 4.5 -8.984375 C 4.5 -8.679688 4.425781 -8.40625 4.28125 -8.15625 C 4.144531 -7.914062 3.957031 -7.726562 3.71875 -7.59375 C 3.476562 -7.457031 3.21875 -7.390625 2.9375 -7.390625 C 2.46875 -7.390625 2.070312 -7.550781 1.75 -7.875 C 1.4375 -8.195312 1.28125 -8.644531 1.28125 -9.21875 C 1.28125 -9.519531 1.378906 -9.847656 1.578125 -10.203125 C 1.785156 -10.566406 2.070312 -10.914062 2.4375 -11.25 C 2.820312 -11.601562 3.332031 -11.882812 3.96875 -12.09375 C 4.613281 -12.3125 5.3125 -12.421875 6.0625 -12.421875 C 6.675781 -12.421875 7.234375 -12.351562 7.734375 -12.21875 C 8.242188 -12.082031 8.703125 -11.863281 9.109375 -11.5625 C 9.523438 -11.25 9.84375 -10.820312 10.0625 -10.28125 C 10.28125 -9.738281 10.390625 -9.101562 10.390625 -8.375 L 10.390625 -3.1875 C 10.390625 -2.863281 10.429688 -2.570312 10.515625 -2.3125 C 10.597656 -2.050781 10.734375 -1.820312 10.921875 -1.625 C 11.140625 -1.40625 11.410156 -1.296875 11.734375 -1.296875 C 12.679688 -1.296875 13.15625 -1.960938 13.15625 -3.296875 L 13.15625 -4.984375 L 14.390625 -4.984375 L 14.390625 -3.53125 C 14.390625 -2.78125 14.3125 -2.144531 14.15625 -1.625 C 14 -1.101562 13.769531 -0.707031 13.46875 -0.4375 C 13.175781 -0.175781 12.851562 0.0078125 12.5 0.125 C 12.144531 0.238281 11.726562 0.296875 11.25 0.296875 C 10.726562 0.296875 10.25 0.195312 9.8125 0 C 9.382812 -0.195312 9.019531 -0.507812 8.71875 -0.9375 C 8.394531 -1.375 8.207031 -1.898438 8.15625 -2.515625 C 7.945312 -1.972656 7.628906 -1.488281 7.203125 -1.0625 C 6.773438 -0.632812 6.28125 -0.300781 5.71875 -0.0625 C 5.164062 0.175781 4.597656 0.296875 4.015625 0.296875 Z M 4.59375 -1.3125 C 5.082031 -1.3125 5.59375 -1.457031 6.125 -1.75 C 6.664062 -2.050781 7.109375 -2.429688 7.453125 -2.890625 C 7.796875 -3.328125 7.96875 -3.757812 7.96875 -4.1875 L 7.96875 -6.578125 C 7.539062 -6.148438 7.023438 -5.75 6.421875 -5.375 C 5.816406 -5 5.265625 -4.703125 4.765625 -4.484375 C 4.328125 -4.285156 3.96875 -4.023438 3.6875 -3.703125 C 3.414062 -3.378906 3.28125 -3.003906 3.28125 -2.578125 C 3.28125 -2.191406 3.394531 -1.882812 3.625 -1.65625 C 3.851562 -1.425781 4.175781 -1.3125 4.59375 -1.3125 Z M 4.59375 -1.3125 "/></g><g transform="translate(422.881866, 75.561753)"><path style="stroke:none" d="M 0.546875 -1.265625 L 2.75 -1.265625 L 2.75 -10.84375 L 0.546875 -10.84375 L 0.546875 -12.09375 L 4.828125 -12.296875 L 5.125 -9.65625 C 5.3125 -10.289062 5.65625 -10.890625 6.15625 -11.453125 C 6.414062 -11.753906 6.738281 -11.988281 7.125 -12.15625 C 7.519531 -12.332031 7.9375 -12.421875 8.375 -12.421875 C 8.789062 -12.421875 9.164062 -12.34375 9.5 -12.1875 C 9.84375 -12.039062 10.113281 -11.816406 10.3125 -11.515625 C 10.507812 -11.222656 10.609375 -10.878906 10.609375 -10.484375 C 10.609375 -10.109375 10.53125 -9.78125 10.375 -9.5 C 10.226562 -9.21875 10.019531 -9.003906 9.75 -8.859375 C 9.488281 -8.710938 9.203125 -8.640625 8.890625 -8.640625 C 8.441406 -8.640625 8.0625 -8.773438 7.75 -9.046875 C 7.4375 -9.328125 7.28125 -9.691406 7.28125 -10.140625 C 7.28125 -10.285156 7.316406 -10.4375 7.390625 -10.59375 C 7.460938 -10.757812 7.539062 -10.894531 7.625 -11 L 7.75 -11.125 C 7.300781 -11.125 6.90625 -10.988281 6.5625 -10.71875 C 6.21875 -10.445312 5.945312 -10.066406 5.75 -9.578125 C 5.363281 -8.648438 5.171875 -7.617188 5.171875 -6.484375 L 5.171875 -1.265625 L 7.71875 -1.265625 L 7.71875 0 L 0.546875 0 Z M 0.546875 -1.265625 "/></g></g></g></svg>