<svg xmlns="http://www.w3.org/2000/svg" xmlns:xlink="http://www.w3.org/1999/xlink" width="1024" zoomAndPan="magnify" viewBox="0 0 768 576" height="768" preserveAspectRatio="xMidYMid meet" version="1.2"><defs><clipPath id="659360635a"><path d="M 697 50.703125 L 710 50.703125 L 710 64.203125 L 697 64.203125 Z M 697 50.703125 "/></clipPath><clipPath id="8f15e8fe0a"><path d="M 274 0 L 682.675781 0 L 682.675781 292 L 274 292 Z M 274 0 "/></clipPath></defs><g id="f7422727aa"><g clip-rule="nonzero" clip-path="url(#659360635a)"><path style=" stroke:none;fill-rule:evenodd;fill:#f9f7f8;fill-opacity:1;" d="M 700.515625 62.738281 C 700.332031 62.738281 700.304688 62.476562 700.460938 62.421875 L 707.550781 60.539062 C 707.761719 60.488281 707.839844 60.773438 707.632812 60.828125 Z M 708.652344 64.175781 L 700.960938 64.175781 C 700.90625 64.203125 700.828125 64.203125 700.75 64.203125 C 700.382812 64.203125 700.042969 63.941406 699.9375 63.574219 L 697.324219 53.761719 C 697.191406 53.292969 697.453125 52.820312 697.898438 52.714844 L 704.910156 50.832031 C 705.355469 50.703125 705.824219 50.988281 705.957031 51.433594 L 706.191406 52.324219 L 708.652344 52.324219 C 709.121094 52.324219 709.515625 52.691406 709.515625 53.160156 L 709.515625 63.339844 C 709.515625 63.808594 709.121094 64.175781 708.652344 64.175781 Z M 708.285156 61.324219 L 705.644531 51.511719 C 705.5625 51.226562 705.277344 51.066406 704.988281 51.148438 L 698.003906 53.003906 C 697.714844 53.082031 697.53125 53.398438 697.609375 53.660156 L 700.253906 63.496094 C 700.332031 63.785156 700.621094 63.941406 700.90625 63.863281 L 707.894531 62.003906 C 708.179688 61.925781 708.363281 61.613281 708.285156 61.324219 Z M 702.136719 63.863281 L 708.652344 63.863281 C 708.9375 63.863281 709.199219 63.625 709.199219 63.339844 L 709.199219 53.160156 C 709.199219 52.875 708.9375 52.636719 708.652344 52.636719 L 706.269531 52.636719 L 708.597656 61.246094 C 708.703125 61.714844 708.441406 62.1875 707.996094 62.292969 Z M 699.546875 59.101562 C 699.363281 59.101562 699.3125 58.839844 699.496094 58.8125 L 706.585938 56.902344 C 706.792969 56.851562 706.871094 57.164062 706.664062 57.214844 Z M 699.703125 59.753906 C 699.519531 59.753906 699.496094 59.492188 699.675781 59.464844 L 706.769531 57.554688 C 706.949219 57.503906 707.03125 57.816406 706.847656 57.871094 Z M 699.886719 60.433594 C 699.703125 60.433594 699.675781 60.171875 699.859375 60.121094 L 706.925781 58.210938 C 707.132812 58.160156 707.210938 58.472656 707.03125 58.523438 Z M 700.148438 61.429688 C 699.964844 61.429688 699.9375 61.167969 700.121094 61.113281 L 707.210938 59.203125 C 707.394531 59.152344 707.472656 59.464844 707.292969 59.519531 Z M 700.332031 62.082031 C 700.148438 62.082031 700.121094 61.820312 700.304688 61.769531 L 707.371094 59.886719 C 707.578125 59.804688 707.65625 60.121094 707.449219 60.171875 Z M 700.332031 62.082031 "/></g><path style=" stroke:none;fill-rule:nonzero;fill:#ffffff;fill-opacity:1;" d="M 681.820312 -17.066406 L 681.058594 276.851562 C 681.039062 283.382812 675.757812 288.675781 669.226562 288.707031 C 541.804688 289.308594 414.386719 289.910156 286.964844 290.515625 C 280.375 290.546875 275.019531 285.214844 275.019531 278.625 C 275.050781 179.835938 275.078125 81.046875 275.105469 -17.746094 C 275.105469 -24.316406 280.441406 -29.636719 287.011719 -29.628906 C 414.660156 -29.414062 542.304688 -29.199219 669.949219 -28.984375 C 676.519531 -28.972656 681.835938 -23.636719 681.816406 -17.066406 Z M 681.820312 -17.066406 "/><g clip-rule="nonzero" clip-path="url(#8f15e8fe0a)"><path style=" stroke:none;fill-rule:nonzero;fill:#e67e22;fill-opacity:1;" d="M 681.589844 -17.066406 C 680.792969 35.019531 680.851562 44.1875 680.25 269.113281 C 680.234375 274.964844 681.160156 281.679688 675.789062 285.6875 C 672.941406 287.8125 669.792969 287.875 666.378906 287.890625 C 282.5625 289.675781 286.207031 290.339844 282.535156 288.75 C 279.6875 287.515625 277.464844 285.101562 276.460938 282.164062 C 275.519531 279.410156 275.898438 281.980469 275.953125 97.554688 C 275.988281 -23.855469 275.03125 -19.710938 277.855469 -23.90625 C 282.164062 -30.304688 290.527344 -28.769531 297.179688 -28.765625 C 313.847656 -28.75 661.28125 -28.214844 669.140625 -28.175781 C 675.589844 -28.140625 680.871094 -23.75 681.011719 -17.066406 C 681.03125 -16.023438 682.65625 -16.023438 682.632812 -17.066406 C 682.53125 -22.136719 679.632812 -26.753906 674.917969 -28.769531 C 670.777344 -30.542969 674.777344 -29.492188 297.585938 -30.457031 C 291.441406 -30.472656 284.109375 -31.792969 278.964844 -27.632812 C 273.75 -23.421875 274.238281 -17.328125 274.230469 -11.25 C 274.210938 5.667969 274.164062 258.867188 274.164062 267.257812 C 274.164062 276.910156 273.164062 281.777344 276.90625 286.511719 C 281.050781 291.757812 286.992188 291.375 293.066406 291.34375 C 670.96875 289.527344 669.429688 289.71875 671.632812 289.296875 C 677.878906 288.097656 681.84375 282.515625 681.890625 276.351562 C 681.890625 276.1875 682.6875 45.332031 682.054688 -17.066406 C 682.050781 -17.363281 681.59375 -17.363281 681.589844 -17.066406 Z M 681.589844 -17.066406 "/></g><path style=" stroke:none;fill-rule:nonzero;fill:#e67e22;fill-opacity:1;" d="M 360.484375 38.699219 C 360.472656 46.480469 360.457031 54.257812 360.445312 62.035156 C 346.070312 65.398438 330.898438 66.25 316.117188 64.511719 C 312.351562 64.070312 309.566406 63.078125 309.53125 59.199219 C 309.5 55.980469 308.691406 50.09375 307.183594 41.472656 C 324.949219 40.546875 342.71875 39.625 360.488281 38.703125 Z M 360.484375 38.699219 "/><path style=" stroke:none;fill-rule:nonzero;fill:#e67e22;fill-opacity:1;" d="M 360.375 38.671875 C 359.261719 41.988281 359.617188 43.539062 359.726562 62.035156 C 359.902344 61.804688 360.078125 61.574219 360.253906 61.339844 C 339.507812 66.1875 317.730469 64.546875 313.382812 63.167969 C 309.714844 62.003906 310.484375 59.34375 310.113281 55.578125 C 309.632812 50.777344 308.816406 46.003906 307.996094 41.246094 C 307.722656 41.605469 307.453125 41.960938 307.179688 42.316406 C 324.949219 41.425781 342.714844 40.472656 360.484375 39.546875 C 361.570312 39.492188 361.574219 37.796875 360.484375 37.851562 C 342.714844 38.777344 324.945312 39.671875 307.179688 40.628906 C 305.246094 40.730469 307.230469 43.265625 308.484375 55.742188 C 308.769531 58.550781 308.265625 61.914062 310.894531 63.753906 C 312.296875 64.734375 314.054688 65.046875 315.714844 65.261719 C 329.753906 67.066406 344.8125 66.367188 360.632812 62.730469 C 361.386719 62.558594 361.15625 62.566406 361.273438 50.078125 C 361.308594 46.386719 361.765625 42.210938 360.59375 38.671875 C 360.558594 38.5625 360.410156 38.5625 360.375 38.671875 Z M 360.375 38.671875 "/><path style=" stroke:none;fill-rule:nonzero;fill:#ffffff;fill-opacity:1;" d="M 329.753906 17.699219 C 327.769531 18.25 329.753906 17.839844 311.605469 25.871094 C 298.855469 31.511719 287.328125 35.914062 296.667969 39.128906 C 317.339844 46.242188 312.949219 45.414062 325.449219 48.246094 C 331.078125 49.519531 335.023438 50.371094 340.125 49.34375 C 342.308594 48.90625 358.53125 43.25 365.621094 39.226562 C 371.691406 35.78125 374.726562 34.054688 374.605469 32.265625 C 374.363281 28.71875 364.878906 29.167969 346.660156 22.175781 C 339.363281 19.375 335.28125 16.164062 329.757812 17.699219 Z M 329.753906 17.699219 "/><path style=" stroke:none;fill-rule:nonzero;fill:#e67e22;fill-opacity:1;" d="M 329.621094 17.21875 C 328.132812 17.570312 326.734375 18.285156 325.355469 18.917969 C 305.539062 28.035156 285.613281 34.546875 294.761719 39.152344 C 296.730469 40.140625 298.949219 40.707031 301.023438 41.433594 C 315.613281 46.539062 313.800781 46.382812 325.25 48.972656 C 329.8125 50.007812 334.378906 50.988281 339.070312 50.292969 C 341.875 49.875 356.625 44.949219 365.25 40.332031 C 367.269531 39.253906 372.949219 36.136719 374.480469 34.433594 C 375.519531 33.273438 375.78125 31.703125 374.648438 30.507812 C 372.089844 27.8125 363.433594 27.667969 347.429688 21.589844 C 341.171875 19.214844 335.984375 15.230469 329.535156 16.902344 C 328.503906 17.167969 328.941406 18.757812 329.972656 18.492188 C 337.171875 16.632812 339.117188 22.136719 364.707031 28.683594 C 375.910156 31.546875 376.886719 31.84375 366.894531 37.578125 C 358.382812 42.46875 345.445312 47.007812 341.023438 48.320312 C 330.472656 51.449219 307.976562 42.371094 296.863281 38.402344 C 296.070312 38.121094 294.074219 37.539062 294.015625 36.453125 C 293.855469 33.535156 311.054688 27.210938 323.972656 21.03125 C 326.015625 20.054688 328.046875 18.773438 329.886719 18.175781 C 330.492188 17.980469 330.246094 17.070312 329.621094 17.21875 Z M 329.621094 17.21875 "/><path style=" stroke:none;fill-rule:nonzero;fill:#e67e22;fill-opacity:1;" d="M 331.15625 30.722656 C 332.046875 31.300781 333.113281 31.164062 334.148438 31.199219 C 335.597656 31.25 337.039062 31.195312 338.488281 31.15625 C 368.925781 30.273438 372.109375 29.152344 373.917969 31.933594 C 375.964844 35.082031 373.988281 48.136719 375.128906 56.171875 C 375.257812 57.070312 376.476562 56.707031 376.574219 55.976562 C 377.171875 51.410156 376.785156 46.582031 376.769531 41.976562 C 376.71875 25.359375 377.535156 27.546875 339.769531 29.34375 C 334.226562 29.605469 332.289062 29.515625 331.152344 30.367188 C 331.027344 30.460938 331.011719 30.632812 331.152344 30.722656 Z M 331.15625 30.722656 "/><path style=" stroke:none;fill-rule:nonzero;fill:#e67e22;fill-opacity:1;" d="M 372.742188 54.804688 C 372.902344 54.457031 373.414062 54.605469 374.925781 54.191406 C 376.167969 53.851562 376.359375 53.601562 376.648438 53.746094 C 377.328125 54.089844 376.695312 55.679688 376.949219 57.753906 C 377.179688 59.648438 381.402344 67.101562 380.003906 68.261719 C 379.613281 68.582031 379.25 68.15625 377.777344 68.242188 C 375.804688 68.355469 375.375 69.179688 374.035156 69.039062 C 373.019531 68.933594 371.652344 68.28125 371.351562 67.277344 C 370.96875 65.984375 372.566406 65.054688 373.617188 62.636719 C 374.359375 60.933594 374.453125 59.347656 374.414062 58.28125 C 374.316406 58.007812 374.160156 57.613281 373.933594 57.152344 C 373.1875 55.648438 372.550781 55.226562 372.742188 54.808594 Z M 372.742188 54.804688 "/><path style=" stroke:none;fill-rule:nonzero;fill:#e67e22;fill-opacity:1;" d="M 373.328125 55.144531 C 373.1875 55.375 373.164062 55.183594 373.289062 55.230469 C 373.40625 55.273438 376.277344 54.679688 376.402344 54.507812 C 376.695312 54.445312 376.261719 54.585938 376.136719 54.261719 C 376.113281 54.28125 376.15625 54.859375 376.152344 54.910156 C 376.097656 55.753906 375.875 57.144531 376.164062 58.378906 C 376.613281 60.308594 379.519531 65.574219 379.410156 67.605469 C 379.414062 67.53125 379.347656 67.777344 379.441406 67.605469 C 379.546875 67.40625 379.628906 67.65625 379.523438 67.511719 C 379.429688 67.382812 378.664062 67.398438 378.496094 67.390625 C 376.929688 67.3125 375.914062 67.792969 375.089844 68.082031 C 373.890625 68.5 371.796875 67.675781 372.171875 66.589844 C 372.527344 65.566406 375.09375 63.429688 375.238281 59.011719 C 375.285156 57.722656 374.578125 56.464844 373.835938 55.347656 C 373.308594 54.554688 373.578125 54.84375 373.523438 55.019531 C 373.828125 53.996094 372.335938 53.640625 371.960938 54.589844 C 371.15625 56.632812 376.519531 57.25 371.246094 64.960938 C 370.265625 66.394531 370.222656 67.933594 371.757812 69.023438 C 372.496094 69.546875 373.484375 69.882812 374.398438 69.859375 C 376.019531 69.820312 376.382812 68.761719 379.238281 69.191406 C 379.878906 69.285156 380.488281 69.152344 380.859375 68.574219 C 382.207031 66.480469 378.40625 60.242188 377.839844 57.695312 C 377.460938 55.984375 378.460938 53.152344 376.621094 52.9375 C 376.050781 52.875 375.546875 53.3125 373.988281 53.679688 C 373.367188 53.828125 372.507812 53.824219 372.160156 54.460938 C 371.742188 55.230469 372.875 55.890625 373.332031 55.144531 Z M 373.328125 55.144531 "/><path style=" stroke:none;fill-rule:nonzero;fill:#e67e22;fill-opacity:1;" d="M 398.277344 28.0625 C 412.0625 28.527344 436.386719 28.394531 457.640625 28.234375 C 463.90625 28.1875 470.679688 28.894531 476.832031 27.589844 C 477.53125 27.441406 477.539062 26.308594 476.832031 26.164062 C 471.019531 24.996094 464.738281 25.699219 458.824219 25.71875 C 439.085938 25.78125 412.035156 25.917969 398.277344 26.53125 C 397.292969 26.574219 397.289062 28.027344 398.277344 28.0625 Z M 398.277344 28.0625 "/><path style=" stroke:none;fill-rule:nonzero;fill:#e67e22;fill-opacity:1;" d="M 397.589844 42.949219 C 443.78125 42.859375 490 42.664062 536.1875 41.933594 C 537.863281 41.90625 537.867188 39.304688 536.1875 39.324219 C 489.988281 39.800781 443.777344 40.816406 397.589844 41.929688 C 396.933594 41.945312 396.929688 42.953125 397.589844 42.953125 Z M 397.589844 42.949219 "/><path style=" stroke:none;fill-rule:nonzero;fill:#e67e22;fill-opacity:1;" d="M 397.125 53.179688 C 443.320312 53.089844 489.535156 52.890625 535.722656 52.164062 C 537.398438 52.136719 537.40625 49.535156 535.722656 49.554688 C 489.527344 50.03125 443.3125 51.042969 397.125 52.160156 C 396.46875 52.175781 396.46875 53.179688 397.125 53.179688 Z M 397.125 53.179688 "/><path style=" stroke:none;fill-rule:nonzero;fill:#e67e22;fill-opacity:1;" d="M 352.140625 209.046875 C 362.371094 217.074219 375.796875 214.960938 386.066406 207.835938 C 396.417969 200.660156 403.152344 189.773438 411.320312 180.441406 C 438.675781 149.175781 461.910156 172.183594 487.832031 177.914062 C 499.578125 180.507812 511.292969 178.335938 519.808594 169.394531 C 529.519531 159.195312 532.730469 145.105469 539.128906 132.964844 C 563.578125 86.570312 590.738281 135.027344 622.808594 114.902344 C 633.921875 107.925781 642.515625 94.546875 640.015625 81.128906 C 639.757812 79.742188 637.757812 80.175781 637.675781 81.445312 C 636.691406 96.640625 628.414062 110.664062 613.238281 115.40625 C 596.003906 120.792969 580.082031 106.917969 562.992188 108.792969 C 525.746094 112.875 535.335938 183.382812 490.292969 174.898438 C 467.796875 170.660156 445.472656 152.234375 422.640625 165.871094 C 411.476562 172.539062 404.351562 183.960938 396.101562 193.640625 C 385.945312 205.554688 368.945312 218.359375 353.101562 207.800781 C 352.363281 207.308594 351.425781 208.488281 352.140625 209.050781 Z M 352.140625 209.046875 "/><path style=" stroke:none;fill-rule:nonzero;fill:#e67e22;fill-opacity:1;" d="M 351.816406 201.304688 C 349.054688 203.554688 347.640625 208.292969 350.269531 211.429688 C 352.785156 214.4375 357.605469 214.28125 360.152344 211.992188 C 363.652344 208.851562 362.492188 202.011719 358.734375 200.140625 C 356.460938 199.007812 353.589844 199.863281 351.816406 201.304688 Z M 351.816406 201.304688 "/><path style=" stroke:none;fill-rule:nonzero;fill:#e67e22;fill-opacity:1;" d="M 351.640625 201.007812 C 350.523438 201.789062 349.402344 202.347656 348.539062 204.550781 C 346.375 210.078125 350.375 214.953125 355.8125 214.6875 C 363.042969 214.335938 365.265625 206.238281 361.539062 201.230469 C 358.890625 197.671875 354.226562 197.878906 351.070312 200.558594 C 350.171875 201.324219 351.382812 202.925781 352.347656 202.214844 C 360.914062 195.867188 365.082031 210.863281 356.679688 212.578125 C 352.589844 213.414062 348.824219 210.195312 350.023438 205.632812 C 350.316406 204.527344 351.246094 202.351562 352.0625 201.550781 C 352.335938 201.28125 351.972656 200.777344 351.644531 201.007812 Z M 351.640625 201.007812 "/><path style=" stroke:none;fill-rule:nonzero;fill:#e67e22;fill-opacity:1;" d="M 432.445312 153.464844 C 429.542969 155.527344 427.824219 160.164062 430.238281 163.464844 C 432.554688 166.632812 437.375 166.789062 440.066406 164.671875 C 443.761719 161.761719 443.054688 154.863281 439.425781 152.75 C 437.230469 151.472656 434.308594 152.140625 432.445312 153.460938 Z M 432.445312 153.464844 "/><path style=" stroke:none;fill-rule:nonzero;fill:#e67e22;fill-opacity:1;" d="M 432.269531 153.167969 C 431.136719 153.855469 429.855469 154.484375 428.941406 156.546875 C 426.519531 161.996094 430.066406 166.984375 435.613281 167.085938 C 442.691406 167.214844 445.535156 159.390625 442.1875 154.078125 C 439.828125 150.335938 435.035156 150.238281 431.910156 152.558594 C 430.667969 153.480469 431.933594 155.046875 432.972656 154.375 C 438.617188 150.742188 442.578125 155.738281 441.261719 160.902344 C 439.316406 168.546875 425.816406 165.09375 431.339844 155.578125 C 431.734375 154.894531 432.082031 154.234375 432.6875 153.710938 C 432.988281 153.453125 432.601562 152.964844 432.269531 153.167969 Z M 432.269531 153.167969 "/><path style=" stroke:none;fill-rule:nonzero;fill:#e67e22;fill-opacity:1;" d="M 506.695312 166.71875 C 503.792969 168.78125 502.074219 173.417969 504.488281 176.71875 C 506.804688 179.886719 511.625 180.046875 514.316406 177.929688 C 518.011719 175.019531 517.304688 168.121094 513.675781 166.007812 C 511.480469 164.726562 508.558594 165.394531 506.695312 166.71875 Z M 506.695312 166.71875 "/><path style=" stroke:none;fill-rule:nonzero;fill:#e67e22;fill-opacity:1;" d="M 506.519531 166.421875 C 505.386719 167.109375 504.105469 167.738281 503.191406 169.800781 C 500.769531 175.25 504.316406 180.238281 509.863281 180.339844 C 516.941406 180.46875 519.785156 172.644531 516.4375 167.332031 C 514.078125 163.589844 509.285156 163.492188 506.160156 165.8125 C 504.917969 166.734375 506.183594 168.300781 507.222656 167.628906 C 512.867188 163.996094 516.828125 168.992188 515.511719 174.15625 C 513.566406 181.800781 500.066406 178.347656 505.589844 168.832031 C 505.984375 168.148438 506.332031 167.488281 506.9375 166.964844 C 507.238281 166.707031 506.847656 166.21875 506.519531 166.421875 Z M 506.519531 166.421875 "/><path style=" stroke:none;fill-rule:nonzero;fill:#e67e22;fill-opacity:1;" d="M 568.363281 35.507812 C 568.597656 48.023438 568.835938 60.539062 569.066406 73.054688 C 573.09375 65.429688 581.332031 61.8125 587.628906 62.703125 C 595.304688 63.789062 596.148438 70.527344 606.84375 74.6875 C 616.390625 78.402344 618.167969 75.554688 617.234375 69.273438 C 614.695312 52.167969 617.765625 44.378906 613.652344 42.640625 C 610.875 41.46875 609.554688 45.046875 605.105469 44.933594 C 596.703125 44.71875 594.394531 31.785156 585.519531 29.371094 C 581.949219 28.398438 576.515625 28.914062 568.363281 35.507812 Z M 568.363281 35.507812 "/><path style=" stroke:none;fill-rule:nonzero;fill:#e67e22;fill-opacity:1;" d="M 567.667969 33.339844 C 567.300781 37.632812 567.203125 38.296875 567.179688 102.832031 C 567.179688 105.316406 566.941406 107.925781 567.550781 110.355469 C 567.765625 111.207031 569.058594 111.207031 569.277344 110.355469 C 570.039062 107.34375 569.796875 38.800781 569.34375 33.339844 C 569.253906 32.265625 567.761719 32.265625 567.667969 33.339844 Z M 567.667969 33.339844 "/><path style=" stroke:none;fill-rule:nonzero;fill:#e67e22;fill-opacity:1;" d="M 565.6875 101.902344 C 562.78125 103.964844 561.066406 108.601562 563.480469 111.902344 C 565.796875 115.070312 570.617188 115.226562 573.308594 113.109375 C 577.003906 110.199219 576.292969 103.300781 572.667969 101.1875 C 570.472656 99.910156 567.550781 100.574219 565.6875 101.898438 Z M 565.6875 101.902344 "/><path style=" stroke:none;fill-rule:nonzero;fill:#e67e22;fill-opacity:1;" d="M 565.511719 101.605469 C 564.378906 102.292969 563.097656 102.921875 562.179688 104.984375 C 559.761719 110.433594 563.308594 115.421875 568.855469 115.523438 C 575.929688 115.652344 578.777344 107.828125 575.429688 102.515625 C 573.070312 98.773438 568.277344 98.675781 565.152344 100.996094 C 563.90625 101.917969 565.175781 103.484375 566.214844 102.8125 C 571.855469 99.179688 575.820312 104.175781 574.503906 109.339844 C 572.558594 116.984375 559.058594 113.53125 564.582031 104.011719 C 564.976562 103.332031 565.324219 102.671875 565.929688 102.148438 C 566.226562 101.890625 565.839844 101.402344 565.507812 101.605469 Z M 565.511719 101.605469 "/><path style=" stroke:none;fill-rule:nonzero;fill:#ffffff;fill-opacity:1;" d="M 217.035156 190.144531 C 205.574219 192.957031 168.953125 201.949219 146.066406 233.890625 C 114.183594 278.378906 127.699219 341.234375 150.390625 446.761719 C 150.828125 448.78125 151.4375 451.691406 152.550781 455.414062 C 166.445312 501.839844 205.207031 526.867188 208.917969 529.191406 C 216.855469 534.15625 232.074219 542.375 312.476562 546.96875 C 396.589844 551.773438 438.976562 546.167969 457.253906 543.320312 C 499.835938 536.683594 521.507812 533.046875 538.632812 515.921875 C 568.824219 485.730469 565.074219 438.992188 564.128906 426.710938 C 563 412.046875 560.277344 376.695312 534.933594 351.882812 C 495.636719 313.402344 450.390625 347.714844 395.4375 305.820312 C 380.996094 294.8125 361.464844 275.171875 345.21875 251.160156 C 327.8125 225.445312 331.660156 221.691406 319.890625 209.265625 C 312.269531 201.214844 269.164062 177.34375 217.03125 190.144531 Z M 217.035156 190.144531 "/><path style=" stroke:none;fill-rule:nonzero;fill:#e67e22;fill-opacity:1;" d="M 216.953125 189.859375 C 178.398438 197.949219 143.617188 221.695312 131.554688 260.625 C 119.246094 300.351562 130.535156 356.832031 138.898438 398.089844 C 147.855469 442.28125 150.730469 487.410156 201.691406 525.605469 C 218.210938 537.984375 238.269531 540.964844 258.378906 543.519531 C 308.972656 549.949219 397.414062 553.863281 459.761719 544.125 C 482.378906 540.59375 507.96875 538.375 527.882812 525.992188 C 562.351562 504.554688 568.183594 460.1875 565.046875 423.195312 C 563.1875 401.273438 557.847656 379.183594 544.59375 361.199219 C 517.175781 324 476.800781 331.359375 447.0625 326.578125 C 432.238281 324.195312 418.078125 319.183594 405.324219 311.207031 C 379.339844 294.949219 357.71875 269.195312 341.648438 243.460938 C 333.734375 230.785156 329.347656 214.175781 316.761719 205.0625 C 294.855469 189.203125 255.921875 179.6875 216.707031 188.960938 C 215.167969 189.324219 215.820312 191.691406 217.359375 191.328125 C 244.117188 184.996094 272.46875 187.074219 297.890625 197.671875 C 312.003906 203.558594 322.304688 210.988281 328.996094 225 C 340.113281 248.289062 355.476562 269.25 373.492188 287.710938 C 429.371094 344.984375 465.960938 323.628906 506.859375 336.332031 C 533.007812 344.453125 550.078125 367.964844 557.460938 393.417969 C 561.875 408.640625 563.488281 424.921875 563.597656 440.757812 C 563.75 462.683594 559.511719 485.417969 547.050781 503.847656 C 534.359375 522.621094 515.710938 531.027344 494.199219 535.699219 C 428.617188 549.945312 368.757812 549.511719 302.214844 545.148438 C 280.21875 543.707031 231.246094 540.589844 211.691406 529.46875 C 181.851562 512.5 158.765625 479.550781 151.539062 446.449219 C 141.222656 399.171875 126.320312 333.820312 128.707031 291.480469 C 131.816406 236.316406 163.3125 205.621094 217.113281 190.433594 C 217.484375 190.328125 217.324219 189.777344 216.953125 189.859375 Z M 216.953125 189.859375 "/><path style=" stroke:none;fill-rule:nonzero;fill:#ffffff;fill-opacity:1;" d="M 473.65625 498.898438 C 473.050781 503.410156 475.863281 503.644531 485.273438 520.167969 C 487.714844 524.453125 488.703125 526.507812 491.363281 527.777344 C 497.308594 530.613281 507.023438 527.5 509.253906 518.460938 C 508.886719 507.957031 503.191406 485.011719 492.773438 483.613281 C 490.09375 483.253906 487.964844 484.335938 485.207031 485.734375 C 483.925781 486.386719 474.710938 491.058594 473.65625 498.898438 Z M 473.65625 498.898438 "/><path style=" stroke:none;fill-rule:nonzero;fill:#e67e22;fill-opacity:1;" d="M 473.039062 498.898438 C 472.621094 502.050781 474.347656 504.386719 475.992188 506.929688 C 479.945312 513.050781 483.175781 520.839844 487.9375 526.277344 C 495.355469 534.746094 510.960938 526.957031 510.335938 516.355469 C 509.734375 506.15625 506.265625 488.707031 496.269531 483.359375 C 487.300781 478.5625 473.3125 490.011719 472.320312 498.894531 C 472.152344 500.429688 474.53125 500.644531 474.945312 499.25 C 477.339844 491.15625 490.195312 479.84375 497.964844 488.226562 C 504.167969 494.921875 507.257812 506.84375 507.851562 515.78125 C 508.285156 522.382812 502.65625 527.839844 496.039062 527.792969 C 488.941406 527.742188 486.472656 520.199219 483.34375 515.066406 C 476.722656 504.210938 473.964844 502.796875 474.273438 498.898438 C 474.339844 498.089844 473.140625 498.128906 473.039062 498.898438 Z M 473.039062 498.898438 "/><path style=" stroke:none;fill-rule:nonzero;fill:#e67e22;fill-opacity:1;" d="M 485.273438 520.167969 C 482.308594 523.355469 492.640625 532.789062 495.363281 543.859375 C 496.773438 549.605469 501.921875 549.214844 507.535156 547.347656 C 522.976562 542.203125 531.875 531.550781 549.457031 523.34375 C 557.085938 519.78125 563.664062 517.808594 565.117188 512.191406 C 566.613281 506.410156 562.78125 499.605469 554.757812 498.359375 C 550.46875 497.691406 548.539062 499.570312 541.539062 502.066406 C 535.546875 504.195312 529.425781 506.378906 522.464844 506.03125 C 513.570312 505.589844 509.46875 501.335938 506.765625 503.691406 C 503.78125 506.292969 507.851562 512.292969 504.195312 516.277344 C 502.292969 518.347656 499.328125 518.75 494.605469 519.386719 C 488.105469 520.265625 486.523438 518.824219 485.277344 520.167969 Z M 485.273438 520.167969 "/><path style=" stroke:none;fill-rule:nonzero;fill:#e67e22;fill-opacity:1;" d="M 484.789062 519.679688 C 482.144531 522.460938 486.527344 528.128906 489.890625 533.917969 C 493.652344 540.382812 493.378906 541.660156 494.65625 545.121094 C 497.285156 552.210938 505.648438 549.5 512.539062 546.507812 C 523.734375 541.648438 533.332031 532.933594 545.101562 526.609375 C 554.386719 521.621094 562.632812 519.851562 565.390625 514.152344 C 569.789062 505.0625 559.324219 494.734375 549.753906 497.683594 C 548.152344 498.179688 546.621094 498.910156 545.070312 499.550781 C 527.492188 506.835938 521.386719 505.652344 512.136719 502.660156 C 510.078125 501.992188 507.664062 501.363281 505.917969 503.066406 C 501.363281 507.503906 510.367188 515.875 497.230469 517.992188 C 494.96875 518.355469 492.6875 518.679688 490.390625 518.6875 C 487.941406 518.699219 485.980469 518.058594 484.578125 519.464844 C 483.679688 520.367188 485.074219 521.761719 485.972656 520.863281 C 486.429688 520.40625 487.148438 520.546875 487.738281 520.578125 C 492.121094 520.8125 498.421875 520.535156 502.429688 518.742188 C 505.292969 517.464844 506.765625 514.820312 506.859375 511.753906 C 506.914062 509.851562 505.503906 504.9375 508.085938 504.109375 C 509.4375 503.675781 511.292969 504.691406 515.011719 505.785156 C 529.398438 510.023438 541.511719 502.621094 550.1875 499.808594 C 556.117188 497.890625 563.234375 501.757812 564.359375 508.011719 C 565.773438 515.867188 557.265625 518.804688 551.546875 521.34375 C 533.011719 529.578125 523.625 540.066406 509.871094 545.414062 C 506.875 546.578125 503.109375 548.136719 499.835938 547.390625 C 496.265625 546.582031 496.128906 542.191406 494.972656 539.359375 C 490.949219 529.488281 483.929688 523.035156 485.871094 520.511719 C 486.347656 519.886719 485.316406 519.121094 484.789062 519.675781 Z M 484.789062 519.679688 "/><path style=" stroke:none;fill-rule:nonzero;fill:#ffffff;fill-opacity:1;" d="M 525.328125 512.890625 C 525.882812 512.90625 525.980469 512.160156 526.148438 511.363281 C 526.699219 508.726562 526.878906 508.253906 526.871094 507.40625 C 526.867188 506.859375 526.082031 506.605469 525.808594 507.265625 C 525.492188 508.023438 525.492188 508.488281 525.023438 511.054688 C 524.886719 511.777344 524.605469 512.875 525.328125 512.894531 Z M 525.328125 512.890625 "/><path style=" stroke:none;fill-rule:nonzero;fill:#ffffff;fill-opacity:1;" d="M 534.617188 513.730469 C 535.160156 513.453125 535.140625 512.5625 535.210938 512.046875 C 535.300781 511.394531 535.359375 510.75 535.394531 510.09375 C 535.519531 507.691406 535.699219 506.878906 535.113281 506.230469 C 534.941406 506.039062 534.636719 506.066406 534.460938 506.230469 C 533.894531 506.757812 533.960938 507.609375 533.933594 508.324219 C 533.871094 510.109375 533.574219 514.265625 534.617188 513.730469 Z M 534.617188 513.730469 "/><path style=" stroke:none;fill-rule:nonzero;fill:#ffffff;fill-opacity:1;" d="M 465.214844 387.566406 C 461.804688 390.578125 463.777344 392.597656 460.070312 411.246094 C 459.105469 416.085938 458.511719 418.285156 459.691406 420.988281 C 462.324219 427.019531 471.707031 431.03125 479.308594 425.660156 C 485.910156 417.480469 496.628906 396.410156 489.667969 388.53125 C 487.882812 386.503906 485.5625 385.925781 482.5625 385.179688 C 481.167969 384.832031 471.140625 382.332031 465.214844 387.566406 Z M 465.214844 387.566406 "/><path style=" stroke:none;fill-rule:nonzero;fill:#e67e22;fill-opacity:1;" d="M 464.78125 387.128906 C 462.632812 389.03125 462.285156 391.449219 461.867188 394.171875 C 460.746094 401.476562 458.855469 408.929688 458.1875 416.265625 C 457.148438 427.714844 473.671875 433.710938 481.019531 425.410156 C 485.425781 420.433594 488.597656 413.511719 490.847656 407.335938 C 492.742188 402.136719 494.6875 395.238281 492.160156 389.910156 C 487.996094 381.148438 470.667969 380.828125 464.273438 386.625 C 463.15625 387.636719 464.613281 389.542969 465.890625 388.71875 C 472.929688 384.203125 490.015625 383.878906 490.558594 395.25 C 491.003906 404.585938 485.378906 414.722656 480.332031 422.230469 C 476.375 428.117188 467.777344 428.601562 462.71875 423.605469 C 457.859375 418.808594 461.152344 411.054688 462.097656 405.242188 C 462.871094 400.457031 461.964844 391.632812 465.65625 388.003906 C 466.226562 387.441406 465.371094 386.605469 464.78125 387.128906 Z M 464.78125 387.128906 "/><path style=" stroke:none;fill-rule:nonzero;fill:#e67e22;fill-opacity:1;" d="M 460.070312 411.25 C 455.738281 411.71875 457.371094 425.613281 452.179688 435.761719 C 449.488281 441.027344 453.632812 444.105469 459.097656 446.367188 C 474.136719 452.589844 487.839844 450.367188 506.5 455.675781 C 514.601562 457.980469 520.863281 460.792969 525.640625 457.5 C 530.558594 454.109375 532.117188 446.457031 526.867188 440.257812 C 524.0625 436.949219 521.375 437.105469 514.449219 434.40625 C 508.523438 432.097656 502.46875 429.734375 497.433594 424.917969 C 491 418.761719 490.6875 412.859375 487.101562 412.867188 C 483.140625 412.878906 482.289062 420.078125 476.917969 420.695312 C 474.121094 421.015625 471.621094 419.378906 467.628906 416.765625 C 462.144531 413.171875 461.890625 411.050781 460.066406 411.25 Z M 460.070312 411.25 "/><path style=" stroke:none;fill-rule:nonzero;fill:#e67e22;fill-opacity:1;" d="M 460.070312 410.558594 C 456.171875 410.945312 455.785156 418.152344 454.589844 424.503906 C 453.269531 431.519531 452.261719 432.652344 450.867188 436.15625 C 448.019531 443.292969 456.402344 446.863281 463.75 449.117188 C 475.488281 452.714844 488.9375 452.378906 502.394531 455.597656 C 511.734375 457.832031 519.96875 462.160156 525.792969 458.523438 C 532.40625 454.398438 532.292969 445.324219 527.757812 439.730469 C 525.910156 437.449219 523.488281 436.363281 520.757812 435.464844 C 494.75 426.894531 496.042969 420.660156 490.601562 413.773438 C 489.140625 411.925781 486.839844 411.195312 484.753906 412.558594 C 480.46875 415.359375 480.320312 423.546875 470.375 417.332031 C 463.804688 413.226562 464.277344 412.605469 462.175781 410.984375 C 461.550781 410.5 460.875 410.207031 460.066406 410.265625 C 458.808594 410.355469 458.800781 412.332031 460.066406 412.238281 C 461.109375 412.164062 461.550781 413.390625 464.46875 415.71875 C 469.941406 420.085938 476.21875 424.40625 481.289062 419.640625 C 482.964844 418.066406 483.976562 415.363281 486.007812 414.226562 C 488.28125 412.949219 489.652344 416.023438 490.570312 417.570312 C 501.832031 436.632812 520.902344 434.964844 526.136719 440.996094 C 532.0625 447.828125 528.582031 456.925781 521.980469 457.960938 C 518.289062 458.542969 514.375 457.0625 510.898438 456 C 489.839844 449.554688 476.867188 451.40625 462.953125 446.730469 C 459.632812 445.613281 454.582031 444.101562 452.828125 440.71875 C 451.882812 438.882812 452.675781 437.1875 453.480469 435.476562 C 458.398438 425.015625 456.761719 412.636719 460.25 411.917969 C 461 411.765625 460.847656 410.492188 460.066406 410.566406 Z M 460.070312 410.558594 "/><path style=" stroke:none;fill-rule:nonzero;fill:#ffffff;fill-opacity:1;" d="M 495.648438 432.058594 C 496.097656 431.867188 495.894531 431.984375 498.921875 429.683594 C 499.304688 429.390625 499.804688 429.089844 499.960938 428.605469 C 500.058594 428.308594 499.792969 427.941406 499.472656 427.964844 C 498.917969 428.003906 498.828125 428.179688 495.5 430.847656 C 494.445312 431.691406 495.097656 432.292969 495.644531 432.058594 Z M 495.648438 432.058594 "/><path style=" stroke:none;fill-rule:nonzero;fill:#ffffff;fill-opacity:1;" d="M 501.558594 438.683594 C 502.171875 438.835938 502.726562 438.167969 503.140625 437.804688 C 503.625 437.378906 504.078125 436.941406 504.523438 436.480469 C 506.195312 434.742188 506.886719 434.222656 506.871094 433.378906 C 506.855469 432.699219 505.957031 432.847656 505.382812 433.351562 C 505.097656 433.597656 500.300781 438.378906 501.558594 438.6875 Z M 501.558594 438.683594 "/><path style=" stroke:none;fill-rule:nonzero;fill:#ffffff;fill-opacity:1;" d="M 337.308594 325.0625 C 337.507812 317.386719 344.546875 311.824219 347.898438 309.171875 C 436.8125 238.890625 456.21875 222.90625 485.320312 228.894531 C 518.4375 235.707031 513.179688 254.726562 509.574219 336.769531 C 507.800781 377.085938 507.792969 401.125 496.6875 404.828125 C 492.296875 406.292969 490.15625 403.25 472.777344 401.4375 C 458.175781 399.917969 455.359375 401.617188 451.78125 398.929688 C 443.835938 392.957031 447.109375 376.597656 450.292969 359.160156 C 453.171875 343.398438 457.117188 320.523438 461.257812 291.707031 C 448.90625 303.277344 413.992188 335.4375 389.898438 349.3125 C 368 361.921875 336.886719 341.28125 337.308594 325.0625 Z M 337.308594 325.0625 "/><path style=" stroke:none;fill-rule:nonzero;fill:#e67e22;fill-opacity:1;" d="M 337.703125 325.0625 C 338.558594 315.875 347.589844 310.660156 362.75 298.828125 C 440.164062 238.410156 459.335938 221.582031 491.527344 231.828125 C 512.109375 238.378906 512.15625 255.335938 510.132812 296.984375 C 510.125 297.109375 506.453125 372.011719 506.210938 374.996094 C 505.53125 383.433594 504.238281 399.945312 496.898438 403.257812 C 491.972656 405.480469 487.371094 399.925781 460.398438 399.3125 C 456.433594 399.222656 448.746094 400.511719 448.222656 386.496094 C 447.710938 372.863281 452.535156 361.789062 462.535156 292.0625 C 462.714844 290.800781 461.359375 289.789062 460.316406 290.769531 C 445.421875 304.734375 430.144531 318.363281 414.050781 330.9375 C 407.871094 335.769531 393.921875 346.234375 386.769531 349.453125 C 366.164062 358.730469 338.304688 340.007812 338.539062 325.066406 C 338.566406 323.476562 336.097656 323.476562 336.074219 325.066406 C 335.847656 339.640625 359.308594 358.050781 381.164062 353.917969 C 399.613281 350.429688 448.527344 305.449219 462.199219 292.644531 L 459.980469 291.355469 C 457.894531 305.832031 455.648438 320.289062 453.222656 334.710938 C 447.347656 369.625 440.195312 392.785156 451.449219 400.363281 C 456.695312 403.898438 462.875 399.589844 490.753906 406.078125 C 511.511719 410.90625 509.148438 374.277344 511.917969 317.144531 C 515 253.59375 517.648438 233.761719 484.832031 227.476562 C 457.550781 222.253906 436.429688 237.847656 375.941406 285.503906 C 375.433594 285.902344 346.761719 308.617188 343.773438 311.472656 C 339.960938 315.121094 336.875 319.597656 336.914062 325.066406 C 336.917969 325.582031 337.660156 325.5625 337.703125 325.066406 Z M 337.703125 325.0625 "/><path style=" stroke:none;fill-rule:nonzero;fill:#ffffff;fill-opacity:1;" d="M 252.414062 349.339844 C 246.503906 361.796875 255.257812 379.632812 265.019531 388.707031 C 278.335938 401.082031 297.027344 400.40625 318.179688 399.34375 C 360.539062 397.207031 371.992188 382.222656 389.652344 391.019531 C 399.492188 395.925781 405.421875 407.707031 416.507812 431.636719 C 429.90625 460.5625 436.847656 486.855469 450.476562 489.425781 C 452.375 489.78125 457.929688 490.347656 460.140625 494.253906 C 462.402344 498.257812 459.03125 502.003906 460.882812 504.660156 C 464.25 509.503906 480.125 503.839844 486.15625 501.6875 C 501.511719 496.207031 509.496094 493.359375 512.402344 486.296875 C 515.71875 478.25 510.949219 469.042969 504.527344 459.207031 C 445.164062 368.285156 442.328125 360.894531 422.585938 349.742188 C 407.121094 341 392.566406 339.902344 378.957031 339.164062 C 269.207031 333.207031 257.070312 339.519531 252.414062 349.335938 Z M 252.414062 349.339844 "/><path style=" stroke:none;fill-rule:nonzero;fill:#e67e22;fill-opacity:1;" d="M 251.707031 348.925781 C 245.046875 362.253906 254.175781 380.933594 264.898438 390.371094 C 277.496094 401.453125 295.011719 401.644531 310.867188 401.007812 C 320.039062 400.640625 329.183594 400.027344 338.238281 398.453125 C 362.167969 394.292969 372.695312 386.769531 384.914062 390.34375 C 396.03125 393.59375 401.890625 404.296875 406.855469 413.921875 C 425.09375 449.300781 430.5625 473.148438 441.328125 484.90625 C 446.878906 490.964844 450.605469 490.035156 454.605469 491.34375 C 459.890625 493.070312 460.390625 496.167969 459.660156 500.300781 C 458.460938 507.0625 463.179688 508.160156 470.078125 507.132812 C 477.988281 505.957031 493.453125 500.253906 500.777344 497.039062 C 505.683594 494.882812 510.742188 492.089844 512.9375 486.921875 C 516.253906 479.121094 511.992188 470.503906 508.101562 463.761719 C 503.582031 455.941406 466.898438 399.617188 466.820312 399.496094 C 459.503906 388.304688 447.867188 370.324219 439.3125 361.15625 C 429.261719 350.390625 414.347656 343.085938 399.894531 340.261719 C 384.882812 337.324219 304.398438 333.496094 274.714844 337.503906 C 267.179688 338.519531 257.601562 340.257812 253.308594 346.179688 C 252.625 347.117188 252.140625 348.101562 251.738281 348.945312 C 251.308594 349.847656 252.65625 350.644531 253.089844 349.734375 C 255.683594 344.28125 261.253906 342.214844 267.171875 340.863281 C 293.199219 334.9375 385.066406 339.777344 398.804688 342.367188 C 412.636719 344.976562 425.132812 351.457031 432.851562 358.007812 C 445.773438 368.96875 457.8125 389.777344 504.59375 460.523438 C 509.222656 467.527344 515.335938 476.984375 511.855469 485.703125 C 509.730469 491.035156 504.183594 493.785156 499.210938 495.902344 C 493.484375 498.34375 466.082031 509.472656 461.785156 504.34375 C 460.664062 503.003906 461.464844 500.9375 461.703125 499.414062 C 462.605469 493.679688 459.332031 490.4375 453.695312 489.046875 C 449.734375 488.070312 446.5 488.441406 441.285156 481.804688 C 433.992188 472.511719 429.496094 458.34375 419.550781 435.921875 C 414.800781 425.210938 405.539062 404.140625 397.542969 395.648438 C 391.4375 389.164062 382.886719 386.289062 374.109375 387.421875 C 360.804688 389.140625 348.949219 396.5625 315.886719 398.132812 C 299.785156 398.898438 281.78125 399.726562 268.839844 390.183594 C 257.519531 381.835938 247.703125 362.53125 253.121094 349.753906 C 253.519531 348.808594 252.1875 347.960938 251.707031 348.925781 Z M 251.707031 348.925781 "/><path style=" stroke:none;fill-rule:nonzero;fill:#ffffff;fill-opacity:1;" d="M 279.117188 215.28125 C 287.363281 213.507812 301.082031 211.964844 311.816406 219.511719 C 320.023438 225.277344 322.527344 234.105469 324.277344 237.441406 C 338.804688 265.054688 353.332031 292.671875 367.859375 320.289062 C 360.535156 322.394531 353.214844 324.5 345.894531 326.605469 C 323.636719 289.496094 301.375 252.386719 279.117188 215.28125 Z M 279.117188 215.28125 "/><path style=" stroke:none;fill-rule:nonzero;fill:#e67e22;fill-opacity:1;" d="M 279.277344 215.875 C 302.808594 211.265625 314.976562 219.273438 321.335938 232.96875 C 326.730469 244.59375 327.578125 245 366.882812 320.859375 C 367.109375 320.308594 367.332031 319.753906 367.558594 319.207031 C 360.222656 321.265625 352.886719 323.320312 345.566406 325.4375 C 346.027344 325.625 346.484375 325.8125 346.941406 325.996094 C 329.523438 297.042969 284.957031 222.855469 280.078125 214.722656 C 279.339844 213.488281 277.410156 214.613281 278.152344 215.847656 C 295.53125 244.824219 339.976562 319.082031 344.84375 327.222656 C 345.117188 327.683594 345.695312 327.929688 346.21875 327.78125 C 353.542969 325.6875 360.847656 323.527344 368.15625 321.378906 C 368.875 321.167969 369.175781 320.367188 368.832031 319.722656 C 365.59375 313.65625 327.402344 242.183594 323.007812 232.558594 C 314.722656 214.429688 298.375 210.207031 278.957031 214.691406 C 278.179688 214.871094 278.511719 216.027344 279.28125 215.878906 Z M 279.277344 215.875 "/><path style=" stroke:none;fill-rule:nonzero;fill:#e67e22;fill-opacity:1;" d="M 258.589844 210.34375 C 239.070312 209.941406 232.628906 195.332031 217.746094 199.878906 C 209.640625 202.351562 204.824219 208.464844 204.207031 209.277344 C 196.214844 219.832031 198.132812 233.738281 197.546875 239.050781 C 196.839844 245.507812 195.328125 246.472656 196.074219 249.613281 C 197.109375 253.949219 200.746094 255.289062 199.976562 257.789062 C 199.445312 259.527344 197.605469 259.140625 196.261719 261.132812 C 193.121094 265.789062 198.117188 275.546875 203.878906 279.902344 C 212.527344 286.433594 241.730469 313.28125 237.515625 330.355469 C 236.609375 334.027344 234.582031 335.511719 235.007812 339.554688 C 235.699219 346.175781 241.636719 347.089844 243.367188 354.050781 C 245.007812 360.652344 240.445312 362.960938 242.253906 369.101562 C 243.734375 374.136719 248.898438 379.695312 253.960938 379.695312 C 263.273438 379.691406 262.816406 360.871094 277.871094 351.5 C 284.207031 347.554688 287.105469 349.140625 316.398438 347.359375 C 347.339844 345.480469 351.382812 343.269531 354.308594 340.667969 C 366.777344 329.585938 367.007812 304.65625 358.460938 299.226562 C 353.644531 296.164062 349.472656 301.496094 341.019531 299.628906 C 324.113281 295.90625 313.714844 268.621094 319.15625 262.898438 C 320.511719 261.46875 321.820312 262.472656 327.703125 260.171875 C 331.515625 258.683594 337.375 256.394531 337.738281 252.863281 C 337.945312 250.863281 336.175781 250.574219 335.011719 246.605469 C 334.050781 243.320312 334.828125 242.027344 334.269531 239.421875 C 333.367188 235.203125 330.085938 232.785156 328.074219 230.996094 C 318.40625 222.414062 321.417969 213.714844 313.332031 207.519531 C 308.339844 203.695312 302.851562 203.691406 293.636719 203.6875 C 273.972656 203.675781 272.257812 210.621094 258.589844 210.34375 Z M 258.589844 210.34375 "/><path style=" stroke:none;fill-rule:nonzero;fill:#e67e22;fill-opacity:1;" d="M 258.589844 209.914062 C 244.230469 209.058594 236.417969 200.46875 227.421875 198.429688 C 217.25 196.121094 206.429688 202.871094 201.417969 211.542969 C 198.078125 217.316406 196.953125 224.003906 196.691406 230.589844 C 196.390625 238.332031 197.097656 237.558594 195.140625 245.539062 C 194.074219 249.882812 195.761719 252.355469 198.015625 255.292969 C 200.597656 258.652344 196.941406 258.09375 195.304688 260.578125 C 193.164062 263.828125 194.410156 268.417969 196.113281 271.933594 C 199.265625 278.449219 203.558594 280.976562 206.070312 283.078125 C 217.042969 292.277344 236.210938 311.859375 236.8125 326.089844 C 237.109375 333.089844 231.980469 335.75 234.578125 342.464844 C 236.621094 347.753906 242.789062 349.765625 242.636719 357.097656 C 242.582031 359.789062 241.199219 362.191406 240.839844 364.832031 C 240.003906 371.027344 244.945312 377.863281 250.578125 380.097656 C 260.152344 383.894531 263.339844 371.414062 267.742188 363.933594 C 271.554688 357.457031 277.378906 351.089844 285.117188 350.015625 C 288.480469 349.550781 291.921875 349.539062 295.3125 349.421875 C 307.683594 349 324.632812 348.21875 336.980469 346.773438 C 348.386719 345.4375 354.777344 344.527344 360.417969 334.851562 C 369.25 319.710938 366.058594 296.347656 354.539062 297.136719 C 352.03125 297.308594 349.664062 298.316406 347.191406 298.699219 C 328.222656 301.625 315.15625 270.742188 319.714844 264.085938 C 320.972656 262.25 322.296875 264.214844 332.277344 259.554688 C 334.667969 258.441406 337.492188 256.917969 338.574219 254.355469 C 340.207031 250.496094 335.808594 249.585938 335.71875 243.117188 C 335.664062 239.136719 335.683594 236.019531 330.183594 231.183594 C 322.640625 224.542969 322.652344 220.765625 319.917969 214.308594 C 317.597656 208.832031 313.230469 204.71875 307.382812 203.296875 C 304.386719 202.570312 301.257812 202.449219 298.1875 202.394531 C 287.457031 202.210938 282.359375 202.5 271.699219 206.402344 C 267.421875 207.964844 263.175781 208.984375 258.589844 208.910156 C 256.746094 208.882812 256.746094 211.746094 258.589844 211.777344 C 270.160156 211.960938 274.828125 206.75 286.285156 205.425781 C 290.816406 204.898438 301.921875 204.667969 306.691406 205.8125 C 313.226562 207.378906 316.21875 211.480469 318.488281 217.617188 C 321.449219 225.632812 322.539062 227.617188 328.953125 233.417969 C 336.414062 240.164062 330.925781 243.300781 335.351562 250.351562 C 336.164062 251.644531 338.078125 253.007812 334.230469 255.71875 C 330.980469 258.003906 325.285156 260 321.910156 260.636719 C 320.191406 260.960938 318.121094 261.015625 317.015625 264.359375 C 314.820312 271.003906 319.929688 282.300781 323.992188 288.121094 C 330.761719 297.820312 339.539062 303.210938 350.929688 300.214844 C 354.84375 299.1875 358.066406 298.28125 360.945312 303.875 C 366.445312 314.550781 361.613281 334.839844 352.234375 340.871094 C 348.460938 343.296875 339.714844 344.261719 335.238281 344.75 C 299.714844 348.621094 286.550781 345.542969 278.566406 349.84375 C 261.328125 359.136719 262.34375 382.140625 251.539062 378.148438 C 248.394531 376.984375 245.875 374.175781 244.328125 371.28125 C 242.773438 368.371094 242.660156 365.605469 243.648438 362.519531 C 247.988281 348.9375 237.75 347.195312 236.261719 340.46875 C 234.566406 332.816406 247.242188 328.828125 229.664062 304.746094 C 222.59375 295.0625 212.78125 285.367188 204.847656 279.253906 C 200.632812 276.007812 196.117188 269.480469 196.414062 264.265625 C 196.648438 260.171875 199.699219 260.757812 200.800781 258.695312 C 202.933594 254.691406 195.769531 252.523438 197.199219 246.367188 C 199.074219 238.289062 198.65625 239.496094 198.828125 232.035156 C 199.105469 219.917969 201.960938 209.773438 212.472656 203.421875 C 230.335938 192.621094 236.5 210.921875 258.589844 210.777344 C 259.144531 210.773438 259.136719 209.953125 258.589844 209.921875 Z M 258.589844 209.914062 "/><path style=" stroke:none;fill-rule:nonzero;fill:#ffffff;fill-opacity:1;" d="M 258.40625 137.574219 C 264.144531 134.738281 272.351562 138.734375 276.75 143.644531 C 280.796875 148.160156 281.226562 153.855469 282.089844 165.234375 C 282.992188 177.070312 283.46875 184.792969 278.625 189.117188 C 274.847656 192.484375 271.898438 190.433594 269.574219 193.589844 C 264.65625 200.273438 275.421875 213.488281 270.433594 218.679688 C 267.847656 221.375 265.140625 222.910156 264.3125 223.171875 C 258.824219 224.898438 252.316406 222.183594 249.355469 217.945312 C 244.679688 211.238281 251.972656 202.722656 249.703125 175.3125 C 243.480469 173.996094 239.523438 171.863281 239.535156 169.738281 C 239.546875 167.691406 244.355469 163.828125 251.511719 165.773438 C 251.246094 163.574219 250.980469 160.476562 251 156.75 C 251.035156 151.0625 251.089844 147.804688 252.808594 144.214844 C 253.703125 142.351562 255.246094 139.140625 258.410156 137.574219 Z M 258.40625 137.574219 "/><path style=" stroke:none;fill-rule:nonzero;fill:#e67e22;fill-opacity:1;" d="M 258.617188 138.328125 C 267.226562 135.183594 277 142.738281 279.226562 150.925781 C 281.242188 158.34375 281.34375 166.976562 281.480469 174.628906 C 281.753906 189.792969 276.421875 188.296875 271.117188 190.875 C 267.105469 192.824219 266.722656 197.230469 267.347656 201.175781 C 268.507812 208.449219 274.292969 216.367188 265.449219 221.175781 C 258.703125 224.84375 249.324219 219.972656 249.050781 212.304688 C 248.808594 205.417969 252.746094 197.800781 251.171875 175.3125 C 251.128906 174.679688 250.75 174.050781 250.089844 173.894531 C 247.695312 173.316406 242.761719 172.695312 242.0625 170.042969 C 241.054688 166.226562 248.984375 166.800781 251.101562 167.242188 C 251.972656 167.421875 253.148438 166.820312 253.03125 165.769531 C 252.097656 157.226562 250.636719 144.21875 259.175781 138.890625 C 260.839844 137.851562 259.3125 135.210938 257.636719 136.253906 C 247.902344 142.332031 248.898438 155.875 249.984375 165.769531 L 251.914062 164.300781 C 247.9375 163.476562 238.730469 163.457031 238.0625 169.332031 C 237.703125 172.507812 241.691406 174.421875 244.703125 175.480469 C 248.941406 176.972656 248.542969 178.546875 248.671875 182.777344 C 249.269531 202.375 243.878906 212.070312 248.25 218.585938 C 251.753906 223.8125 259.820312 226.636719 265.648438 223.9375 C 278.847656 217.832031 269.765625 206.527344 269.492188 198.984375 C 269.257812 192.472656 275.792969 193.234375 279.464844 189.953125 C 284.578125 185.382812 284.011719 177.292969 283.664062 171.117188 C 283.199219 162.929688 283.761719 152.042969 279.078125 144.828125 C 274.890625 138.375 265.644531 133.679688 258.199219 136.816406 C 257.300781 137.195312 257.652344 138.675781 258.613281 138.324219 Z M 258.617188 138.328125 "/><path style=" stroke:none;fill-rule:nonzero;fill:#e67e22;fill-opacity:1;" d="M 430.699219 343.105469 L 328.089844 343.105469 C 325.386719 343.105469 323.269531 340.789062 323.507812 338.09375 L 329.839844 266.511719 C 330.050781 264.136719 332.039062 262.316406 334.425781 262.316406 L 437.433594 262.316406 C 440.148438 262.316406 442.269531 264.648438 442.015625 267.351562 L 435.28125 338.933594 C 435.0625 341.296875 433.074219 343.105469 430.699219 343.105469 Z M 430.699219 343.105469 "/><path style=" stroke:none;fill-rule:nonzero;fill:#e67e22;fill-opacity:1;" d="M 290.527344 338.429688 L 431.097656 338.429688 C 431.367188 338.429688 431.632812 338.457031 431.894531 338.511719 C 432.15625 338.5625 432.414062 338.640625 432.660156 338.742188 C 432.910156 338.84375 433.144531 338.972656 433.367188 339.121094 C 433.59375 339.269531 433.796875 339.4375 433.988281 339.628906 C 434.179688 339.820312 434.347656 340.027344 434.496094 340.25 C 434.644531 340.472656 434.773438 340.707031 434.875 340.957031 C 434.976562 341.203125 435.054688 341.460938 435.105469 341.722656 C 435.160156 341.984375 435.1875 342.25 435.1875 342.519531 L 435.1875 343.769531 C 435.1875 344.035156 435.160156 344.304688 435.105469 344.566406 C 435.054688 344.828125 434.976562 345.085938 434.875 345.332031 C 434.773438 345.582031 434.644531 345.816406 434.496094 346.039062 C 434.347656 346.261719 434.179688 346.46875 433.988281 346.660156 C 433.796875 346.847656 433.59375 347.019531 433.367188 347.167969 C 433.144531 347.316406 432.910156 347.441406 432.660156 347.546875 C 432.414062 347.648438 432.15625 347.726562 431.894531 347.777344 C 431.632812 347.832031 431.367188 347.855469 431.097656 347.855469 L 290.527344 347.855469 C 290.257812 347.855469 289.992188 347.832031 289.730469 347.777344 C 289.46875 347.726562 289.210938 347.648438 288.964844 347.546875 C 288.714844 347.441406 288.480469 347.316406 288.257812 347.167969 C 288.035156 347.019531 287.828125 346.847656 287.636719 346.660156 C 287.449219 346.46875 287.277344 346.261719 287.128906 346.039062 C 286.980469 345.816406 286.855469 345.582031 286.75 345.332031 C 286.648438 345.085938 286.570312 344.828125 286.519531 344.566406 C 286.464844 344.304688 286.441406 344.035156 286.441406 343.769531 L 286.441406 342.519531 C 286.441406 342.25 286.464844 341.984375 286.519531 341.722656 C 286.570312 341.460938 286.648438 341.203125 286.75 340.957031 C 286.855469 340.707031 286.980469 340.472656 287.128906 340.25 C 287.277344 340.027344 287.449219 339.820312 287.636719 339.628906 C 287.828125 339.4375 288.035156 339.269531 288.257812 339.121094 C 288.480469 338.972656 288.714844 338.84375 288.964844 338.742188 C 289.210938 338.640625 289.46875 338.5625 289.730469 338.511719 C 289.992188 338.457031 290.257812 338.429688 290.527344 338.429688 Z M 290.527344 338.429688 "/><path style=" stroke:none;fill-rule:nonzero;fill:#ffffff;fill-opacity:1;" d="M 382.371094 295.078125 C 375.777344 298.207031 375.101562 306.480469 379.636719 310.6875 C 384.957031 315.621094 393.511719 312.222656 394.859375 305.167969 C 396.347656 297.363281 389.90625 291.507812 382.371094 295.078125 Z M 382.371094 295.078125 "/><path style=" stroke:none;fill-rule:nonzero;fill:#e67e22;fill-opacity:1;" d="M 382.371094 294.847656 C 375.964844 293.996094 373.765625 303.085938 375.355469 307.785156 C 377.4375 313.925781 384.347656 316.847656 390.246094 314.3125 C 396.542969 311.605469 399.300781 303.875 396.433594 297.675781 C 393.984375 292.390625 384.707031 288.332031 380.566406 294.023438 C 379.515625 295.460938 380.988281 297 382.371094 297.171875 C 384.53125 297.449219 386.390625 296.09375 388.617188 296.8125 C 394.117188 298.601562 394.003906 307.917969 387.789062 310.300781 C 383.929688 311.78125 379.804688 309.359375 378.90625 305.378906 C 377.691406 300.011719 383.835938 295.042969 382.371094 294.847656 Z M 382.371094 294.847656 "/><path style=" stroke:none;fill-rule:nonzero;fill:#ffffff;fill-opacity:1;" d="M 201.339844 268.316406 C 201.464844 277.921875 202.269531 291.519531 205.367188 307.578125 C 209.480469 328.886719 213.488281 333.03125 215.125 334.539062 C 223.53125 342.28125 235.628906 341.402344 256.246094 339.609375 C 266.484375 338.722656 280.527344 336.675781 296.890625 331.65625 C 297.507812 328.1875 298.128906 324.71875 298.746094 321.25 C 278.304688 318.433594 257.863281 315.613281 237.421875 312.796875 C 234.703125 272.871094 236.261719 264.820312 231.089844 261.75 C 227.441406 259.585938 222.25 261.148438 211.871094 264.277344 C 207.375 265.632812 203.78125 267.164062 201.339844 268.3125 Z M 201.339844 268.316406 "/><path style=" stroke:none;fill-rule:nonzero;fill:#e67e22;fill-opacity:1;" d="M 201.042969 268.316406 C 199.632812 282.304688 204.871094 319.660156 211.808594 331.65625 C 216.894531 340.457031 227.851562 341.859375 237.871094 341.695312 C 257.273438 341.371094 277.910156 338.488281 297.175781 332.707031 C 298.109375 332.429688 297.796875 332.710938 299.84375 321.554688 C 299.941406 321.011719 299.699219 320.25 299.046875 320.15625 C 278.621094 317.242188 258.160156 314.523438 237.714844 311.742188 C 237.980469 312.09375 238.25 312.445312 238.515625 312.796875 C 236.242188 280.164062 236.902344 268.363281 234.125 263.445312 C 230.648438 257.285156 222.070312 260.195312 215.320312 262.195312 C 210.371094 263.664062 205.515625 265.269531 200.835938 267.464844 C 199.6875 268.003906 200.6875 269.699219 201.832031 269.167969 C 207.359375 266.59375 219.953125 262.457031 225.277344 261.867188 C 236.414062 260.621094 233.417969 268.753906 236.324219 312.796875 C 236.351562 313.226562 236.640625 313.785156 237.128906 313.851562 C 257.660156 316.722656 278.1875 319.652344 298.742188 322.386719 L 297.644531 320.949219 C 297.042969 324.421875 296.4375 327.894531 295.835938 331.367188 L 296.59375 330.609375 C 280.585938 335.582031 264.582031 338.566406 242.863281 339.757812 C 215.226562 341.277344 211.53125 334.25 206.40625 308.5 C 202.449219 288.632812 202.890625 278.101562 201.632812 268.316406 C 201.582031 267.9375 201.074219 267.929688 201.035156 268.316406 Z M 201.042969 268.316406 "/><path style=" stroke:none;fill-rule:nonzero;fill:#e67e22;fill-opacity:1;" d="M 248.292969 165.433594 C 251.945312 165.667969 252.964844 168.390625 254.84375 167.753906 C 257.527344 166.84375 257.929688 160.453125 258.125 157.359375 C 258.417969 152.683594 257.550781 151.769531 258.617188 150.472656 C 260.890625 147.703125 265.953125 150.507812 269.191406 147.230469 C 270.84375 145.558594 270.480469 143.863281 271.988281 143.378906 C 274.648438 142.523438 281.808594 148.039062 282.023438 158.183594 C 284.039062 156.984375 288.460938 153.949219 290.75 148.277344 C 291.632812 146.089844 293.511719 141.914062 291.640625 137.882812 C 289.957031 134.261719 286.152344 132.199219 282.59375 130.382812 C 267.882812 122.890625 266.78125 129.378906 260.367188 131.441406 C 257.707031 132.296875 254.832031 131.910156 252.039062 132.070312 C 251.117188 132.121094 243.785156 132.871094 238.621094 137.882812 C 233.339844 143.007812 231.671875 151.308594 233.746094 157.910156 C 234.71875 161.003906 237.480469 166.78125 241.4375 167.140625 C 243.960938 167.367188 244.964844 165.21875 248.296875 165.433594 Z M 248.292969 165.433594 "/><path style=" stroke:none;fill-rule:nonzero;fill:#e67e22;fill-opacity:1;" d="M 248.292969 166.324219 C 250.960938 166.660156 252.0625 168.464844 253.636719 168.855469 C 255.300781 169.265625 256.753906 168.09375 257.507812 166.707031 C 258.480469 164.925781 258.773438 162.785156 259.007812 160.800781 C 259.988281 152.539062 258.332031 151.644531 260.21875 150.667969 C 262.910156 149.277344 266.183594 151.246094 269.539062 148.488281 C 272.179688 146.316406 271.070312 143.011719 274.613281 145.242188 C 278.855469 147.917969 280.699219 153.425781 280.851562 158.1875 C 280.878906 159.058594 281.832031 159.667969 282.613281 159.199219 C 286.140625 157.082031 289.175781 154.085938 291.058594 150.410156 C 297.363281 138.089844 291.402344 132.320312 278.621094 127.308594 C 268.574219 123.367188 265.773438 127.632812 261.476562 129.738281 C 257.832031 131.527344 253.664062 130.496094 249.78125 131.199219 C 238.886719 133.175781 232.378906 140.785156 231.746094 150.78125 C 231.289062 158.019531 235.621094 167.910156 241.433594 168.3125 C 243.917969 168.488281 245.792969 166.53125 248.292969 166.605469 C 249.800781 166.652344 249.800781 164.308594 248.292969 164.261719 C 243.84375 164.125 242.136719 168.378906 238.226562 163.914062 C 230.996094 155.660156 232.144531 137.578125 249.320312 133.683594 C 252.820312 132.890625 256.4375 133.613281 259.921875 132.78125 C 265.132812 131.542969 267.085938 127.167969 273.34375 128.207031 C 277.765625 128.9375 282.191406 131.191406 285.9375 133.582031 C 288.292969 135.085938 290.5 137.121094 291.101562 139.960938 C 291.976562 144.089844 289.019531 152.621094 281.433594 157.175781 C 282.019531 157.511719 282.605469 157.847656 283.195312 158.1875 C 282.785156 145.484375 272.941406 139.546875 270.136719 143.359375 C 269.332031 144.453125 269.15625 145.785156 268.046875 146.699219 C 265.324219 148.949219 260.707031 146.730469 258.019531 149.394531 C 256.085938 151.316406 257.507812 152.796875 256.730469 160.253906 C 256.570312 161.757812 255.945312 166.222656 254.507812 166.703125 C 253.257812 167.121094 252.335938 164.804688 248.296875 164.539062 C 247.128906 164.460938 247.1875 166.1875 248.296875 166.324219 Z M 248.292969 166.324219 "/><path style=" stroke:none;fill-rule:nonzero;fill:#e67e22;fill-opacity:1;" d="M 246.636719 170.09375 C 247.265625 170.234375 246.894531 170.25 247.699219 170.316406 C 247.789062 170.324219 247.371094 170.25 247.792969 170.335938 C 248.25 170.429688 248.421875 170.523438 248.542969 170.5625 C 248.328125 170.5 248.273438 170.449219 248.84375 170.691406 C 248.410156 170.507812 249.203125 170.8125 249.652344 171.21875 C 250.046875 171.578125 250.371094 172.089844 250.941406 172.179688 C 252.460938 172.417969 252.917969 170.0625 249.875 168.753906 C 247.65625 167.800781 246.023438 168.679688 246.132812 169.511719 C 246.171875 169.773438 246.367188 170.035156 246.636719 170.09375 Z M 246.636719 170.09375 "/><path style=" stroke:none;fill-rule:nonzero;fill:#e67e22;fill-opacity:1;" d="M 260.214844 186.796875 C 260.171875 189.015625 265.375 193.070312 271.035156 192.921875 C 272.214844 192.894531 273.578125 192.855469 274.460938 192.007812 C 275.417969 191.085938 274.460938 190.382812 273.449219 190.265625 C 272.742188 190.1875 270.292969 190.925781 266.859375 189.910156 C 263.074219 188.792969 261.851562 186.972656 260.332031 186.707031 C 260.269531 186.699219 260.214844 186.734375 260.214844 186.796875 Z M 260.214844 186.796875 "/><path style=" stroke:none;fill-rule:nonzero;fill:#e67e22;fill-opacity:1;" d="M 274.015625 160.078125 C 273.441406 161.382812 271.042969 163.761719 272.488281 170.035156 C 272.726562 171.070312 273.078125 172.070312 273.328125 173.097656 C 273.351562 173.183594 273.417969 173.65625 273.402344 173.394531 C 273.453125 174.304688 272.839844 174.097656 272.527344 174.617188 C 272.09375 175.339844 272.671875 176.191406 273.636719 176.058594 C 275.085938 175.859375 275.609375 174.113281 275.375 172.878906 C 275.199219 171.949219 274.859375 171.050781 274.621094 170.136719 C 273.652344 166.410156 273.960938 160.882812 274.1875 160.152344 C 274.21875 160.050781 274.0625 159.984375 274.015625 160.078125 Z M 274.015625 160.078125 "/><path style=" stroke:none;fill-rule:nonzero;fill:#e67e22;fill-opacity:1;" d="M 268.3125 162.703125 C 267.953125 161.636719 265.894531 160.769531 264.800781 160.523438 C 263.476562 160.230469 260.046875 160.261719 260.054688 161.5625 C 260.058594 162.109375 260.585938 162.523438 261.226562 162.238281 C 264.550781 160.753906 267.238281 163.214844 267.675781 163.335938 C 268.039062 163.4375 268.441406 163.082031 268.3125 162.703125 Z M 268.3125 162.703125 "/><path style=" stroke:none;fill-rule:nonzero;fill:#e67e22;fill-opacity:1;" d="M 276.773438 164.207031 L 276.839844 164.175781 C 276.796875 164.191406 276.792969 164.191406 276.839844 164.175781 C 277.238281 164 277.332031 163.882812 277.246094 163.945312 C 279.539062 162.273438 281.40625 163.835938 281.96875 163.765625 C 282.449219 163.707031 282.929688 163.296875 282.746094 162.75 C 282.105469 160.886719 276.84375 161.046875 275.875 163.308594 C 275.613281 163.917969 276.148438 164.496094 276.773438 164.207031 Z M 276.773438 164.207031 "/><path style=" stroke:none;fill-rule:nonzero;fill:#e67e22;fill-opacity:1;" d="M 280.226562 165.949219 C 280.679688 165.800781 281.09375 165.386719 281.238281 164.9375 C 281.492188 164.457031 281.390625 164.09375 281.335938 163.691406 C 281.246094 163.367188 281.082031 163.085938 280.84375 162.847656 C 280.714844 162.746094 280.585938 162.648438 280.457031 162.546875 C 279.949219 162.25 279.265625 162.179688 278.753906 162.449219 C 278.304688 162.597656 277.890625 163.011719 277.742188 163.460938 C 277.492188 163.941406 277.59375 164.304688 277.644531 164.707031 C 277.738281 165.03125 277.898438 165.3125 278.136719 165.550781 C 278.265625 165.652344 278.394531 165.75 278.523438 165.851562 C 279.019531 166.140625 279.707031 166.21875 280.226562 165.949219 Z M 280.226562 165.949219 "/><path style=" stroke:none;fill-rule:nonzero;fill:#e67e22;fill-opacity:1;" d="M 265.222656 165.136719 C 265.691406 164.984375 266.121094 164.550781 266.273438 164.082031 C 266.535156 163.582031 266.433594 163.203125 266.375 162.78125 C 266.28125 162.445312 266.109375 162.152344 265.863281 161.902344 C 265.726562 161.796875 265.59375 161.691406 265.460938 161.589844 C 264.929688 161.28125 264.214844 161.210938 263.683594 161.488281 C 263.210938 161.640625 262.78125 162.074219 262.628906 162.542969 C 262.367188 163.042969 262.472656 163.421875 262.527344 163.84375 C 262.625 164.179688 262.792969 164.472656 263.042969 164.722656 C 263.175781 164.828125 263.3125 164.933594 263.445312 165.035156 C 263.960938 165.335938 264.679688 165.421875 265.222656 165.136719 Z M 265.222656 165.136719 "/><path style=" stroke:none;fill-rule:nonzero;fill:#e67e22;fill-opacity:1;" d="M 270.910156 179.660156 C 271 178.542969 268.367188 177.773438 267.027344 179.355469 C 265.882812 180.703125 266.121094 182.542969 267.183594 183.449219 C 268.625 184.675781 270.21875 184.292969 270.269531 183.25 C 270.203125 183.40625 270.136719 183.566406 270.070312 183.722656 C 270.933594 182.820312 269.511719 182.488281 269.9375 182.671875 C 270.039062 182.804688 270.140625 182.9375 270.246094 183.070312 C 269.957031 182.214844 269.078125 182.460938 268.707031 182.210938 C 269.105469 182.402344 268.492188 182.054688 268.488281 182.054688 C 268.535156 182.054688 268.71875 182.253906 268.519531 182.074219 C 268.242188 181.828125 268.273438 181.738281 268.40625 181.976562 C 268.355469 181.890625 268.335938 181.898438 268.207031 181.65625 C 268.132812 181.515625 268.289062 181.875 268.222656 181.6875 C 268.085938 181.308594 268.132812 181.089844 268.25 180.746094 C 268.289062 180.640625 268.164062 180.933594 268.214844 180.832031 C 268.273438 180.71875 268.335938 180.617188 268.40625 180.507812 C 268.464844 180.414062 268.21875 180.71875 268.398438 180.523438 C 268.496094 180.414062 268.511719 180.410156 268.585938 180.34375 C 268.667969 180.269531 268.425781 180.453125 268.519531 180.394531 C 268.761719 180.246094 268.742188 180.238281 269.105469 180.164062 C 269.210938 180.140625 268.890625 180.179688 269.042969 180.171875 C 269.664062 180.140625 269.601562 180.179688 269.667969 180.160156 C 269.65625 180.164062 269.460938 180.125 269.597656 180.148438 C 269.9375 180.214844 270.136719 180.320312 270.394531 180.242188 C 270.675781 180.160156 270.890625 179.960938 270.914062 179.65625 Z M 270.910156 179.660156 "/><path style=" stroke:none;fill-rule:nonzero;fill:#ffffff;fill-opacity:1;" d="M 248.574219 196 C 247.316406 195.253906 245.3125 195.914062 244.15625 196.832031 C 242.710938 197.980469 243.078125 199.042969 239.746094 205.480469 C 240.359375 220.585938 246.554688 236.421875 249.222656 235.957031 C 251.019531 235.640625 249.410156 228.40625 253.5 225.921875 C 257.152344 223.703125 262.371094 227.085938 263.164062 225.734375 C 264.167969 224.015625 251.28125 215.28125 249.816406 203.730469 C 249.320312 199.796875 250.261719 197.003906 248.574219 196 Z M 248.574219 196 "/><path style=" stroke:none;fill-rule:nonzero;fill:#e67e22;fill-opacity:1;" d="M 248.808594 195.601562 C 246.335938 194.269531 243.351562 195.929688 242.273438 198.273438 C 241.585938 199.769531 240.980469 201.292969 240.261719 202.773438 C 239.011719 205.335938 238.679688 204.617188 239.363281 210.75 C 240.066406 217.046875 242.980469 231.351562 247.292969 235.875 C 248.773438 237.425781 250.519531 237.355469 251.042969 234.257812 C 251.699219 230.40625 252.066406 225.722656 257.195312 226.070312 C 258.472656 226.15625 264.613281 228.429688 264.089844 225.214844 C 263.5625 222.003906 250.5625 213.992188 250.550781 200.34375 C 250.550781 198.492188 250.730469 196.394531 249.03125 195.21875 C 248.066406 194.554688 247.160156 196.125 248.113281 196.785156 C 249.304688 197.609375 248.714844 200.714844 248.765625 201.941406 C 249.148438 211.171875 255.222656 217.199219 260.984375 223.75 C 261.183594 223.976562 262.136719 225.492188 262.304688 225.527344 C 262.257812 225.515625 262.5 225.28125 262.429688 225.214844 C 262.390625 225.175781 262.058594 225.136719 261.8125 225.105469 C 261.023438 225.003906 260.242188 224.75 259.464844 224.59375 C 248.058594 222.269531 250.183594 234.015625 248.960938 235.117188 C 249.152344 234.941406 249.175781 235.171875 248.910156 234.953125 C 247.757812 233.996094 246.605469 231.496094 246.011719 230.132812 C 243.382812 224.050781 241.46875 215.636719 240.792969 209.171875 C 240.332031 204.773438 240.574219 205.867188 242.375 201.699219 C 242.863281 200.574219 243.230469 199.335938 243.84375 198.269531 C 244.660156 196.851562 246.746094 195.726562 248.335938 196.402344 C 248.871094 196.632812 249.34375 195.890625 248.804688 195.601562 Z M 248.808594 195.601562 "/><path style=" stroke:none;fill-rule:nonzero;fill:#ffffff;fill-opacity:1;" d="M 269.457031 195.695312 C 270.621094 194.808594 272.6875 195.234375 273.941406 196.011719 C 275.503906 196.984375 275.269531 198.089844 279.320312 204.09375 C 280.449219 219.171875 276.121094 235.617188 273.414062 235.457031 C 271.722656 235.363281 272.46875 228.050781 268.011719 225.984375 C 265.5 224.816406 262.8125 225.996094 262.230469 224.808594 C 261.160156 222.621094 269.503906 219.980469 269.113281 203.519531 C 269.011719 199.246094 267.980469 196.828125 269.457031 195.699219 Z M 269.457031 195.695312 "/><path style=" stroke:none;fill-rule:nonzero;fill:#e67e22;fill-opacity:1;" d="M 269.691406 196.097656 C 271.078125 195.308594 273.136719 195.96875 274.179688 197.105469 C 274.734375 197.714844 275.082031 198.539062 275.472656 199.253906 C 276.359375 200.863281 277.507812 202.375 278.335938 204.003906 C 279.394531 206.097656 278.160156 229.761719 273.449219 234.546875 C 273.324219 234.671875 273.464844 234.492188 273.59375 234.601562 C 273.683594 234.675781 273.453125 234.308594 273.441406 234.246094 C 272.507812 229.71875 270.964844 225.289062 266.5 224.621094 C 265.597656 224.484375 264.703125 224.566406 263.796875 224.492188 C 263.628906 224.476562 262.988281 224.355469 263.046875 224.386719 C 263.03125 224.515625 262.933594 224.34375 263.660156 223.378906 C 265.777344 220.574219 268.808594 217.390625 269.78125 209.230469 C 270.820312 200.460938 268.4375 197.78125 270.105469 196.339844 C 270.992188 195.570312 269.703125 194.292969 268.824219 195.054688 C 267.628906 196.089844 267.71875 197.695312 267.855469 199.136719 C 268.460938 205.539062 268.53125 212.078125 265.316406 217.917969 C 264.339844 219.695312 262.980469 221.125 261.855469 222.789062 C 260.773438 224.390625 261.296875 226.09375 263.4375 226.285156 C 268.269531 226.71875 269.5625 226.453125 271.277344 233.199219 C 271.699219 234.855469 272.808594 237.632812 274.847656 235.71875 C 276.886719 233.800781 277.621094 230.109375 278.253906 227.535156 C 280.886719 216.859375 280.496094 205.050781 279.996094 203.703125 C 279.546875 202.492188 278.367188 201.265625 277.683594 200.140625 C 276.128906 197.570312 275.710938 196.394531 274.59375 195.609375 C 273.113281 194.566406 270.769531 194.214844 269.230469 195.296875 C 268.746094 195.636719 269.171875 196.398438 269.699219 196.101562 Z M 269.691406 196.097656 "/><path style=" stroke:none;fill-rule:nonzero;fill:#e67e22;fill-opacity:1;" d="M 476.183594 260.46875 C 475.480469 261.359375 474.828125 260.960938 473.070312 263.355469 C 466.828125 271.847656 460.648438 285.835938 461.347656 293.007812 C 461.398438 293.519531 462.160156 293.878906 462.433594 293.300781 C 464.867188 288.070312 464.855469 281.199219 472.089844 268.617188 C 474.132812 265.066406 475.023438 264.105469 475.554688 263.058594 C 475.859375 262.460938 476.09375 261.253906 476.480469 260.761719 C 476.644531 260.554688 476.351562 260.253906 476.183594 260.464844 Z M 476.183594 260.46875 "/><path style=" stroke:none;fill-rule:nonzero;fill:#e67e22;fill-opacity:1;" d="M 440.984375 293.535156 C 446.746094 291.886719 450.152344 286.867188 454.082031 282.730469 C 458.648438 277.914062 466.589844 273.371094 472.015625 279.640625 C 478.949219 287.652344 472.125 300.070312 469.390625 312.433594 C 466.21875 326.808594 470.179688 332.601562 472.847656 338.660156 C 474.203125 341.734375 475.488281 345.261719 474.34375 348.605469 C 472.871094 352.90625 466.789062 356.132812 467.816406 361.207031 C 468.464844 364.386719 471.890625 366.078125 472.523438 369.285156 C 473.421875 373.808594 469.867188 386.066406 469.058594 395.171875 C 469 395.851562 470.089844 395.988281 470.246094 395.332031 C 471.605469 389.597656 472.253906 383.578125 473.101562 377.742188 C 473.460938 375.257812 473.945312 372.652344 473.730469 370.132812 C 473.308594 365.269531 468.984375 363.792969 468.808594 360.351562 C 468.621094 356.726562 473.402344 353.582031 475.121094 349.699219 C 477.78125 343.6875 473.269531 337.507812 471.179688 332.082031 C 463.722656 312.679688 482.617188 293.328125 473.816406 280.386719 C 470.289062 275.191406 464.132812 273.753906 457.34375 278.761719 C 451.46875 283.089844 448.042969 290.59375 440.886719 293.171875 C 440.664062 293.25 440.75 293.597656 440.984375 293.53125 Z M 440.984375 293.535156 "/><path style=" stroke:none;fill-rule:nonzero;fill:#e67e22;fill-opacity:1;" d="M 484.277344 499.050781 C 483.195312 500.300781 481.496094 499.644531 480.488281 498.625 C 479.167969 497.285156 479.199219 495.347656 479.136719 493.582031 C 478.832031 485.609375 474.839844 484.996094 469.015625 480.289062 C 463.277344 475.65625 458.179688 466.148438 454.332031 459.710938 C 414.507812 393.097656 411.789062 385.214844 406.363281 379.632812 C 397.289062 370.300781 383.3125 373.34375 372.046875 375.839844 C 339.539062 383.054688 305.976562 382.308594 273.964844 373.140625 L 273.964844 375.011719 C 282.5625 373.824219 289.433594 366.054688 289.609375 357.394531 C 289.636719 356.253906 287.890625 356.261719 287.84375 357.394531 C 287.5 365.253906 281.214844 372.078125 273.449219 373.136719 C 272.449219 373.273438 272.605469 374.769531 273.449219 375.011719 C 327.875 390.707031 368.417969 377.910156 381.410156 375.734375 C 387.539062 374.710938 394.339844 374.253906 400.09375 377.054688 C 409.234375 381.507812 409.085938 387.519531 452.523438 458.644531 C 455.878906 464.136719 463.1875 476.554688 467.863281 480.839844 C 471.820312 484.46875 477.464844 486.179688 477.804688 492.5 C 477.945312 495.128906 477.765625 497.976562 480.054688 499.761719 C 481.511719 500.898438 483.679688 501.339844 484.96875 499.738281 C 485.351562 499.257812 484.691406 498.5625 484.277344 499.046875 Z M 484.277344 499.050781 "/><path style=" stroke:none;fill-rule:nonzero;fill:#e67e22;fill-opacity:1;" d="M 221.574219 319.128906 C 222.890625 319.21875 225.363281 315.339844 232.292969 315.019531 C 234.894531 314.902344 235.449219 315.375 236.425781 315.160156 C 237.296875 314.972656 237.371094 313.753906 236.667969 313.328125 C 234.785156 312.1875 226.691406 312.945312 222.21875 316.871094 C 221.710938 317.316406 221 317.820312 220.992188 318.546875 C 220.988281 318.875 221.261719 319.109375 221.578125 319.132812 Z M 221.574219 319.128906 "/><path style=" stroke:none;fill-rule:nonzero;fill:#e67e22;fill-opacity:1;" d="M 147.429688 316.617188 C 145.828125 325.207031 146.316406 380.527344 174.097656 439.882812 C 178.183594 448.605469 185.632812 463.304688 191.828125 471.03125 C 192.300781 471.621094 193.101562 470.871094 192.8125 470.273438 C 187.75 459.703125 176.761719 443.976562 165.820312 413.175781 C 147.902344 362.75 149.695312 325.410156 148.011719 316.617188 C 147.953125 316.328125 147.480469 316.324219 147.425781 316.617188 Z M 147.429688 316.617188 "/><path style=" stroke:none;fill-rule:nonzero;fill:#e67e22;fill-opacity:1;" d="M 203.949219 465.933594 C 208.214844 470.742188 208.570312 471.164062 208.757812 471.308594 C 209.507812 471.890625 210.46875 471.542969 210.6875 470.75 C 210.941406 469.824219 210.464844 469.632812 205.625 464.257812 C 204.613281 463.132812 202.859375 464.707031 203.945312 465.933594 Z M 203.949219 465.933594 "/><path style=" stroke:none;fill-rule:nonzero;fill:#e67e22;fill-opacity:1;" d="M 396.28125 527.285156 C 406.320312 522.046875 405.378906 522.652344 406.226562 521.695312 C 406.644531 521.222656 406.40625 520.226562 405.652344 520.304688 C 404.066406 520.472656 405.160156 520.101562 395.0625 525.199219 C 393.757812 525.855469 394.742188 528.089844 396.28125 527.285156 Z M 396.28125 527.285156 "/><path style=" stroke:none;fill-rule:nonzero;fill:#e67e22;fill-opacity:1;" d="M 407 530.210938 C 409 531.761719 411.777344 530.96875 412.292969 529.785156 C 412.550781 529.199219 412.753906 528.589844 412.25 528.199219 C 411.90625 527.9375 411.578125 528.011719 411.21875 528.199219 C 411.105469 528.257812 411.289062 528.167969 411.3125 528.160156 C 410.664062 528.3125 410.632812 528.449219 410.171875 528.675781 C 410.011719 528.753906 410.410156 528.585938 410.28125 528.628906 C 410.144531 528.675781 409.980469 528.75 409.617188 528.804688 C 409.71875 528.789062 409.824219 528.773438 409.925781 528.761719 C 409.65625 528.796875 409.382812 528.800781 409.113281 528.765625 C 409.214844 528.777344 409.316406 528.792969 409.421875 528.808594 C 409.199219 528.773438 408.996094 528.707031 408.785156 528.644531 C 409.117188 528.742188 408.996094 528.753906 408.742188 528.609375 C 408.644531 528.554688 408.308594 528.300781 408.640625 528.566406 C 407.644531 527.773438 406.621094 528.5625 406.65625 529.386719 C 406.667969 529.671875 406.761719 530.027344 407 530.207031 Z M 407 530.210938 "/><path style=" stroke:none;fill-rule:nonzero;fill:#e67e22;fill-opacity:1;" d="M 190.535156 156.058594 C 193.34375 157.882812 195.371094 158.785156 209.359375 164.738281 C 211.3125 165.570312 213.4375 166.75 215.546875 167.058594 C 215.957031 167.121094 216.457031 166.582031 216.019531 166.246094 C 214.511719 165.070312 213.679688 164.84375 203.804688 160.722656 C 199.511719 158.929688 195.21875 156.746094 190.695312 155.675781 C 190.464844 155.621094 190.335938 155.925781 190.535156 156.058594 Z M 190.535156 156.058594 "/><path style=" stroke:none;fill-rule:nonzero;fill:#e67e22;fill-opacity:1;" d="M 207.589844 152.601562 C 209.695312 154.308594 207.441406 152.792969 213.6875 157.667969 C 215.519531 159.09375 215.3125 158.9375 215.949219 159.078125 C 216.363281 159.171875 216.722656 158.742188 216.503906 158.359375 C 216.164062 157.769531 216.296875 157.902344 215.636719 157.425781 C 208.933594 152.613281 210.027344 153.738281 207.839844 152.269531 C 207.648438 152.140625 207.402344 152.449219 207.585938 152.597656 Z M 207.589844 152.601562 "/><path style=" stroke:none;fill-rule:nonzero;fill:#e67e22;fill-opacity:1;" d="M 215.378906 141.34375 C 215.558594 142.710938 216.191406 143.863281 217.925781 147.1875 C 218.941406 149.136719 219.9375 151.121094 221.332031 152.828125 C 221.628906 153.191406 222.25 152.800781 222.109375 152.378906 C 221.296875 149.90625 219.675781 147.3125 217.554688 143.722656 C 217.015625 142.804688 216.484375 141.921875 215.65625 141.230469 C 215.5625 141.152344 215.359375 141.1875 215.378906 141.34375 Z M 215.378906 141.34375 "/><path style=" stroke:none;fill-rule:nonzero;fill:#e67e22;fill-opacity:1;" d="M 310.289062 152.164062 C 312.6875 151.039062 317.78125 147.933594 318.617188 145.421875 C 318.785156 144.914062 318.203125 144.613281 317.796875 144.792969 C 315.46875 145.820312 313.058594 150.183594 304.714844 152.621094 C 303.5625 152.957031 301.140625 153.5625 301.019531 153.59375 C 300.546875 153.71875 300.117188 153.957031 299.636719 154.046875 C 298.578125 154.242188 302.65625 155.742188 310.292969 152.160156 Z M 310.289062 152.164062 "/><path style=" stroke:none;fill-rule:nonzero;fill:#e67e22;fill-opacity:1;" d="M 303.261719 145.148438 C 306.28125 143.21875 304.523438 144.445312 309.902344 140.371094 C 310.296875 140.070312 310.503906 139.777344 310.71875 139.339844 C 310.96875 138.839844 310.5625 138.300781 310.011719 138.417969 C 309.113281 138.605469 309.023438 138.78125 307.914062 139.664062 C 303.554688 143.125 304.808594 142.074219 302.527344 144.199219 C 302.027344 144.664062 302.675781 145.523438 303.257812 145.152344 Z M 303.261719 145.148438 "/><path style=" stroke:none;fill-rule:nonzero;fill:#e67e22;fill-opacity:1;" d="M 583.664062 55.34375 C 587.085938 57.800781 586.78125 57.730469 587.746094 57.601562 C 588.332031 57.523438 588.21875 56.585938 587.835938 56.214844 C 587.460938 55.84375 587.265625 55.765625 584.4375 54.015625 C 583.613281 53.507812 582.789062 54.714844 583.664062 55.34375 Z M 583.664062 55.34375 "/><path style=" stroke:none;fill-rule:nonzero;fill:#e67e22;fill-opacity:1;" d="M 593.308594 60.195312 C 594.492188 61.480469 593.792969 61.035156 594.585938 61.695312 C 595.976562 62.851562 595.859375 62.84375 596.382812 62.847656 C 596.652344 62.851562 596.898438 62.609375 596.742188 62.132812 C 596.652344 61.859375 596.433594 61.738281 596.042969 61.445312 C 594.0625 59.945312 595.226562 60.917969 593.503906 59.941406 C 593.339844 59.847656 593.183594 60.0625 593.308594 60.195312 Z M 593.308594 60.195312 "/><path style=" stroke:none;fill-rule:nonzero;fill:#ffffff;fill-opacity:1;" d="M 292.296875 333.441406 C 300.511719 340.265625 302.164062 332.171875 308.179688 334.570312 C 310.820312 335.621094 310.9375 337.917969 312.574219 338.433594 C 316.628906 339.710938 329.183594 327.882812 308.988281 320.570312 C 301.070312 317.707031 292.195312 319.585938 289.097656 323.914062 C 286.441406 327.628906 288.824219 330.554688 292.296875 333.441406 Z M 292.296875 333.441406 "/><path style=" stroke:none;fill-rule:nonzero;fill:#e67e22;fill-opacity:1;" d="M 302.703125 330.914062 C 306.613281 330.269531 309.476562 329.753906 314.726562 335.871094 C 315.101562 336.308594 315.539062 336.957031 316.152344 337.054688 C 316.355469 337.085938 316.542969 336.972656 316.550781 336.75 C 316.578125 336.078125 315.972656 335.503906 315.570312 335.027344 C 307.414062 325.480469 302.082031 331.015625 302.703125 330.914062 Z M 302.703125 330.914062 "/><path style=" stroke:none;fill-rule:nonzero;fill:#e67e22;fill-opacity:1;" d="M 304.726562 326.769531 C 305.101562 326.722656 307.683594 326.714844 308.867188 326.847656 C 312.613281 327.28125 316.003906 329.113281 318.351562 331.492188 C 318.804688 331.957031 319.242188 332.757812 319.839844 333.015625 C 320.113281 333.128906 320.554688 333.007812 320.511719 332.628906 C 320.335938 331.035156 314.628906 325.523438 306.960938 326.105469 C 306.140625 326.167969 305.488281 326.425781 304.710938 326.640625 C 304.644531 326.660156 304.652344 326.777344 304.730469 326.765625 Z M 304.726562 326.769531 "/><path style=" stroke:none;fill-rule:nonzero;fill:#e67e22;fill-opacity:1;" d="M 304.285156 323.761719 C 305.148438 324.527344 311.464844 322.496094 315.015625 325.539062 C 315.390625 325.859375 316.425781 327.238281 316.941406 326.527344 C 317.453125 325.820312 316.082031 324.722656 315.617188 324.363281 C 311.46875 321.144531 303.636719 323.1875 304.285156 323.765625 Z M 304.285156 323.761719 "/><path style=" stroke:none;fill-rule:nonzero;fill:#ffffff;fill-opacity:1;" d="M 301.117188 228.242188 C 300.878906 230.425781 300.519531 230.21875 306.988281 254.773438 C 307.753906 257.691406 308.3125 260.65625 309.75 263.320312 C 309.984375 263.761719 310.691406 263.554688 310.683594 263.066406 C 310.648438 260.183594 310.035156 258.226562 306.617188 245.390625 C 304.476562 237.367188 303.273438 232.90625 303.007812 232.011719 C 302.40625 230.0625 301.160156 227.878906 301.117188 228.242188 Z M 301.117188 228.242188 "/><path style=" stroke:none;fill-rule:nonzero;fill:#ffffff;fill-opacity:1;" d="M 232.15625 227.921875 C 232.554688 230.742188 231.878906 228.339844 232.976562 234.269531 C 236.085938 251.105469 235.960938 250.953125 236.683594 252.601562 C 236.921875 253.140625 237.707031 252.824219 237.726562 252.320312 C 237.792969 250.480469 237.546875 249.902344 235.605469 240.113281 C 235.582031 239.992188 233.847656 231.214844 233.800781 231.007812 C 233.546875 229.886719 233.074219 228.851562 232.804688 227.746094 C 232.699219 227.3125 232.097656 227.507812 232.15625 227.921875 Z M 232.15625 227.921875 "/><path style=" stroke:none;fill-rule:nonzero;fill:#ffffff;fill-opacity:1;" d="M 261.871094 240.078125 C 262.167969 240.429688 262.734375 240.742188 263.1875 240.800781 C 263.316406 240.835938 263.441406 240.835938 263.570312 240.800781 C 263.960938 240.792969 264.308594 240.554688 264.609375 240.316406 C 264.871094 240.054688 265.027344 239.648438 264.949219 239.28125 C 264.925781 238.855469 264.648438 238.601562 264.320312 238.355469 C 264.40625 238.421875 264.492188 238.484375 264.574219 238.554688 C 264.53125 238.515625 264.492188 238.476562 264.457031 238.429688 C 264.53125 238.523438 264.601562 238.617188 264.675781 238.710938 C 264.664062 238.699219 264.578125 238.578125 264.519531 238.5 C 264.457031 238.390625 264.367188 238.304688 264.257812 238.242188 C 264.089844 238.09375 264.101562 238.132812 263.980469 238.042969 C 264.078125 238.117188 264.179688 238.195312 264.277344 238.269531 C 264.210938 238.21875 264.148438 238.15625 264.097656 238.085938 C 264.171875 238.1875 264.25 238.289062 264.328125 238.386719 C 264.230469 238.253906 264.113281 237.957031 263.703125 237.714844 C 263.582031 237.664062 263.460938 237.613281 263.34375 237.5625 C 262.902344 237.445312 262.371094 237.523438 262.03125 237.832031 C 261.722656 238.03125 261.480469 238.425781 261.460938 238.816406 C 261.359375 239.261719 261.558594 239.761719 261.878906 240.082031 Z M 261.871094 240.078125 "/><path style=" stroke:none;fill-rule:nonzero;fill:#ffffff;fill-opacity:1;" d="M 266.5625 252.234375 C 267.609375 252.527344 268.425781 252.164062 268.757812 251.652344 C 268.859375 251.546875 268.933594 251.425781 268.972656 251.28125 C 269.195312 250.859375 269.105469 250.539062 269.058594 250.1875 C 268.910156 249.832031 268.832031 249.558594 268.457031 249.316406 C 268.167969 249.050781 267.515625 248.828125 267.039062 248.933594 C 266.851562 248.941406 266.746094 248.984375 266.5625 249.03125 C 266.210938 249.179688 265.941406 249.257812 265.699219 249.628906 C 265.597656 249.730469 265.523438 249.855469 265.484375 249.996094 C 265.265625 250.410156 265.355469 250.726562 265.402344 251.078125 C 265.550781 251.429688 265.625 251.699219 265.996094 251.941406 C 266.15625 252.085938 266.347656 252.1875 266.5625 252.238281 Z M 266.5625 252.234375 "/><path style=" stroke:none;fill-rule:nonzero;fill:#ffffff;fill-opacity:1;" d="M 247.027344 159.960938 C 249.511719 159.875 256.285156 151.90625 252.429688 144.003906 C 252.039062 144.390625 251.65625 144.777344 251.269531 145.164062 C 257.902344 148.480469 263.902344 145.234375 261.976562 144.511719 C 261.332031 144.269531 260.402344 144.640625 259.742188 144.769531 C 257.027344 145.300781 254.394531 144.878906 252.121094 143.699219 C 251.339844 143.292969 250.605469 144.097656 250.964844 144.859375 C 252.125 147.332031 252.199219 150.164062 251.371094 152.753906 C 249.957031 157.164062 246.9375 158.335938 246.492188 159.035156 C 246.246094 159.425781 246.566406 159.976562 247.023438 159.960938 Z M 247.027344 159.960938 "/></g></svg>