<svg xmlns="http://www.w3.org/2000/svg" xmlns:xlink="http://www.w3.org/1999/xlink" width="1024" zoomAndPan="magnify" viewBox="0 0 768 576" height="768" preserveAspectRatio="xMidYMid meet" version="1.2"><defs><clipPath id="8c1857759c"><path d="M 98.613281 107 L 559 107 L 559 486 L 98.613281 486 Z M 98.613281 107 "/></clipPath><clipPath id="af2018b597"><path d="M 568.527344 183.40625 L 636.941406 183.40625 L 636.941406 274.800781 L 568.527344 274.800781 Z M 568.527344 183.40625 "/></clipPath><clipPath id="f210e807ef"><path d="M 177 284.617188 L 636.941406 284.617188 L 636.941406 561.75 L 177 561.75 Z M 177 284.617188 "/></clipPath><clipPath id="4dc7764724"><path d="M 697 50.703125 L 710 50.703125 L 710 64.203125 L 697 64.203125 Z M 697 50.703125 "/></clipPath></defs><g id="22ad97e6af"><g clip-rule="nonzero" clip-path="url(#8c1857759c)"><path style=" stroke:none;fill-rule:nonzero;fill:#e67e22;fill-opacity:1;" d="M 522.980469 274.738281 C 525.71875 274.738281 527.941406 276.953125 527.941406 279.695312 C 527.941406 282.433594 525.71875 284.652344 522.980469 284.652344 L 134.699219 284.652344 C 131.960938 284.652344 129.742188 282.433594 129.742188 279.695312 C 129.742188 276.953125 131.960938 274.738281 134.699219 274.738281 Z M 522.980469 351.898438 L 134.699219 351.898438 C 131.960938 351.898438 129.742188 349.679688 129.742188 346.941406 C 129.742188 344.203125 131.960938 341.984375 134.699219 341.984375 L 522.980469 341.984375 C 525.71875 341.984375 527.941406 344.203125 527.941406 346.941406 C 527.941406 349.679688 525.71875 351.898438 522.980469 351.898438 Z M 522.980469 419.148438 L 134.699219 419.148438 C 131.960938 419.148438 129.742188 416.925781 129.742188 414.1875 C 129.742188 411.449219 131.960938 409.230469 134.699219 409.230469 L 522.980469 409.230469 C 525.71875 409.230469 527.941406 411.449219 527.941406 414.1875 C 527.941406 416.925781 525.71875 419.148438 522.980469 419.148438 Z M 249.746094 197.789062 C 249.746094 219.585938 232.011719 237.320312 210.214844 237.320312 C 188.414062 237.320312 170.679688 219.585938 170.679688 197.789062 L 170.679688 107.246094 L 110.511719 107.246094 C 104.09375 107.246094 98.871094 112.472656 98.871094 118.890625 L 98.871094 198.472656 L 155.402344 198.472656 C 158.140625 198.472656 160.359375 200.695312 160.359375 203.433594 C 160.359375 206.171875 158.140625 208.390625 155.402344 208.390625 L 98.871094 208.390625 L 98.871094 473.847656 C 98.871094 480.265625 104.09375 485.488281 110.511719 485.488281 L 547.171875 485.488281 C 553.585938 485.488281 558.808594 480.265625 558.808594 473.847656 L 558.808594 208.390625 L 266.898438 208.390625 C 264.160156 208.390625 261.941406 206.171875 261.941406 203.433594 C 261.941406 200.695312 264.160156 198.472656 266.898438 198.472656 L 558.808594 198.472656 L 558.808594 118.890625 C 558.808594 112.472656 553.585938 107.246094 547.171875 107.246094 L 249.746094 107.246094 L 249.746094 197.789062 "/></g><path style=" stroke:none;fill-rule:nonzero;fill:#e67e22;fill-opacity:1;" d="M 199.261719 198.476562 L 221.199219 198.476562 C 223.941406 198.476562 226.160156 200.695312 226.160156 203.433594 C 226.160156 206.171875 223.941406 208.390625 221.199219 208.390625 L 199.261719 208.390625 C 196.523438 208.390625 194.304688 206.171875 194.304688 203.433594 C 194.304688 200.695312 196.523438 198.476562 199.261719 198.476562 Z M 210.214844 227.40625 C 226.542969 227.40625 239.828125 214.117188 239.828125 197.789062 L 239.828125 107.25 L 180.597656 107.25 L 180.597656 197.789062 C 180.597656 214.117188 193.882812 227.40625 210.214844 227.40625 "/><g clip-rule="nonzero" clip-path="url(#af2018b597)"><path style=" stroke:none;fill-rule:nonzero;fill:#e67e22;fill-opacity:1;" d="M 625.296875 183.511719 L 568.722656 183.511719 L 568.722656 274.734375 L 636.941406 274.734375 L 636.941406 195.152344 C 636.941406 188.734375 631.714844 183.511719 625.296875 183.511719 "/></g><g clip-rule="nonzero" clip-path="url(#f210e807ef)"><path style=" stroke:none;fill-rule:nonzero;fill:#e67e22;fill-opacity:1;" d="M 568.722656 350.996094 L 601.117188 350.996094 C 603.855469 350.996094 606.078125 353.21875 606.078125 355.957031 C 606.078125 358.691406 603.855469 360.914062 601.117188 360.914062 L 568.722656 360.914062 L 568.722656 418.242188 L 601.117188 418.242188 C 603.855469 418.242188 606.078125 420.464844 606.078125 423.203125 C 606.078125 425.941406 603.855469 428.160156 601.117188 428.160156 L 568.722656 428.160156 L 568.722656 473.847656 C 568.722656 478.136719 567.449219 482.128906 565.285156 485.488281 L 601.117188 485.488281 C 603.855469 485.488281 606.078125 487.710938 606.078125 490.449219 C 606.078125 493.1875 603.855469 495.40625 601.117188 495.40625 L 177 495.40625 L 177 550.109375 C 177 556.527344 182.222656 561.75 188.644531 561.75 L 625.296875 561.75 C 631.714844 561.75 636.941406 556.527344 636.941406 550.109375 L 636.941406 284.652344 L 568.722656 284.652344 L 568.722656 350.996094 "/></g><path style=" stroke:none;fill-rule:nonzero;fill:#e67e22;fill-opacity:1;" d="M 244.789062 64.539062 C 240.28125 64.539062 236.613281 68.207031 236.613281 72.714844 L 236.613281 107.246094 L 252.960938 107.246094 L 252.960938 72.714844 C 252.960938 68.207031 249.292969 64.539062 244.789062 64.539062 "/><path style=" stroke:none;fill-rule:nonzero;fill:#e67e22;fill-opacity:1;" d="M 221.199219 0 C 191.570312 0 167.464844 24.109375 167.464844 53.734375 L 167.464844 107.25 L 183.8125 107.25 L 183.8125 53.734375 C 183.8125 33.121094 200.585938 16.351562 221.199219 16.351562 C 241.816406 16.351562 258.585938 33.121094 258.585938 53.734375 L 258.585938 88.355469 C 258.585938 92.859375 262.253906 96.527344 266.761719 96.527344 C 271.269531 96.527344 274.9375 92.859375 274.9375 88.355469 L 274.9375 53.734375 C 274.9375 24.109375 250.832031 0 221.199219 0 "/><g clip-rule="nonzero" clip-path="url(#4dc7764724)"><path style=" stroke:none;fill-rule:evenodd;fill:#f9f7f8;fill-opacity:1;" d="M 700.515625 62.738281 C 700.332031 62.738281 700.304688 62.476562 700.460938 62.421875 L 707.550781 60.539062 C 707.761719 60.488281 707.839844 60.773438 707.632812 60.828125 Z M 708.652344 64.175781 L 700.960938 64.175781 C 700.90625 64.203125 700.828125 64.203125 700.75 64.203125 C 700.382812 64.203125 700.042969 63.941406 699.9375 63.574219 L 697.324219 53.761719 C 697.191406 53.292969 697.453125 52.820312 697.898438 52.714844 L 704.910156 50.832031 C 705.355469 50.703125 705.824219 50.988281 705.957031 51.433594 L 706.191406 52.324219 L 708.652344 52.324219 C 709.121094 52.324219 709.515625 52.691406 709.515625 53.160156 L 709.515625 63.339844 C 709.515625 63.808594 709.121094 64.175781 708.652344 64.175781 Z M 708.285156 61.324219 L 705.644531 51.511719 C 705.5625 51.226562 705.277344 51.066406 704.988281 51.148438 L 698.003906 53.003906 C 697.714844 53.082031 697.53125 53.398438 697.609375 53.660156 L 700.253906 63.496094 C 700.332031 63.785156 700.621094 63.941406 700.90625 63.863281 L 707.894531 62.003906 C 708.179688 61.925781 708.363281 61.613281 708.285156 61.324219 Z M 702.136719 63.863281 L 708.652344 63.863281 C 708.9375 63.863281 709.199219 63.625 709.199219 63.339844 L 709.199219 53.160156 C 709.199219 52.875 708.9375 52.636719 708.652344 52.636719 L 706.269531 52.636719 L 708.597656 61.246094 C 708.703125 61.714844 708.441406 62.1875 707.996094 62.292969 Z M 699.546875 59.101562 C 699.363281 59.101562 699.3125 58.839844 699.496094 58.8125 L 706.585938 56.902344 C 706.792969 56.851562 706.871094 57.164062 706.664062 57.214844 Z M 699.703125 59.753906 C 699.519531 59.753906 699.496094 59.492188 699.675781 59.464844 L 706.769531 57.554688 C 706.949219 57.503906 707.03125 57.816406 706.847656 57.871094 Z M 699.886719 60.433594 C 699.703125 60.433594 699.675781 60.171875 699.859375 60.121094 L 706.925781 58.210938 C 707.132812 58.160156 707.210938 58.472656 707.03125 58.523438 Z M 700.148438 61.429688 C 699.964844 61.429688 699.9375 61.167969 700.121094 61.113281 L 707.210938 59.203125 C 707.394531 59.152344 707.472656 59.464844 707.292969 59.519531 Z M 700.332031 62.082031 C 700.148438 62.082031 700.121094 61.820312 700.304688 61.769531 L 707.371094 59.886719 C 707.578125 59.804688 707.65625 60.121094 707.449219 60.171875 Z M 700.332031 62.082031 "/></g></g></svg>