<svg xmlns="http://www.w3.org/2000/svg" xmlns:xlink="http://www.w3.org/1999/xlink" width="1300" zoomAndPan="magnify" viewBox="0 0 974.88 419.999985" height="560" preserveAspectRatio="xMidYMid meet" version="1.2"><defs><clipPath id="8ac5e9f26d"><path d="M 0 0.0273438 L 974.761719 0.0273438 L 974.761719 419.972656 L 0 419.972656 Z M 0 0.0273438 "/></clipPath><clipPath id="05d025e7ac"><path d="M 0 282 L 974.761719 282 L 974.761719 419.972656 L 0 419.972656 Z M 0 282 "/></clipPath></defs><g id="59ff87f320"><g clip-rule="nonzero" clip-path="url(#8ac5e9f26d)"><path style=" stroke:none;fill-rule:nonzero;fill:#ffffff;fill-opacity:1;" d="M 0 0.0273438 L 974.878906 0.0273438 L 974.878906 419.972656 L 0 419.972656 Z M 0 0.0273438 "/><rect x="0" width="974.88" y="0" height="419.999985" style="fill:#ffffff;fill-opacity:1;stroke:none;"/></g><g clip-rule="nonzero" clip-path="url(#05d025e7ac)"><path style=" stroke:none;fill-rule:nonzero;fill:#e67e22;fill-opacity:1;" d="M -126.828125 285.753906 L -100.1875 283.894531 C -73.550781 282.035156 -20.269531 278.320312 32.761719 294.050781 C 85.917969 309.65625 138.703125 344.832031 191.859375 351.644531 C 244.890625 358.457031 298.167969 336.90625 351.199219 331.332031 C 404.355469 325.757812 457.140625 336.164062 510.296875 354.496094 C 563.328125 372.824219 616.605469 399.332031 669.640625 390.785156 C 722.792969 382.363281 775.578125 339.011719 828.734375 319.195312 C 881.765625 299.378906 935.046875 303.09375 961.683594 304.949219 L 988.324219 306.808594 L 988.324219 538.425781 L 961.683594 538.425781 C 935.046875 538.425781 881.765625 538.425781 828.734375 538.425781 C 775.578125 538.425781 722.792969 538.425781 669.640625 538.425781 C 616.605469 538.425781 563.328125 538.425781 510.296875 538.425781 C 457.140625 538.425781 404.355469 538.425781 351.199219 538.425781 C 298.167969 538.425781 244.890625 538.425781 191.859375 538.425781 C 138.703125 538.425781 85.917969 538.425781 32.761719 538.425781 C -20.269531 538.425781 -73.550781 538.425781 -100.1875 538.425781 L -126.828125 538.425781 Z M -126.828125 285.753906 "/></g></g></svg>